SplineFontDB: 3.2
FontName: Nunito-MediumItalic
FullName: Nunito Medium Italic
FamilyName: Nunito Medium
Weight: Medium
Copyright: Copyright 2014 The Nunito Project Authors (https://github.com/googlefonts/nunito)
Version: 3.602-ef
ItalicAngle: -9
UnderlinePosition: -94
UnderlineWidth: 28
Ascent: 800
Descent: 200
InvalidEm: 0
sfntRevision: 0x00039a1d
LayerCount: 2
Layer: 0 1 "Back" 1
Layer: 1 1 "Fore" 0
XUID: [1021 965 1680887925 9333862]
StyleMap: 0x0001
FSType: 0
OS2Version: 4
OS2_WeightWidthSlopeOnly: 0
OS2_UseTypoMetrics: 1
CreationTime: 1592915285
ModificationTime: 1719074339
PfmFamily: 81
TTFWeight: 500
TTFWidth: 5
LineGap: 0
VLineGap: 0
Panose: 0 0 0 0 0 0 0 0 0 0
OS2TypoAscent: 1011
OS2TypoAOffset: 0
OS2TypoDescent: -353
OS2TypoDOffset: 0
OS2TypoLinegap: 0
OS2WinAscent: 1077
OS2WinAOffset: 0
OS2WinDescent: 300
OS2WinDOffset: 0
HheadAscent: 1011
HheadAOffset: 0
HheadDescent: -353
HheadDOffset: 0
OS2SubXSize: 650
OS2SubYSize: 600
OS2SubXOff: 0
OS2SubYOff: 75
OS2SupXSize: 650
OS2SupYSize: 600
OS2SupXOff: 0
OS2SupYOff: 350
OS2StrikeYSize: 28
OS2StrikeYPos: 290
OS2CapHeight: 705
OS2XHeight: 484
OS2Vendor: 'NONE'
OS2CodePages: 20000197.00000000
OS2UnicodeRanges: a00002ff.5000204b.00000000.00000000
Lookup: 1 0 0 "'aalt' Access All Alternates lookup 0" { "'aalt' Access All Alternates lookup 0 subtable"  } ['aalt' ('DFLT' <'dflt' > 'cyrl' <'BSH ' 'CHU ' 'dflt' > 'latn' <'AZE ' 'CAT ' 'CRT ' 'KAZ ' 'MOL ' 'NLD ' 'ROM ' 'TAT ' 'TRK ' 'dflt' > ) ]
Lookup: 3 0 0 "'aalt' Access All Alternates lookup 1" { "'aalt' Access All Alternates lookup 1 subtable"  } ['aalt' ('DFLT' <'dflt' > 'cyrl' <'BSH ' 'CHU ' 'dflt' > 'latn' <'AZE ' 'CAT ' 'CRT ' 'KAZ ' 'MOL ' 'NLD ' 'ROM ' 'TAT ' 'TRK ' 'dflt' > ) ]

StartChar: .notdef
Encoding: 65536 -1 0
Width: 500
GlyphClass: 1
Flags: W
LayerCount: 2
Fore
SplineSet
50 -180 m 1,0,-1
 50 705 l 1,1,-1
 450 705 l 1,2,-1
 450 -180 l 1,3,-1
 50 -180 l 1,0,-1
100 -130 m 1,4,-1
 400 -130 l 1,5,-1
 400 655 l 1,6,-1
 100 655 l 1,7,-1
 100 -130 l 1,4,-1
EndSplineSet
EndChar

StartChar: A
Encoding: 65 65 1
Width: 733
GlyphClass: 2
Flags: W
AnchorPoint: "Anchor-3" 656 0 basechar 0
AnchorPoint: "Anchor-2" 346 0 basechar 0
AnchorPoint: "Anchor-0" 440 705 basechar 0
LayerCount: 2
Fore
SplineSet
43 -7 m 0,0,1
 26 -7 26 -7 15 1 c 128,-1,2
 4 9 4 9 1.5 22.5 c 128,-1,3
 -1 36 -1 36 8 52 c 2,4,-1
 386 680 l 2,5,6
 397 697 397 697 409.5 704.5 c 128,-1,7
 422 712 422 712 440 712 c 0,8,9
 459 712 459 712 471.5 703 c 128,-1,10
 484 694 484 694 489 675 c 2,11,-1
 664 54 l 2,12,13
 670 33 670 33 666.5 19.5 c 128,-1,14
 663 6 663 6 653 -0.5 c 128,-1,15
 643 -7 643 -7 628 -7 c 0,16,17
 608 -7 608 -7 597 3.5 c 128,-1,18
 586 14 586 14 580 35 c 2,19,-1
 538 196 l 1,20,-1
 571 176 l 1,21,-1
 148 176 l 1,22,-1
 191 194 l 1,23,-1
 90 22 l 2,24,25
 82 7 82 7 70 0 c 128,-1,26
 58 -7 58 -7 43 -7 c 0,0,1
428 600 m 1,27,-1
 215 236 l 1,28,-1
 193 252 l 1,29,-1
 551 252 l 1,30,-1
 527 235 l 1,31,-1
 430 600 l 1,32,-1
 428 600 l 1,27,-1
EndSplineSet
Substitution2: "Single Substitution lookup 29 subtable" ordfeminine
Substitution2: "'aalt' Access All Alternates lookup 0 subtable" ordfeminine
EndChar

StartChar: Aogonek
Encoding: 260 260 24
Width: 733
GlyphClass: 1
Flags: W
LayerCount: 2
Fore
SplineSet
621 -193 m 0,0,1
 571 -193 571 -193 546 -167.5 c 128,-1,2
 521 -142 521 -142 521 -103 c 256,3,4
 521 -64 521 -64 541 -32.5 c 128,-1,5
 561 -1 561 -1 597 21 c 1,6,-1
 593 8 l 1,7,8
 589 12 589 12 585.5 19.5 c 128,-1,9
 582 27 582 27 580 35 c 2,10,-1
 538 196 l 1,11,-1
 571 176 l 1,12,-1
 148 176 l 1,13,-1
 191 194 l 1,14,-1
 90 22 l 2,15,16
 82 7 82 7 70 0 c 128,-1,17
 58 -7 58 -7 43 -7 c 0,18,19
 26 -7 26 -7 15 1 c 128,-1,20
 4 9 4 9 1.5 22.5 c 128,-1,21
 -1 36 -1 36 8 52 c 2,22,-1
 386 680 l 2,23,24
 397 697 397 697 409.5 704.5 c 128,-1,25
 422 712 422 712 440 712 c 0,26,27
 459 712 459 712 471.5 703 c 128,-1,28
 484 694 484 694 489 675 c 2,29,-1
 664 54 l 2,30,31
 671 31 671 31 666 17 c 128,-1,32
 661 3 661 3 647 -4 c 0,33,34
 626 -14 626 -14 612 -27.5 c 128,-1,35
 598 -41 598 -41 591 -56 c 128,-1,36
 584 -71 584 -71 584 -88 c 0,37,38
 584 -111 584 -111 597.5 -125 c 128,-1,39
 611 -139 611 -139 637 -139 c 0,40,41
 645 -139 645 -139 653.5 -137.5 c 128,-1,42
 662 -136 662 -136 673 -133 c 0,43,44
 686 -129 686 -129 693 -134.5 c 128,-1,45
 700 -140 700 -140 701.5 -150 c 128,-1,46
 703 -160 703 -160 699 -169.5 c 128,-1,47
 695 -179 695 -179 685 -182 c 0,48,49
 671 -187 671 -187 653.5 -190 c 128,-1,50
 636 -193 636 -193 621 -193 c 0,0,1
428 600 m 1,51,-1
 215 236 l 1,52,-1
 193 252 l 1,53,-1
 551 252 l 1,54,-1
 527 235 l 1,55,-1
 430 600 l 1,56,-1
 428 600 l 1,51,-1
EndSplineSet
EndChar

StartChar: AE
Encoding: 198 198 28
Width: 984
GlyphClass: 2
Flags: W
AnchorPoint: "Anchor-2" 449 0 basechar 0
AnchorPoint: "Anchor-0" 546 705 basechar 0
LayerCount: 2
Fore
SplineSet
10 -7 m 0,0,1
 -9 -7 -9 -7 -19 2 c 128,-1,2
 -29 11 -29 11 -29 25 c 128,-1,3
 -29 39 -29 39 -19 52 c 2,4,-1
 464 680 l 2,5,6
 474 694 474 694 486.5 699.5 c 128,-1,7
 499 705 499 705 516 705 c 2,8,-1
 968 705 l 2,9,10
 988 705 988 705 998.5 697.5 c 128,-1,11
 1009 690 1009 690 1009 675 c 0,12,13
 1009 652 1009 652 996 640.5 c 128,-1,14
 983 629 983 629 963 629 c 2,15,-1
 545 629 l 1,16,-1
 573 659 l 1,17,-1
 589 371 l 1,18,-1
 558 396 l 1,19,-1
 898 396 l 2,20,21
 917 396 917 396 927.5 388.5 c 128,-1,22
 938 381 938 381 938 366 c 0,23,24
 938 343 938 343 925.5 331.5 c 128,-1,25
 913 320 913 320 894 320 c 2,26,-1
 563 320 l 1,27,-1
 590 344 l 1,28,-1
 606 47 l 1,29,-1
 575 76 l 1,30,-1
 869 76 l 2,31,32
 888 76 888 76 899 68.5 c 128,-1,33
 910 61 910 61 910 46 c 0,34,35
 910 25 910 25 897.5 12.5 c 128,-1,36
 885 0 885 0 864 0 c 2,37,-1
 569 0 l 2,38,39
 527 0 527 0 525 41 c 2,40,-1
 516 203 l 1,41,-1
 545 176 l 1,42,-1
 155 176 l 1,43,-1
 195 201 l 1,44,-1
 59 20 l 2,45,46
 48 5 48 5 36.5 -1 c 128,-1,47
 25 -7 25 -7 10 -7 c 0,0,1
493 597 m 1,48,-1
 216 230 l 1,49,-1
 211 252 l 1,50,-1
 535 252 l 1,51,-1
 515 228 l 1,52,-1
 495 597 l 1,53,-1
 493 597 l 1,48,-1
EndSplineSet
EndChar

StartChar: B
Encoding: 66 66 30
Width: 679
GlyphClass: 2
Flags: W
AnchorPoint: "Anchor-2" 305 0 basechar 0
AnchorPoint: "Anchor-0" 416 705 basechar 0
LayerCount: 2
Fore
SplineSet
101 0 m 2,0,1
 76 0 76 0 63.5 14.5 c 128,-1,2
 51 29 51 29 55 54 c 2,3,-1
 151 659 l 2,4,5
 154 682 154 682 168 693.5 c 128,-1,6
 182 705 182 705 205 705 c 2,7,-1
 431 705 l 2,8,9
 505 705 505 705 553 684.5 c 128,-1,10
 601 664 601 664 624 626.5 c 128,-1,11
 647 589 647 589 647 539 c 0,12,13
 647 462 647 462 598.5 412 c 128,-1,14
 550 362 550 362 470 351 c 1,15,-1
 470 366 l 1,16,17
 536 355 536 355 574 313 c 128,-1,18
 612 271 612 271 612 209 c 0,19,20
 612 106 612 106 546.5 53 c 128,-1,21
 481 0 481 0 361 0 c 2,22,-1
 101 0 l 2,0,1
148 73 m 1,23,-1
 359 73 l 2,24,25
 440 73 440 73 480 109 c 128,-1,26
 520 145 520 145 520 212 c 0,27,28
 520 266 520 266 485 293 c 128,-1,29
 450 320 450 320 383 320 c 2,30,-1
 187 320 l 1,31,-1
 148 73 l 1,23,-1
199 394 m 1,32,-1
 393 394 l 2,33,34
 469 394 469 394 512.5 429 c 128,-1,35
 556 464 556 464 556 530 c 0,36,37
 556 580 556 580 522 606 c 128,-1,38
 488 632 488 632 418 632 c 2,39,-1
 237 632 l 1,40,-1
 199 394 l 1,32,-1
EndSplineSet
EndChar

StartChar: uni0181
Encoding: 385 385 31
Width: 809
GlyphClass: 1
Flags: W
LayerCount: 2
Fore
SplineSet
232 0 m 2,0,1
 206 0 206 0 193.5 14.5 c 128,-1,2
 181 29 181 29 185 54 c 2,3,-1
 277 635 l 1,4,-1
 245 635 l 2,5,6
 192 635 192 635 163 611 c 128,-1,7
 134 587 134 587 124 530 c 2,8,-1
 120 507 l 2,9,10
 118 498 118 498 113 491 c 128,-1,11
 108 484 108 484 100 480.5 c 128,-1,12
 92 477 92 477 79 477 c 256,13,14
 66 477 66 477 57.5 482.5 c 128,-1,15
 49 488 49 488 46 498 c 128,-1,16
 43 508 43 508 44 521 c 2,17,-1
 48 543 l 2,18,19
 60 624 60 624 108 664.5 c 128,-1,20
 156 705 156 705 255 705 c 2,21,-1
 561 705 l 2,22,23
 635 705 635 705 682.5 684.5 c 128,-1,24
 730 664 730 664 753.5 626.5 c 128,-1,25
 777 589 777 589 777 539 c 0,26,27
 777 462 777 462 728.5 412 c 128,-1,28
 680 362 680 362 599 351 c 1,29,-1
 599 366 l 1,30,31
 666 355 666 355 704 313 c 128,-1,32
 742 271 742 271 742 209 c 0,33,34
 742 106 742 106 676 53 c 128,-1,35
 610 0 610 0 491 0 c 2,36,-1
 232 0 l 2,0,1
278 73 m 1,37,-1
 489 73 l 2,38,39
 570 73 570 73 610 109 c 128,-1,40
 650 145 650 145 650 212 c 0,41,42
 650 266 650 266 614.5 293 c 128,-1,43
 579 320 579 320 512 320 c 2,44,-1
 317 320 l 1,45,-1
 278 73 l 1,37,-1
329 394 m 1,46,-1
 523 394 l 2,47,48
 599 394 599 394 642.5 429 c 128,-1,49
 686 464 686 464 686 530 c 0,50,51
 686 580 686 580 652 606 c 128,-1,52
 618 632 618 632 547 632 c 2,53,-1
 367 632 l 1,54,-1
 329 394 l 1,46,-1
EndSplineSet
EndChar

StartChar: C
Encoding: 67 67 32
Width: 675
GlyphClass: 2
Flags: W
AnchorPoint: "Anchor-2" 368 0 basechar 0
AnchorPoint: "Anchor-0" 438 705 basechar 0
LayerCount: 2
Fore
SplineSet
385 -9 m 0,0,1
 294 -9 294 -9 224 25.5 c 128,-1,2
 154 60 154 60 115 130.5 c 128,-1,3
 76 201 76 201 76 308 c 0,4,5
 76 394 76 394 101 468 c 128,-1,6
 126 542 126 542 173.5 597 c 128,-1,7
 221 652 221 652 289.5 683 c 128,-1,8
 358 714 358 714 444 714 c 0,9,10
 505 714 505 714 559.5 696 c 128,-1,11
 614 678 614 678 654 645 c 0,12,13
 667 635 667 635 670 621.5 c 128,-1,14
 673 608 673 608 669 595.5 c 128,-1,15
 665 583 665 583 656 574 c 128,-1,16
 647 565 647 565 634.5 564 c 128,-1,17
 622 563 622 563 609 573 c 0,18,19
 570 604 570 604 529 617 c 128,-1,20
 488 630 488 630 440 630 c 0,21,22
 357 630 357 630 297.5 588.5 c 128,-1,23
 238 547 238 547 206.5 474.5 c 128,-1,24
 175 402 175 402 175 310 c 0,25,26
 175 226 175 226 200.5 174 c 128,-1,27
 226 122 226 122 275 98.5 c 128,-1,28
 324 75 324 75 393 75 c 0,29,30
 437 75 437 75 476 87 c 128,-1,31
 515 99 515 99 553 128 c 0,32,33
 568 138 568 138 580.5 137 c 128,-1,34
 593 136 593 136 602 127.5 c 128,-1,35
 611 119 611 119 614 106.5 c 128,-1,36
 617 94 617 94 612.5 81.5 c 128,-1,37
 608 69 608 69 595 59 c 0,38,39
 549 24 549 24 495 7.5 c 128,-1,40
 441 -9 441 -9 385 -9 c 0,0,1
EndSplineSet
EndChar

StartChar: D
Encoding: 68 68 39
Width: 747
GlyphClass: 2
Flags: W
AnchorPoint: "Anchor-5" 203 358 basechar 0
AnchorPoint: "Anchor-2" 337 0 basechar 0
AnchorPoint: "Anchor-0" 436 705 basechar 0
LayerCount: 2
Fore
SplineSet
101 0 m 2,0,1
 76 0 76 0 63.5 14.5 c 128,-1,2
 51 29 51 29 55 54 c 2,3,-1
 151 659 l 2,4,5
 154 682 154 682 168 693.5 c 128,-1,6
 182 705 182 705 205 705 c 2,7,-1
 369 705 l 2,8,9
 531 705 531 705 619 627.5 c 128,-1,10
 707 550 707 550 707 409 c 0,11,12
 707 324 707 324 683 250 c 128,-1,13
 659 176 659 176 609.5 120 c 128,-1,14
 560 64 560 64 485 32 c 128,-1,15
 410 0 410 0 307 0 c 2,16,-1
 101 0 l 2,0,1
151 79 m 1,17,-1
 309 79 l 2,18,19
 390 79 390 79 447 104.5 c 128,-1,20
 504 130 504 130 540 175 c 128,-1,21
 576 220 576 220 593 280 c 128,-1,22
 610 340 610 340 610 408 c 0,23,24
 610 514 610 514 549.5 570 c 128,-1,25
 489 626 489 626 369 626 c 2,26,-1
 238 626 l 1,27,-1
 151 79 l 1,17,-1
EndSplineSet
EndChar

StartChar: uni018A
Encoding: 394 394 45
Width: 877
GlyphClass: 1
Flags: W
LayerCount: 2
Fore
SplineSet
231 0 m 2,0,1
 205 0 205 0 193 14.5 c 128,-1,2
 181 29 181 29 185 54 c 2,3,-1
 277 635 l 1,4,-1
 246 635 l 2,5,6
 193 635 193 635 163 611 c 128,-1,7
 133 587 133 587 124 530 c 2,8,-1
 120 507 l 2,9,10
 119 498 119 498 113.5 491 c 128,-1,11
 108 484 108 484 100 480.5 c 128,-1,12
 92 477 92 477 79 477 c 256,13,14
 66 477 66 477 57.5 482.5 c 128,-1,15
 49 488 49 488 45.5 498 c 128,-1,16
 42 508 42 508 44 521 c 2,17,-1
 48 543 l 2,18,19
 61 624 61 624 109 664.5 c 128,-1,20
 157 705 157 705 255 705 c 2,21,-1
 499 705 l 2,22,23
 661 705 661 705 749 627.5 c 128,-1,24
 837 550 837 550 837 409 c 0,25,26
 837 324 837 324 813 250 c 128,-1,27
 789 176 789 176 739.5 120 c 128,-1,28
 690 64 690 64 615 32 c 128,-1,29
 540 0 540 0 437 0 c 2,30,-1
 231 0 l 2,0,1
281 79 m 1,31,-1
 439 79 l 2,32,33
 520 79 520 79 577 104.5 c 128,-1,34
 634 130 634 130 670 175 c 128,-1,35
 706 220 706 220 723 280 c 128,-1,36
 740 340 740 340 740 408 c 0,37,38
 740 514 740 514 679.5 570 c 128,-1,39
 619 626 619 626 499 626 c 2,40,-1
 368 626 l 1,41,-1
 281 79 l 1,31,-1
EndSplineSet
EndChar

StartChar: E
Encoding: 69 69 48
Width: 586
GlyphClass: 2
Flags: W
AnchorPoint: "Anchor-3" 453 0 basechar 0
AnchorPoint: "Anchor-2" 293 0 basechar 0
AnchorPoint: "Anchor-0" 399 705 basechar 0
LayerCount: 2
Fore
SplineSet
102 0 m 2,0,1
 75 0 75 0 63 14 c 128,-1,2
 51 28 51 28 55 54 c 2,3,-1
 151 659 l 2,4,5
 154 682 154 682 168 693.5 c 128,-1,6
 182 705 182 705 205 705 c 2,7,-1
 570 705 l 2,8,9
 590 705 590 705 600.5 697.5 c 128,-1,10
 611 690 611 690 611 675 c 0,11,12
 611 652 611 652 598 640.5 c 128,-1,13
 585 629 585 629 566 629 c 2,14,-1
 236 629 l 1,15,-1
 199 396 l 1,16,-1
 500 396 l 2,17,18
 520 396 520 396 530 388.5 c 128,-1,19
 540 381 540 381 540 366 c 0,20,21
 540 343 540 343 527.5 331.5 c 128,-1,22
 515 320 515 320 496 320 c 2,23,-1
 187 320 l 1,24,-1
 148 76 l 1,25,-1
 470 76 l 2,26,27
 489 76 489 76 499.5 68.5 c 128,-1,28
 510 61 510 61 510 46 c 0,29,30
 510 23 510 23 497.5 11.5 c 128,-1,31
 485 0 485 0 466 0 c 2,32,-1
 102 0 l 2,0,1
EndSplineSet
EndChar

StartChar: uni018F
Encoding: 399 399 72
Width: 771
GlyphClass: 2
Flags: W
AnchorPoint: "Anchor-2" 345 0 basechar 0
AnchorPoint: "Anchor-0" 457 705 basechar 0
LayerCount: 2
Fore
SplineSet
366 -9 m 0,0,1
 283 -9 283 -9 223 20.5 c 128,-1,2
 163 50 163 50 127 102 c 128,-1,3
 91 154 91 154 78.5 221 c 128,-1,4
 66 288 66 288 78 363 c 0,5,6
 80 379 80 379 89 386.5 c 128,-1,7
 98 394 98 394 117 394 c 2,8,-1
 663 394 l 1,9,-1
 651 316 l 1,10,-1
 141 316 l 1,11,-1
 171 353 l 1,12,13
 160 272 160 272 176.5 208 c 128,-1,14
 193 144 193 144 241 107 c 128,-1,15
 289 70 289 70 372 70 c 0,16,17
 460 70 460 70 517.5 115.5 c 128,-1,18
 575 161 575 161 604 238 c 128,-1,19
 633 315 633 315 633 410 c 0,20,21
 633 478 633 478 605.5 528 c 128,-1,22
 578 578 578 578 526.5 605 c 128,-1,23
 475 632 475 632 403 632 c 0,24,25
 339 632 339 632 287 618.5 c 128,-1,26
 235 605 235 605 190 574 c 0,27,28
 174 565 174 565 161.5 567 c 128,-1,29
 149 569 149 569 140.5 577.5 c 128,-1,30
 132 586 132 586 129.5 598.5 c 128,-1,31
 127 611 127 611 132.5 623.5 c 128,-1,32
 138 636 138 636 152 644 c 0,33,34
 207 681 207 681 273.5 697.5 c 128,-1,35
 340 714 340 714 417 714 c 0,36,37
 510 714 510 714 580.5 675.5 c 128,-1,38
 651 637 651 637 691 567.5 c 128,-1,39
 731 498 731 498 731 407 c 0,40,41
 731 319 731 319 707.5 243 c 128,-1,42
 684 167 684 167 638 110.5 c 128,-1,43
 592 54 592 54 524 22.5 c 128,-1,44
 456 -9 456 -9 366 -9 c 0,0,1
EndSplineSet
EndChar

StartChar: F
Encoding: 70 70 73
Width: 551
GlyphClass: 2
Flags: W
AnchorPoint: "Anchor-2" 259 0 basechar 0
AnchorPoint: "Anchor-0" 372 705 basechar 0
LayerCount: 2
Fore
SplineSet
97 -7 m 0,0,1
 72 -7 72 -7 61 7.5 c 128,-1,2
 50 22 50 22 54 47 c 2,3,-1
 151 659 l 2,4,5
 154 682 154 682 168 693.5 c 128,-1,6
 182 705 182 705 205 705 c 2,7,-1
 557 705 l 2,8,9
 576 705 576 705 587 697 c 128,-1,10
 598 689 598 689 598 674 c 0,11,12
 598 653 598 653 586 641 c 128,-1,13
 574 629 574 629 552 629 c 2,14,-1
 240 629 l 1,15,-1
 202 393 l 1,16,-1
 486 393 l 2,17,18
 506 393 506 393 516.5 385 c 128,-1,19
 527 377 527 377 527 362 c 0,20,21
 527 341 527 341 515.5 329 c 128,-1,22
 504 317 504 317 482 317 c 2,23,-1
 190 317 l 1,24,-1
 146 39 l 2,25,26
 139 -7 139 -7 97 -7 c 0,0,1
EndSplineSet
EndChar

StartChar: G
Encoding: 71 71 74
Width: 729
GlyphClass: 2
Flags: W
AnchorPoint: "Anchor-2" 383 0 basechar 0
AnchorPoint: "Anchor-0" 442 705 basechar 0
LayerCount: 2
Fore
SplineSet
392 -9 m 0,0,1
 295 -9 295 -9 223.5 26 c 128,-1,2
 152 61 152 61 113.5 129.5 c 128,-1,3
 75 198 75 198 75 297 c 0,4,5
 75 390 75 390 100.5 466 c 128,-1,6
 126 542 126 542 174.5 598 c 128,-1,7
 223 654 223 654 292 684 c 128,-1,8
 361 714 361 714 449 714 c 0,9,10
 512 714 512 714 567.5 697 c 128,-1,11
 623 680 623 680 661 648 c 0,12,13
 676 638 676 638 680 624 c 128,-1,14
 684 610 684 610 680.5 597 c 128,-1,15
 677 584 677 584 667.5 575.5 c 128,-1,16
 658 567 658 567 645.5 565.5 c 128,-1,17
 633 564 633 564 618 575 c 0,18,19
 582 605 582 605 538.5 618 c 128,-1,20
 495 631 495 631 444 631 c 0,21,22
 359 631 359 631 298.5 589.5 c 128,-1,23
 238 548 238 548 205 473.5 c 128,-1,24
 172 399 172 399 172 300 c 0,25,26
 172 184 172 184 231.5 128.5 c 128,-1,27
 291 73 291 73 404 73 c 0,28,29
 451 73 451 73 491 81.5 c 128,-1,30
 531 90 531 90 568 103 c 1,31,-1
 541 57 l 1,32,-1
 581 298 l 1,33,-1
 444 298 l 2,34,35
 426 298 426 298 415 306.5 c 128,-1,36
 404 315 404 315 404 329 c 0,37,38
 404 349 404 349 416 359.5 c 128,-1,39
 428 370 428 370 449 370 c 2,40,-1
 625 370 l 2,41,42
 646 370 646 370 657 358 c 128,-1,43
 668 346 668 346 664 324 c 2,44,-1
 623 68 l 2,45,46
 621 50 621 50 613 39.5 c 128,-1,47
 605 29 605 29 589 23 c 0,48,49
 550 8 550 8 497 -0.5 c 128,-1,50
 444 -9 444 -9 392 -9 c 0,0,1
EndSplineSet
EndChar

StartChar: H
Encoding: 72 72 81
Width: 764
GlyphClass: 2
Flags: W
AnchorPoint: "Anchor-5" 432 555 basechar 0
AnchorPoint: "Anchor-2" 349 0 basechar 0
AnchorPoint: "Anchor-0" 454 705 basechar 0
LayerCount: 2
Fore
SplineSet
93 -7 m 256,0,1
 70 -7 70 -7 60 7.5 c 128,-1,2
 50 22 50 22 54 48 c 2,3,-1
 152 665 l 2,4,5
 155 689 155 689 168 700.5 c 128,-1,6
 181 712 181 712 204 712 c 256,7,8
 227 712 227 712 237 697.5 c 128,-1,9
 247 683 247 683 243 657 c 2,10,-1
 202 397 l 1,11,-1
 610 397 l 1,12,-1
 653 665 l 2,13,14
 657 689 657 689 669.5 700.5 c 128,-1,15
 682 712 682 712 705 712 c 256,16,17
 728 712 728 712 738.5 698 c 128,-1,18
 749 684 749 684 744 657 c 2,19,-1
 647 40 l 2,20,21
 643 17 643 17 630.5 5 c 128,-1,22
 618 -7 618 -7 595 -7 c 0,23,24
 571 -7 571 -7 561 7.5 c 128,-1,25
 551 22 551 22 556 48 c 2,26,-1
 598 318 l 1,27,-1
 189 318 l 1,28,-1
 145 40 l 2,29,30
 142 17 142 17 129 5 c 128,-1,31
 116 -7 116 -7 93 -7 c 256,0,1
EndSplineSet
EndChar

StartChar: Hbar
Encoding: 294 294 82
Width: 802
GlyphClass: 1
Flags: W
LayerCount: 2
Fore
SplineSet
113 -7 m 256,0,1
 90 -7 90 -7 79.5 7.5 c 128,-1,2
 69 22 69 22 73 48 c 2,3,-1
 150 535 l 1,4,-1
 163 518 l 1,5,-1
 95 518 l 2,6,7
 55 518 55 518 55 547 c 0,8,9
 55 566 55 566 67.5 577.5 c 128,-1,10
 80 589 80 589 99 589 c 2,11,-1
 176 589 l 1,12,-1
 155 568 l 1,13,-1
 171 665 l 2,14,15
 175 689 175 689 187.5 700.5 c 128,-1,16
 200 712 200 712 223 712 c 0,17,18
 245 712 245 712 256 698 c 128,-1,19
 267 684 267 684 263 658 c 2,20,-1
 247 562 l 1,21,-1
 231 589 l 1,22,-1
 677 589 l 1,23,-1
 655 562 l 1,24,-1
 671 666 l 2,25,26
 675 689 675 689 688.5 700.5 c 128,-1,27
 702 712 702 712 725 712 c 0,28,29
 746 712 746 712 756.5 698 c 128,-1,30
 767 684 767 684 763 658 c 2,31,-1
 748 559 l 1,32,-1
 735 589 l 1,33,-1
 804 589 l 2,34,35
 844 589 844 589 844 560 c 0,36,37
 844 540 844 540 832 529 c 128,-1,38
 820 518 820 518 800 518 c 2,39,-1
 723 518 l 1,40,-1
 744 539 l 1,41,-1
 665 40 l 2,42,43
 662 17 662 17 649.5 5 c 128,-1,44
 637 -7 637 -7 614 -7 c 256,45,46
 591 -7 591 -7 580 7.5 c 128,-1,47
 569 22 569 22 574 48 c 2,48,-1
 615 312 l 1,49,-1
 208 312 l 1,50,-1
 164 40 l 2,51,52
 161 17 161 17 148.5 5 c 128,-1,53
 136 -7 136 -7 113 -7 c 256,0,1
220 391 m 1,54,-1
 628 391 l 1,55,-1
 648 518 l 1,56,-1
 240 518 l 1,57,-1
 220 391 l 1,54,-1
EndSplineSet
EndChar

StartChar: I
Encoding: 73 73 86
Width: 262
GlyphClass: 2
Flags: W
AnchorPoint: "Anchor-3" 122 0 basechar 0
AnchorPoint: "Anchor-2" 93 0 basechar 0
AnchorPoint: "Anchor-0" 205 705 basechar 0
LayerCount: 2
Fore
SplineSet
94 -7 m 0,0,1
 70 -7 70 -7 60 7.5 c 128,-1,2
 50 22 50 22 54 48 c 2,3,-1
 152 665 l 2,4,5
 155 689 155 689 168 700.5 c 128,-1,6
 181 712 181 712 204 712 c 256,7,8
 227 712 227 712 237 698 c 128,-1,9
 247 684 247 684 243 657 c 2,10,-1
 145 40 l 2,11,12
 142 17 142 17 129.5 5 c 128,-1,13
 117 -7 117 -7 94 -7 c 0,0,1
EndSplineSet
EndChar

StartChar: Iogonek
Encoding: 302 302 100
Width: 262
GlyphClass: 1
Flags: W
LayerCount: 2
Fore
SplineSet
87 -193 m 0,0,1
 38 -193 38 -193 12.5 -167.5 c 128,-1,2
 -13 -142 -13 -142 -13 -103 c 256,3,4
 -13 -64 -13 -64 7 -33 c 128,-1,5
 27 -2 27 -2 62 20 c 1,6,-1
 64 3 l 1,7,8
 57 11 57 11 54 22.5 c 128,-1,9
 51 34 51 34 54 48 c 2,10,-1
 152 665 l 2,11,12
 155 689 155 689 168 700.5 c 128,-1,13
 181 712 181 712 204 712 c 256,14,15
 227 712 227 712 237 698 c 128,-1,16
 247 684 247 684 243 657 c 2,17,-1
 145 40 l 2,18,19
 142 23 142 23 135 12 c 128,-1,20
 128 1 128 1 115 -4 c 0,21,22
 84 -18 84 -18 67 -40 c 128,-1,23
 50 -62 50 -62 50 -88 c 0,24,25
 50 -111 50 -111 64 -125 c 128,-1,26
 78 -139 78 -139 103 -139 c 0,27,28
 111 -139 111 -139 119.5 -137.5 c 128,-1,29
 128 -136 128 -136 139 -133 c 0,30,31
 152 -129 152 -129 159 -134.5 c 128,-1,32
 166 -140 166 -140 167.5 -150 c 128,-1,33
 169 -160 169 -160 165 -169.5 c 128,-1,34
 161 -179 161 -179 151 -182 c 0,35,36
 137 -187 137 -187 119.5 -190 c 128,-1,37
 102 -193 102 -193 87 -193 c 0,0,1
EndSplineSet
EndChar

StartChar: J
Encoding: 74 74 102
Width: 331
GlyphClass: 2
Flags: W
AnchorPoint: "Anchor-2" 162 0 basechar 0
AnchorPoint: "Anchor-0" 272 705 basechar 0
LayerCount: 2
Fore
SplineSet
-1 -7 m 2,0,1
 -23 -8 -23 -8 -35 2 c 128,-1,2
 -47 12 -47 12 -47 31 c 0,3,4
 -46 50 -46 50 -36.5 60 c 128,-1,5
 -27 70 -27 70 -8 71 c 2,6,-1
 24 74 l 2,7,8
 76 78 76 78 106.5 108.5 c 128,-1,9
 137 139 137 139 146 199 c 2,10,-1
 221 669 l 2,11,12
 224 691 224 691 236.5 701.5 c 128,-1,13
 249 712 249 712 271 712 c 0,14,15
 294 712 294 712 305 698.5 c 128,-1,16
 316 685 316 685 312 661 c 2,17,-1
 237 188 l 2,18,19
 227 129 227 129 203.5 88 c 128,-1,20
 180 47 180 47 137 24 c 128,-1,21
 94 1 94 1 29 -4 c 2,22,-1
 -1 -7 l 2,0,1
EndSplineSet
EndChar

StartChar: K
Encoding: 75 75 104
Width: 634
GlyphClass: 2
Flags: W
AnchorPoint: "Anchor-2" 289 0 basechar 0
AnchorPoint: "Anchor-0" 392 705 basechar 0
LayerCount: 2
Fore
SplineSet
94 -7 m 256,0,1
 71 -7 71 -7 60 7 c 128,-1,2
 49 21 49 21 54 47 c 2,3,-1
 152 666 l 2,4,5
 156 690 156 690 169 701 c 128,-1,6
 182 712 182 712 204 712 c 256,7,8
 226 712 226 712 236.5 698 c 128,-1,9
 247 684 247 684 243 658 c 2,10,-1
 200 386 l 1,11,-1
 202 386 l 1,12,-1
 567 690 l 2,13,14
 581 702 581 702 590.5 707 c 128,-1,15
 600 712 600 712 614 712 c 0,16,17
 633 712 633 712 643.5 701 c 128,-1,18
 654 690 654 690 653.5 674.5 c 128,-1,19
 653 659 653 659 638 647 c 2,20,-1
 265 336 l 1,21,-1
 265 383 l 1,22,-1
 564 57 l 2,23,24
 577 44 577 44 575.5 29 c 128,-1,25
 574 14 574 14 563 3.5 c 128,-1,26
 552 -7 552 -7 534 -7 c 0,27,28
 517 -7 517 -7 507 0 c 128,-1,29
 497 7 497 7 482 23 c 2,30,-1
 194 333 l 1,31,-1
 192 333 l 1,32,-1
 146 38 l 2,33,34
 142 16 142 16 129.5 4.5 c 128,-1,35
 117 -7 117 -7 94 -7 c 256,0,1
EndSplineSet
EndChar

StartChar: L
Encoding: 76 76 106
Width: 548
GlyphClass: 2
Flags: W
AnchorPoint: "Anchor-5" 197 387 basechar 0
AnchorPoint: "Anchor-2" 271 0 basechar 0
AnchorPoint: "Anchor-1" 364 705 basechar 0
AnchorPoint: "Anchor-0" 204 705 basechar 0
LayerCount: 2
Fore
SplineSet
98 0 m 2,0,1
 73 0 73 0 62 13.5 c 128,-1,2
 51 27 51 27 54 52 c 2,3,-1
 153 669 l 2,4,5
 156 691 156 691 168.5 701.5 c 128,-1,6
 181 712 181 712 203 712 c 0,7,8
 226 712 226 712 237 698.5 c 128,-1,9
 248 685 248 685 244 661 c 2,10,-1
 152 80 l 1,11,-1
 463 80 l 2,12,13
 484 80 484 80 495 72 c 128,-1,14
 506 64 506 64 506 48 c 0,15,16
 506 25 506 25 493 12.5 c 128,-1,17
 480 0 480 0 458 0 c 2,18,-1
 98 0 l 2,0,1
EndSplineSet
EndChar

StartChar: M
Encoding: 77 77 116
Width: 859
GlyphClass: 2
Flags: W
AnchorPoint: "Anchor-2" 397 0 basechar 0
AnchorPoint: "Anchor-0" 503 705 basechar 0
LayerCount: 2
Fore
SplineSet
94 -3 m 0,0,1
 72 -3 72 -3 62.5 9.5 c 128,-1,2
 53 22 53 22 56 44 c 2,3,-1
 155 672 l 2,4,5
 159 693 159 693 170 702.5 c 128,-1,6
 181 712 181 712 201 712 c 0,7,8
 219 712 219 712 229 704 c 128,-1,9
 239 696 239 696 246 677 c 2,10,-1
 430 178 l 1,11,-1
 401 178 l 1,12,-1
 751 685 l 2,13,14
 761 699 761 699 772.5 705.5 c 128,-1,15
 784 712 784 712 802 712 c 0,16,17
 822 712 822 712 832 699.5 c 128,-1,18
 842 687 842 687 838 665 c 2,19,-1
 739 37 l 2,20,21
 736 18 736 18 725 7.5 c 128,-1,22
 714 -3 714 -3 693 -3 c 0,23,24
 673 -3 673 -3 663 9.5 c 128,-1,25
 653 22 653 22 655 44 c 2,26,-1
 740 579 l 1,27,-1
 764 579 l 1,28,-1
 449 123 l 2,29,30
 441 111 441 111 432 106 c 128,-1,31
 423 101 423 101 410 101 c 0,32,33
 395 101 395 101 386.5 108 c 128,-1,34
 378 115 378 115 372 130 c 2,35,-1
 203 577 l 1,36,-1
 224 577 l 1,37,-1
 139 37 l 2,38,39
 136 18 136 18 125 7.5 c 128,-1,40
 114 -3 114 -3 94 -3 c 0,0,1
EndSplineSet
EndChar

StartChar: N
Encoding: 78 78 118
Width: 741
GlyphClass: 2
Flags: W
AnchorPoint: "Anchor-2" 343 0 basechar 0
AnchorPoint: "Anchor-0" 443 705 basechar 0
LayerCount: 2
Fore
SplineSet
91 -7 m 256,0,1
 70 -7 70 -7 60 6.5 c 128,-1,2
 50 20 50 20 53 45 c 2,3,-1
 153 672 l 2,4,5
 157 693 157 693 168.5 702.5 c 128,-1,6
 180 712 180 712 197 712 c 0,7,8
 215 712 215 712 224 705 c 128,-1,9
 233 698 233 698 242 682 c 2,10,-1
 572 115 l 1,11,-1
 550 115 l 1,12,-1
 637 669 l 2,13,14
 641 691 641 691 653.5 701.5 c 128,-1,15
 666 712 666 712 687 712 c 256,16,17
 708 712 708 712 717 698.5 c 128,-1,18
 726 685 726 685 722 661 c 2,19,-1
 623 34 l 2,20,21
 620 13 620 13 609.5 3 c 128,-1,22
 599 -7 599 -7 582 -7 c 0,23,24
 564 -7 564 -7 553.5 0.5 c 128,-1,25
 543 8 543 8 533 24 c 2,26,-1
 204 590 l 1,27,-1
 226 590 l 1,28,-1
 138 36 l 2,29,30
 135 14 135 14 123.5 3.5 c 128,-1,31
 112 -7 112 -7 91 -7 c 256,0,1
EndSplineSet
EndChar

StartChar: Eng
Encoding: 330 330 128
Width: 741
GlyphClass: 2
Flags: W
AnchorPoint: "Anchor-2" 332 0 basechar 0
AnchorPoint: "Anchor-0" 443 705 basechar 0
LayerCount: 2
Fore
SplineSet
410 -191 m 0,0,1
 395 -191 395 -191 386 -184 c 128,-1,2
 377 -177 377 -177 373.5 -167 c 128,-1,3
 370 -157 370 -157 373 -146.5 c 128,-1,4
 376 -136 376 -136 384 -128.5 c 128,-1,5
 392 -121 392 -121 406 -121 c 0,6,7
 456 -119 456 -119 488 -94 c 128,-1,8
 520 -69 520 -69 529 -13 c 2,9,-1
 537 38 l 1,10,-1
 547 0 l 1,11,-1
 204 590 l 1,12,-1
 226 590 l 1,13,-1
 138 36 l 2,14,15
 135 14 135 14 123.5 3.5 c 128,-1,16
 112 -7 112 -7 91 -7 c 256,17,18
 70 -7 70 -7 60 6.5 c 128,-1,19
 50 20 50 20 53 45 c 2,20,-1
 153 672 l 2,21,22
 157 693 157 693 168.5 702.5 c 128,-1,23
 180 712 180 712 197 712 c 0,24,25
 215 712 215 712 224 705 c 128,-1,26
 233 698 233 698 242 682 c 2,27,-1
 571 115 l 1,28,-1
 550 115 l 1,29,-1
 637 669 l 2,30,31
 641 691 641 691 653 701.5 c 128,-1,32
 665 712 665 712 687 712 c 0,33,34
 707 712 707 712 716.5 698.5 c 128,-1,35
 726 685 726 685 722 661 c 2,36,-1
 616 -7 l 2,37,38
 601 -100 601 -100 550.5 -145.5 c 128,-1,39
 500 -191 500 -191 410 -191 c 0,0,1
EndSplineSet
EndChar

StartChar: O
Encoding: 79 79 129
Width: 771
GlyphClass: 2
Flags: W
AnchorPoint: "Anchor-5" 403 353 basechar 0
AnchorPoint: "Anchor-3" 417 0 basechar 0
AnchorPoint: "Anchor-2" 358 0 basechar 0
AnchorPoint: "Anchor-1" 500 705 basechar 0
AnchorPoint: "Anchor-0" 448 705 basechar 0
LayerCount: 2
Fore
SplineSet
371 -9 m 0,0,1
 281 -9 281 -9 214.5 26 c 128,-1,2
 148 61 148 61 111.5 129.5 c 128,-1,3
 75 198 75 198 75 295 c 0,4,5
 75 384 75 384 99 460.5 c 128,-1,6
 123 537 123 537 169.5 594 c 128,-1,7
 216 651 216 651 282.5 682.5 c 128,-1,8
 349 714 349 714 435 714 c 0,9,10
 525 714 525 714 591.5 679 c 128,-1,11
 658 644 658 644 694.5 576 c 128,-1,12
 731 508 731 508 731 411 c 0,13,14
 731 321 731 321 707 244.5 c 128,-1,15
 683 168 683 168 636.5 111 c 128,-1,16
 590 54 590 54 523.5 22.5 c 128,-1,17
 457 -9 457 -9 371 -9 c 0,0,1
373 73 m 0,18,19
 458 73 458 73 515.5 117 c 128,-1,20
 573 161 573 161 603.5 237 c 128,-1,21
 634 313 634 313 634 410 c 0,22,23
 634 522 634 522 580.5 577 c 128,-1,24
 527 632 527 632 432 632 c 0,25,26
 348 632 348 632 290.5 588.5 c 128,-1,27
 233 545 233 545 202.5 469 c 128,-1,28
 172 393 172 393 172 296 c 0,29,30
 172 183 172 183 226 128 c 128,-1,31
 280 73 280 73 373 73 c 0,18,19
EndSplineSet
Substitution2: "Single Substitution lookup 29 subtable" ordmasculine
Substitution2: "'aalt' Access All Alternates lookup 0 subtable" ordmasculine
EndChar

StartChar: OE
Encoding: 338 338 163
Width: 1049
GlyphClass: 2
Flags: W
AnchorPoint: "Anchor-2" 554 0 basechar 0
AnchorPoint: "Anchor-0" 666 705 basechar 0
LayerCount: 2
Fore
SplineSet
412 0 m 2,0,1
 251 0 251 0 163.5 78 c 128,-1,2
 76 156 76 156 75 296 c 0,3,4
 75 383 75 383 98.5 457.5 c 128,-1,5
 122 532 122 532 172 587.5 c 128,-1,6
 222 643 222 643 298 674 c 128,-1,7
 374 705 374 705 478 705 c 2,8,-1
 1032 705 l 2,9,10
 1051 705 1051 705 1061.5 697.5 c 128,-1,11
 1072 690 1072 690 1072 675 c 0,12,13
 1072 652 1072 652 1059.5 640.5 c 128,-1,14
 1047 629 1047 629 1027 629 c 2,15,-1
 699 629 l 1,16,-1
 662 396 l 1,17,-1
 964 396 l 2,18,19
 983 396 983 396 993 388.5 c 128,-1,20
 1003 381 1003 381 1003 366 c 0,21,22
 1003 343 1003 343 990.5 331.5 c 128,-1,23
 978 320 978 320 959 320 c 2,24,-1
 650 320 l 1,25,-1
 612 76 l 1,26,-1
 933 76 l 2,27,28
 953 76 953 76 963.5 68.5 c 128,-1,29
 974 61 974 61 974 46 c 0,30,31
 974 23 974 23 961 11.5 c 128,-1,32
 948 0 948 0 929 0 c 2,33,-1
 412 0 l 2,0,1
413 79 m 2,34,-1
 522 79 l 1,35,-1
 609 626 l 1,36,-1
 476 626 l 2,37,38
 394 626 394 626 336.5 601 c 128,-1,39
 279 576 279 576 242.5 530.5 c 128,-1,40
 206 485 206 485 189.5 425.5 c 128,-1,41
 173 366 173 366 173 297 c 0,42,43
 173 192 173 192 233.5 135.5 c 128,-1,44
 294 79 294 79 413 79 c 2,34,-1
EndSplineSet
EndChar

StartChar: P
Encoding: 80 80 164
Width: 637
GlyphClass: 2
Flags: W
AnchorPoint: "Anchor-2" 287 0 basechar 0
AnchorPoint: "Anchor-0" 398 705 basechar 0
LayerCount: 2
Fore
SplineSet
94 -7 m 0,0,1
 72 -7 72 -7 61.5 7.5 c 128,-1,2
 51 22 51 22 54 47 c 2,3,-1
 151 660 l 2,4,5
 155 683 155 683 168.5 694 c 128,-1,6
 182 705 182 705 204 705 c 2,7,-1
 417 705 l 2,8,9
 527 705 527 705 586.5 656.5 c 128,-1,10
 646 608 646 608 646 514 c 0,11,12
 646 405 646 405 577.5 341.5 c 128,-1,13
 509 278 509 278 379 278 c 2,14,-1
 183 278 l 1,15,-1
 145 39 l 2,16,17
 142 16 142 16 129.5 4.5 c 128,-1,18
 117 -7 117 -7 94 -7 c 0,0,1
195 353 m 1,19,-1
 385 353 l 2,20,21
 468 353 468 353 511.5 392.5 c 128,-1,22
 555 432 555 432 555 508 c 0,23,24
 555 571 555 571 518 600 c 128,-1,25
 481 629 481 629 408 629 c 2,26,-1
 239 629 l 1,27,-1
 195 353 l 1,19,-1
EndSplineSet
EndChar

StartChar: Thorn
Encoding: 222 222 165
Width: 638
GlyphClass: 2
Flags: W
AnchorPoint: "Anchor-2" 288 0 basechar 0
AnchorPoint: "Anchor-0" 399 705 basechar 0
LayerCount: 2
Fore
SplineSet
92 -7 m 0,0,1
 70 -7 70 -7 60 7.5 c 128,-1,2
 50 22 50 22 54 48 c 2,3,-1
 151 663 l 2,4,5
 155 686 155 686 168.5 697.5 c 128,-1,6
 182 709 182 709 205 709 c 0,7,8
 227 709 227 709 238 697 c 128,-1,9
 249 685 249 685 245 665 c 2,10,-1
 231 580 l 1,11,-1
 397 580 l 2,12,13
 507 580 507 580 567 531.5 c 128,-1,14
 627 483 627 483 627 390 c 0,15,16
 627 280 627 280 558 216.5 c 128,-1,17
 489 153 489 153 360 153 c 2,18,-1
 163 153 l 1,19,-1
 145 39 l 2,20,21
 142 16 142 16 129 4.5 c 128,-1,22
 116 -7 116 -7 92 -7 c 0,0,1
175 228 m 1,23,-1
 366 228 l 2,24,25
 449 228 449 228 492.5 267.5 c 128,-1,26
 536 307 536 307 536 383 c 0,27,28
 536 446 536 446 499 475 c 128,-1,29
 462 504 462 504 389 504 c 2,30,-1
 219 504 l 1,31,-1
 175 228 l 1,23,-1
EndSplineSet
EndChar

StartChar: Q
Encoding: 81 81 166
Width: 771
GlyphClass: 2
Flags: W
AnchorPoint: "Anchor-5" 403 353 basechar 0
AnchorPoint: "Anchor-3" 417 0 basechar 0
AnchorPoint: "Anchor-2" 358 0 basechar 0
AnchorPoint: "Anchor-1" 500 705 basechar 0
AnchorPoint: "Anchor-0" 448 705 basechar 0
LayerCount: 2
Fore
SplineSet
592 -135 m 2,0,1
 601 -153 601 -153 597.5 -166.5 c 128,-1,2
 594 -180 594 -180 583.5 -188 c 128,-1,3
 573 -196 573 -196 559.5 -197.5 c 128,-1,4
 546 -199 546 -199 533.5 -192 c 128,-1,5
 521 -185 521 -185 513 -169 c 2,6,-1
 467 -68 l 2,7,8
 454 -38 454 -38 427.5 -23.5 c 128,-1,9
 401 -9 401 -9 359 -9 c 1,10,-1
 438 22 l 1,11,12
 480 21 480 21 507.5 5 c 128,-1,13
 535 -11 535 -11 555 -55 c 2,14,-1
 592 -135 l 2,0,1
371 -9 m 0,15,16
 281 -9 281 -9 214.5 26 c 128,-1,17
 148 61 148 61 111.5 129.5 c 128,-1,18
 75 198 75 198 75 295 c 0,19,20
 75 384 75 384 99 460.5 c 128,-1,21
 123 537 123 537 169.5 594 c 128,-1,22
 216 651 216 651 282.5 682.5 c 128,-1,23
 349 714 349 714 435 714 c 0,24,25
 525 714 525 714 591.5 679 c 128,-1,26
 658 644 658 644 694.5 576 c 128,-1,27
 731 508 731 508 731 411 c 0,28,29
 731 321 731 321 707 244.5 c 128,-1,30
 683 168 683 168 636.5 111 c 128,-1,31
 590 54 590 54 523.5 22.5 c 128,-1,32
 457 -9 457 -9 371 -9 c 0,15,16
373 73 m 0,33,34
 458 73 458 73 515.5 117 c 128,-1,35
 573 161 573 161 603.5 237 c 128,-1,36
 634 313 634 313 634 410 c 0,37,38
 634 522 634 522 580.5 577 c 128,-1,39
 527 632 527 632 432 632 c 0,40,41
 348 632 348 632 290.5 588.5 c 128,-1,42
 233 545 233 545 202.5 469 c 128,-1,43
 172 393 172 393 172 296 c 0,44,45
 172 183 172 183 226 128 c 128,-1,46
 280 73 280 73 373 73 c 0,33,34
EndSplineSet
EndChar

StartChar: R
Encoding: 82 82 167
Width: 673
GlyphClass: 2
Flags: W
AnchorPoint: "Anchor-2" 311 0 basechar 0
AnchorPoint: "Anchor-0" 403 705 basechar 0
LayerCount: 2
Fore
SplineSet
93 -7 m 0,0,1
 71 -7 71 -7 60.5 7.5 c 128,-1,2
 50 22 50 22 54 48 c 2,3,-1
 151 659 l 2,4,5
 155 682 155 682 168.5 693.5 c 128,-1,6
 182 705 182 705 205 705 c 2,7,-1
 415 705 l 2,8,9
 530 705 530 705 588 654 c 128,-1,10
 646 603 646 603 646 514 c 0,11,12
 646 441 646 441 612 392.5 c 128,-1,13
 578 344 578 344 519.5 320 c 128,-1,14
 461 296 461 296 387 298 c 1,15,-1
 387 311 l 1,16,-1
 405 311 l 2,17,18
 449 311 449 311 477.5 285.5 c 128,-1,19
 506 260 506 260 524 214 c 2,20,-1
 585 54 l 2,21,22
 593 35 593 35 591 21 c 128,-1,23
 589 7 589 7 578.5 0 c 128,-1,24
 568 -7 568 -7 549 -7 c 256,25,26
 530 -7 530 -7 519 2.5 c 128,-1,27
 508 12 508 12 500 33 c 2,28,-1
 429 218 l 2,29,30
 414 260 414 260 388.5 277 c 128,-1,31
 363 294 363 294 315 294 c 2,32,-1
 186 294 l 1,33,-1
 146 39 l 2,34,35
 142 16 142 16 129 4.5 c 128,-1,36
 116 -7 116 -7 93 -7 c 0,0,1
197 366 m 1,37,-1
 391 366 l 2,38,39
 468 366 468 366 511.5 403 c 128,-1,40
 555 440 555 440 555 508 c 0,41,42
 555 568 555 568 518.5 598.5 c 128,-1,43
 482 629 482 629 404 629 c 2,44,-1
 239 629 l 1,45,-1
 197 366 l 1,37,-1
EndSplineSet
EndChar

StartChar: S
Encoding: 83 83 175
Width: 618
GlyphClass: 2
Flags: W
AnchorPoint: "Anchor-2" 295 0 basechar 0
AnchorPoint: "Anchor-0" 372 705 basechar 0
LayerCount: 2
Fore
SplineSet
298 -9 m 0,0,1
 253 -9 253 -9 210 -2.5 c 128,-1,2
 167 4 167 4 127 19 c 128,-1,3
 87 34 87 34 53 57 c 0,4,5
 39 66 39 66 34.5 78.5 c 128,-1,6
 30 91 30 91 32.5 103.5 c 128,-1,7
 35 116 35 116 43.5 125 c 128,-1,8
 52 134 52 134 65 135.5 c 128,-1,9
 78 137 78 137 94 128 c 0,10,11
 142 96 142 96 195 83.5 c 128,-1,12
 248 71 248 71 306 71 c 0,13,14
 384 71 384 71 431 103.5 c 128,-1,15
 478 136 478 136 478 190 c 0,16,17
 478 229 478 229 450.5 256 c 128,-1,18
 423 283 423 283 353 299 c 2,19,-1
 248 324 l 2,20,21
 178 341 178 341 136 383 c 128,-1,22
 94 425 94 425 94 501 c 0,23,24
 94 550 94 550 114.5 589.5 c 128,-1,25
 135 629 135 629 172 657 c 128,-1,26
 209 685 209 685 257.5 699.5 c 128,-1,27
 306 714 306 714 361 714 c 0,28,29
 417 714 417 714 478 697.5 c 128,-1,30
 539 681 539 681 585 644 c 0,31,32
 598 635 598 635 602 622 c 128,-1,33
 606 609 606 609 603 597 c 128,-1,34
 600 585 600 585 591.5 577 c 128,-1,35
 583 569 583 569 570 568.5 c 128,-1,36
 557 568 557 568 539 579 c 0,37,38
 502 608 502 608 454.5 621 c 128,-1,39
 407 634 407 634 359 634 c 0,40,41
 309 634 309 634 270 618 c 128,-1,42
 231 602 231 602 209 574 c 128,-1,43
 187 546 187 546 187 507 c 0,44,45
 187 459 187 459 211.5 436 c 128,-1,46
 236 413 236 413 285 401 c 2,47,-1
 389 375 l 2,48,49
 483 354 483 354 527 309.5 c 128,-1,50
 571 265 571 265 571 201 c 0,51,52
 571 149 571 149 549.5 110 c 128,-1,53
 528 71 528 71 490.5 44.5 c 128,-1,54
 453 18 453 18 403.5 4.5 c 128,-1,55
 354 -9 354 -9 298 -9 c 0,0,1
EndSplineSet
EndChar

StartChar: uni1E9E
Encoding: 7838 7838 186
Width: 716
GlyphClass: 1
Flags: W
LayerCount: 2
Fore
SplineSet
404 -9 m 0,0,1
 357 -9 357 -9 313 3.5 c 128,-1,2
 269 16 269 16 236 40 c 0,3,4
 223 48 223 48 219.5 59.5 c 128,-1,5
 216 71 216 71 219 82.5 c 128,-1,6
 222 94 222 94 229.5 102 c 128,-1,7
 237 110 237 110 249 112 c 128,-1,8
 261 114 261 114 274 106 c 0,9,10
 304 86 304 86 336.5 77.5 c 128,-1,11
 369 69 369 69 403 69 c 0,12,13
 478 69 478 69 517.5 105.5 c 128,-1,14
 557 142 557 142 557 207 c 0,15,16
 557 259 557 259 522 287.5 c 128,-1,17
 487 316 487 316 417 316 c 2,18,-1
 329 316 l 2,19,20
 314 316 314 316 304.5 324 c 128,-1,21
 295 332 295 332 295 346 c 0,22,23
 295 369 295 369 306 380 c 128,-1,24
 317 391 317 391 336 391 c 2,25,-1
 420 391 l 2,26,27
 489 391 489 391 530.5 425 c 128,-1,28
 572 459 572 459 572 525 c 0,29,30
 572 574 572 574 533 604.5 c 128,-1,31
 494 635 494 635 420 635 c 0,32,33
 326 635 326 635 276 591 c 128,-1,34
 226 547 226 547 211 456 c 2,35,-1
 145 37 l 2,36,37
 142 16 142 16 129 4.5 c 128,-1,38
 116 -7 116 -7 93 -7 c 0,39,40
 71 -7 71 -7 60.5 6.5 c 128,-1,41
 50 20 50 20 53 45 c 2,42,-1
 120 466 l 2,43,44
 134 553 134 553 173 607.5 c 128,-1,45
 212 662 212 662 275.5 688 c 128,-1,46
 339 714 339 714 428 714 c 0,47,48
 504 714 504 714 556.5 690.5 c 128,-1,49
 609 667 609 667 636.5 626 c 128,-1,50
 664 585 664 585 664 535 c 0,51,52
 664 462 664 462 619 412.5 c 128,-1,53
 574 363 574 363 505 350 c 1,54,-1
 505 365 l 1,55,56
 550 358 550 358 582 335 c 128,-1,57
 614 312 614 312 631 277.5 c 128,-1,58
 648 243 648 243 648 201 c 0,59,60
 648 139 648 139 620.5 91 c 128,-1,61
 593 43 593 43 538.5 17 c 128,-1,62
 484 -9 484 -9 404 -9 c 0,0,1
EndSplineSet
EndChar

StartChar: T
Encoding: 84 84 187
Width: 607
GlyphClass: 2
Flags: W
AnchorPoint: "Anchor-5" 322 358 basechar 0
AnchorPoint: "Anchor-2" 265 0 basechar 0
AnchorPoint: "Anchor-0" 375 705 basechar 0
LayerCount: 2
Fore
SplineSet
265 -7 m 0,0,1
 243 -7 243 -7 233 7.5 c 128,-1,2
 223 22 223 22 226 47 c 2,3,-1
 318 626 l 1,4,-1
 106 626 l 2,5,6
 86 626 86 626 74.5 635 c 128,-1,7
 63 644 63 644 63 659 c 0,8,9
 63 681 63 681 76.5 693 c 128,-1,10
 90 705 90 705 111 705 c 2,11,-1
 635 705 l 2,12,13
 655 705 655 705 666 697 c 128,-1,14
 677 689 677 689 677 673 c 0,15,16
 677 651 677 651 664.5 638.5 c 128,-1,17
 652 626 652 626 630 626 c 2,18,-1
 411 626 l 1,19,-1
 318 39 l 2,20,21
 314 17 314 17 301.5 5 c 128,-1,22
 289 -7 289 -7 265 -7 c 0,0,1
EndSplineSet
EndChar

StartChar: U
Encoding: 85 85 194
Width: 731
GlyphClass: 2
Flags: W
AnchorPoint: "Anchor-3" 394 0 basechar 0
AnchorPoint: "Anchor-2" 327 0 basechar 0
AnchorPoint: "Anchor-1" 648 705 basechar 0
AnchorPoint: "Anchor-0" 438 705 basechar 0
LayerCount: 2
Fore
SplineSet
336 -9 m 0,0,1
 270 -9 270 -9 218.5 10 c 128,-1,2
 167 29 167 29 133.5 67.5 c 128,-1,3
 100 106 100 106 88 164 c 128,-1,4
 76 222 76 222 89 299 c 2,5,-1
 147 668 l 2,6,7
 151 691 151 691 164 701.5 c 128,-1,8
 177 712 177 712 198 712 c 0,9,10
 221 712 221 712 231.5 699 c 128,-1,11
 242 686 242 686 238 660 c 2,12,-1
 180 291 l 2,13,14
 163 183 163 183 204 128 c 128,-1,15
 245 73 245 73 342 73 c 0,16,17
 437 73 437 73 491 121 c 128,-1,18
 545 169 545 169 562 274 c 2,19,-1
 625 668 l 2,20,21
 629 691 629 691 641.5 701.5 c 128,-1,22
 654 712 654 712 676 712 c 256,23,24
 698 712 698 712 708.5 699 c 128,-1,25
 719 686 719 686 716 660 c 2,26,-1
 654 272 l 2,27,28
 640 179 640 179 601 116.5 c 128,-1,29
 562 54 562 54 497 22.5 c 128,-1,30
 432 -9 432 -9 336 -9 c 0,0,1
EndSplineSet
EndChar

StartChar: V
Encoding: 86 86 217
Width: 694
GlyphClass: 2
Flags: W
AnchorPoint: "Anchor-2" 309 0 basechar 0
AnchorPoint: "Anchor-0" 419 705 basechar 0
LayerCount: 2
Fore
SplineSet
309 -7 m 0,0,1
 288 -7 288 -7 275.5 4 c 128,-1,2
 263 15 263 15 257 36 c 2,3,-1
 86 648 l 2,4,5
 82 665 82 665 86 678 c 128,-1,6
 90 691 90 691 101 698 c 128,-1,7
 112 705 112 705 127 705 c 0,8,9
 145 705 145 705 156.5 696 c 128,-1,10
 168 687 168 687 174 664 c 2,11,-1
 333 77 l 1,12,-1
 298 77 l 1,13,-1
 648 672 l 2,14,15
 658 689 658 689 670 697 c 128,-1,16
 682 705 682 705 700 705 c 0,17,18
 719 705 719 705 729.5 696.5 c 128,-1,19
 740 688 740 688 741.5 674 c 128,-1,20
 743 660 743 660 734 645 c 2,21,-1
 365 28 l 2,22,23
 355 10 355 10 342 1.5 c 128,-1,24
 329 -7 329 -7 309 -7 c 0,0,1
EndSplineSet
EndChar

StartChar: W
Encoding: 87 87 218
Width: 1104
GlyphClass: 2
Flags: W
AnchorPoint: "Anchor-2" 513 0 basechar 0
AnchorPoint: "Anchor-0" 623 705 basechar 0
LayerCount: 2
Fore
SplineSet
275 -7 m 0,0,1
 256 -7 256 -7 244.5 4.5 c 128,-1,2
 233 16 233 16 229 38 c 2,3,-1
 111 656 l 2,4,5
 106 682 106 682 118 697 c 128,-1,6
 130 712 130 712 154 712 c 0,7,8
 172 712 172 712 183.5 701.5 c 128,-1,9
 195 691 195 691 199 669 c 2,10,-1
 305 83 l 1,11,-1
 269 83 l 1,12,-1
 570 676 l 2,13,14
 579 695 579 695 591.5 703.5 c 128,-1,15
 604 712 604 712 622 712 c 0,16,17
 639 712 639 712 649.5 701 c 128,-1,18
 660 690 660 690 665 666 c 2,19,-1
 772 83 l 1,20,-1
 740 83 l 1,21,-1
 1039 678 l 2,22,23
 1048 695 1048 695 1059 703.5 c 128,-1,24
 1070 712 1070 712 1088 712 c 0,25,26
 1116 712 1116 712 1125 694 c 128,-1,27
 1134 676 1134 676 1121 651 c 2,28,-1
 805 29 l 2,29,30
 795 10 795 10 782 1.5 c 128,-1,31
 769 -7 769 -7 749 -7 c 256,32,33
 729 -7 729 -7 717.5 4.5 c 128,-1,34
 706 16 706 16 702 38 c 2,35,-1
 597 594 l 1,36,-1
 618 594 l 1,37,-1
 331 29 l 2,38,39
 321 10 321 10 308.5 1.5 c 128,-1,40
 296 -7 296 -7 275 -7 c 0,0,1
EndSplineSet
EndChar

StartChar: X
Encoding: 88 88 223
Width: 655
GlyphClass: 2
Flags: W
AnchorPoint: "Anchor-2" 289 0 basechar 0
AnchorPoint: "Anchor-0" 401 705 basechar 0
LayerCount: 2
Fore
SplineSet
48 -7 m 0,0,1
 31 -7 31 -7 20 3.5 c 128,-1,2
 9 14 9 14 9 30 c 128,-1,3
 9 46 9 46 22 61 c 2,4,-1
 305 379 l 1,5,-1
 305 342 l 1,6,-1
 128 646 l 2,7,8
 118 663 118 663 119.5 678 c 128,-1,9
 121 693 121 693 132.5 702.5 c 128,-1,10
 144 712 144 712 162 712 c 256,11,12
 180 712 180 712 189.5 704.5 c 128,-1,13
 199 697 199 697 210 677 c 2,14,-1
 363 409 l 1,15,-1
 341 409 l 1,16,-1
 579 684 l 2,17,18
 592 699 592 699 604 705.5 c 128,-1,19
 616 712 616 712 631 712 c 0,20,21
 649 712 649 712 660 702 c 128,-1,22
 671 692 671 692 672 676.5 c 128,-1,23
 673 661 673 661 659 645 c 2,24,-1
 387 338 l 1,25,-1
 387 381 l 1,26,-1
 575 60 l 2,27,28
 586 43 586 43 584 27.5 c 128,-1,29
 582 12 582 12 570.5 2.5 c 128,-1,30
 559 -7 559 -7 540 -7 c 0,31,32
 523 -7 523 -7 513.5 1 c 128,-1,33
 504 9 504 9 492 28 c 2,34,-1
 327 314 l 1,35,-1
 355 314 l 1,36,-1
 100 21 l 2,37,38
 87 6 87 6 75.5 -0.5 c 128,-1,39
 64 -7 64 -7 48 -7 c 0,0,1
EndSplineSet
EndChar

StartChar: Y
Encoding: 89 89 224
Width: 601
GlyphClass: 2
Flags: W
AnchorPoint: "Anchor-2" 261 0 basechar 0
AnchorPoint: "Anchor-0" 365 705 basechar 0
LayerCount: 2
Fore
SplineSet
261 -7 m 0,0,1
 238 -7 238 -7 228.5 7.5 c 128,-1,2
 219 22 219 22 223 47 c 2,3,-1
 273 365 l 1,4,-1
 283 303 l 1,5,-1
 91 645 l 2,6,7
 81 663 81 663 82.5 678 c 128,-1,8
 84 693 84 693 95.5 702.5 c 128,-1,9
 107 712 107 712 125 712 c 0,10,11
 142 712 142 712 152.5 704.5 c 128,-1,12
 163 697 163 697 174 677 c 2,13,-1
 330 397 l 1,14,-1
 307 397 l 1,15,-1
 560 684 l 2,16,17
 574 700 574 700 585 706 c 128,-1,18
 596 712 596 712 612 712 c 0,19,20
 629 712 629 712 640 702 c 128,-1,21
 651 692 651 692 651 676.5 c 128,-1,22
 651 661 651 661 637 645 c 2,23,-1
 335 303 l 1,24,-1
 366 365 l 1,25,-1
 314 39 l 2,26,27
 307 -7 307 -7 261 -7 c 0,0,1
EndSplineSet
EndChar

StartChar: uni01B3
Encoding: 435 435 231
Width: 614
GlyphClass: 1
Flags: W
LayerCount: 2
Fore
SplineSet
262 -7 m 0,0,1
 238 -7 238 -7 228 7 c 128,-1,2
 218 21 218 21 222 46 c 2,3,-1
 273 365 l 1,4,-1
 283 303 l 1,5,-1
 90 647 l 2,6,7
 80 664 80 664 82.5 678.5 c 128,-1,8
 85 693 85 693 96.5 702.5 c 128,-1,9
 108 712 108 712 126 712 c 0,10,11
 137 712 137 712 145 709 c 128,-1,12
 153 706 153 706 160 698.5 c 128,-1,13
 167 691 167 691 174 677 c 2,14,-1
 330 397 l 1,15,-1
 307 397 l 1,16,-1
 515 633 l 2,17,18
 542 663 542 663 566 680.5 c 128,-1,19
 590 698 590 698 616 706 c 128,-1,20
 642 714 642 714 672 714 c 0,21,22
 703 714 703 714 720.5 706.5 c 128,-1,23
 738 699 738 699 738 677 c 0,24,25
 738 667 738 667 732.5 658.5 c 128,-1,26
 727 650 727 650 720.5 645.5 c 128,-1,27
 714 641 714 641 710 641 c 0,28,29
 707 642 707 642 696.5 643 c 128,-1,30
 686 644 686 644 680 644 c 0,31,32
 657 644 657 644 636 632 c 128,-1,33
 615 620 615 620 591 593 c 2,34,-1
 335 303 l 1,35,-1
 366 365 l 1,36,-1
 314 40 l 2,37,38
 306 -7 306 -7 262 -7 c 0,0,1
EndSplineSet
EndChar

StartChar: Z
Encoding: 90 90 235
Width: 593
GlyphClass: 2
Flags: W
AnchorPoint: "Anchor-2" 281 0 basechar 0
AnchorPoint: "Anchor-0" 370 705 basechar 0
LayerCount: 2
Fore
SplineSet
55 0 m 2,0,1
 39 0 39 0 29 7.5 c 128,-1,2
 19 15 19 15 16 28 c 128,-1,3
 13 41 13 41 18 57 c 128,-1,4
 23 73 23 73 38 90 c 2,5,-1
 529 659 l 1,6,-1
 530 626 l 1,7,-1
 149 626 l 2,8,9
 129 626 129 626 118.5 634.5 c 128,-1,10
 108 643 108 643 108 658 c 0,11,12
 108 682 108 682 121 693.5 c 128,-1,13
 134 705 134 705 155 705 c 2,14,-1
 581 705 l 2,15,16
 599 705 599 705 610.5 697.5 c 128,-1,17
 622 690 622 690 625 677 c 128,-1,18
 628 664 628 664 622 648.5 c 128,-1,19
 616 633 616 633 602 616 c 2,20,-1
 110 46 l 1,21,-1
 108 79 l 1,22,-1
 504 79 l 2,23,24
 524 79 524 79 535.5 71 c 128,-1,25
 547 63 547 63 547 48 c 0,26,27
 547 24 547 24 533.5 12 c 128,-1,28
 520 0 520 0 499 0 c 2,29,-1
 55 0 l 2,0,1
EndSplineSet
EndChar

StartChar: a
Encoding: 97 97 242
Width: 533
GlyphClass: 2
Flags: W
AnchorPoint: "Anchor-3" 403 0 basechar 0
AnchorPoint: "Anchor-2" 237 -1 basechar 0
AnchorPoint: "Anchor-0" 306 484 basechar 0
LayerCount: 2
Fore
SplineSet
198 -9 m 0,0,1
 155 -9 155 -9 118.5 10 c 128,-1,2
 82 29 82 29 59.5 62.5 c 128,-1,3
 37 96 37 96 37 138 c 0,4,5
 37 190 37 190 66 221.5 c 128,-1,6
 95 253 95 253 156 268.5 c 128,-1,7
 217 284 217 284 312 284 c 2,8,-1
 393 284 l 1,9,-1
 384 226 l 1,10,-1
 322 226 l 2,11,12
 249 226 249 226 207 218.5 c 128,-1,13
 165 211 165 211 146.5 193 c 128,-1,14
 128 175 128 175 128 144 c 0,15,16
 128 102 128 102 156 79.5 c 128,-1,17
 184 57 184 57 222 57 c 0,18,19
 257 57 257 57 287.5 73 c 128,-1,20
 318 89 318 89 339.5 118.5 c 128,-1,21
 361 148 361 148 367 190 c 2,22,-1
 386 311 l 2,23,24
 395 366 395 366 371 395.5 c 128,-1,25
 347 425 347 425 285 425 c 0,26,27
 250 425 250 425 217 417.5 c 128,-1,28
 184 410 184 410 151 392 c 0,29,30
 137 385 137 385 125 387 c 128,-1,31
 113 389 113 389 105.5 396.5 c 128,-1,32
 98 404 98 404 97 415 c 128,-1,33
 96 426 96 426 102.5 437 c 128,-1,34
 109 448 109 448 126 457 c 0,35,36
 165 477 165 477 209.5 486.5 c 128,-1,37
 254 496 254 496 296 496 c 0,38,39
 367 496 367 496 408.5 469.5 c 128,-1,40
 450 443 450 443 465 396.5 c 128,-1,41
 480 350 480 350 470 287 c 2,42,-1
 430 38 l 2,43,44
 428 16 428 16 415 4.5 c 128,-1,45
 402 -7 402 -7 381 -7 c 0,46,47
 361 -7 361 -7 351.5 6 c 128,-1,48
 342 19 342 19 345 44 c 2,49,-1
 357 121 l 1,50,-1
 365 109 l 1,51,52
 352 69 352 69 325.5 42.5 c 128,-1,53
 299 16 299 16 266 3.5 c 128,-1,54
 233 -9 233 -9 198 -9 c 0,0,1
EndSplineSet
Substitution2: "'ss01' Style Set 1 lookup 35 subtable" a.ss01
Substitution2: "'salt' Stylistic Alternatives lookup 34 subtable" a.ss01
Substitution2: "Single Substitution lookup 29 subtable" ordfeminine
AlternateSubs2: "'aalt' Access All Alternates lookup 1 subtable" a.ss01 ordfeminine
EndChar

StartChar: aogonek
Encoding: 261 261 265
Width: 533
GlyphClass: 1
Flags: W
LayerCount: 2
Fore
SplineSet
368 -193 m 0,0,1
 318 -193 318 -193 293 -167.5 c 128,-1,2
 268 -142 268 -142 268 -103 c 0,3,4
 268 -61 268 -61 290.5 -28.5 c 128,-1,5
 313 4 313 4 354 26 c 1,6,-1
 348 12 l 1,7,8
 345 19 345 19 344.5 27 c 128,-1,9
 344 35 344 35 345 44 c 2,10,-1
 357 121 l 1,11,-1
 365 109 l 1,12,13
 352 69 352 69 325.5 42.5 c 128,-1,14
 299 16 299 16 266 3.5 c 128,-1,15
 233 -9 233 -9 198 -9 c 0,16,17
 155 -9 155 -9 118.5 10 c 128,-1,18
 82 29 82 29 59.5 62.5 c 128,-1,19
 37 96 37 96 37 138 c 0,20,21
 37 190 37 190 66 221.5 c 128,-1,22
 95 253 95 253 156 268.5 c 128,-1,23
 217 284 217 284 312 284 c 2,24,-1
 393 284 l 1,25,-1
 384 226 l 1,26,-1
 322 226 l 2,27,28
 249 226 249 226 207 218.5 c 128,-1,29
 165 211 165 211 146.5 193 c 128,-1,30
 128 175 128 175 128 144 c 0,31,32
 128 102 128 102 156 79.5 c 128,-1,33
 184 57 184 57 222 57 c 0,34,35
 257 57 257 57 287.5 73 c 128,-1,36
 318 89 318 89 339.5 118.5 c 128,-1,37
 361 148 361 148 367 190 c 2,38,-1
 386 311 l 2,39,40
 395 366 395 366 371 395.5 c 128,-1,41
 347 425 347 425 285 425 c 0,42,43
 250 425 250 425 217 417.5 c 128,-1,44
 184 410 184 410 151 392 c 0,45,46
 137 385 137 385 125 387 c 128,-1,47
 113 389 113 389 105.5 396.5 c 128,-1,48
 98 404 98 404 97 415 c 128,-1,49
 96 426 96 426 102.5 437 c 128,-1,50
 109 448 109 448 126 457 c 0,51,52
 165 477 165 477 209.5 486.5 c 128,-1,53
 254 496 254 496 296 496 c 0,54,55
 367 496 367 496 408.5 469.5 c 128,-1,56
 450 443 450 443 465 396.5 c 128,-1,57
 480 350 480 350 470 287 c 2,58,-1
 430 38 l 2,59,60
 428 20 428 20 419 9.5 c 128,-1,61
 410 -1 410 -1 396 -6 c 0,62,63
 364 -19 364 -19 347.5 -40.5 c 128,-1,64
 331 -62 331 -62 331 -88 c 0,65,66
 331 -111 331 -111 344.5 -125 c 128,-1,67
 358 -139 358 -139 384 -139 c 0,68,69
 392 -139 392 -139 400.5 -137.5 c 128,-1,70
 409 -136 409 -136 420 -133 c 0,71,72
 433 -129 433 -129 440 -134.5 c 128,-1,73
 447 -140 447 -140 448.5 -150 c 128,-1,74
 450 -160 450 -160 446 -169.5 c 128,-1,75
 442 -179 442 -179 432 -182 c 0,76,77
 418 -187 418 -187 400.5 -190 c 128,-1,78
 383 -193 383 -193 368 -193 c 0,0,1
EndSplineSet
Substitution2: "'ss01' Style Set 1 lookup 35 subtable" aogonek.ss01
Substitution2: "'salt' Stylistic Alternatives lookup 34 subtable" aogonek.ss01
Substitution2: "'aalt' Access All Alternates lookup 0 subtable" aogonek.ss01
EndChar

StartChar: ae
Encoding: 230 230 269
Width: 862
GlyphClass: 2
Flags: W
AnchorPoint: "Anchor-2" 376 0 basechar 0
AnchorPoint: "Anchor-0" 440 484 basechar 0
LayerCount: 2
Fore
SplineSet
211 -9 m 0,0,1
 166 -9 166 -9 126.5 8 c 128,-1,2
 87 25 87 25 62 58.5 c 128,-1,3
 37 92 37 92 37 138 c 0,4,5
 37 190 37 190 66 221.5 c 128,-1,6
 95 253 95 253 156 268 c 128,-1,7
 217 283 217 283 312 283 c 2,8,-1
 393 283 l 1,9,-1
 384 226 l 1,10,-1
 323 226 l 2,11,12
 250 226 250 226 207.5 218 c 128,-1,13
 165 210 165 210 146.5 192 c 128,-1,14
 128 174 128 174 128 143 c 0,15,16
 128 102 128 102 156 80 c 128,-1,17
 184 58 184 58 222 58 c 0,18,19
 257 58 257 58 287.5 72.5 c 128,-1,20
 318 87 318 87 339.5 115 c 128,-1,21
 361 143 361 143 367 184 c 2,22,-1
 387 304 l 2,23,24
 397 364 397 364 372 394.5 c 128,-1,25
 347 425 347 425 285 425 c 0,26,27
 250 425 250 425 217 417.5 c 128,-1,28
 184 410 184 410 151 392 c 0,29,30
 137 385 137 385 125 387 c 128,-1,31
 113 389 113 389 105.5 396.5 c 128,-1,32
 98 404 98 404 97 415 c 128,-1,33
 96 426 96 426 102.5 437 c 128,-1,34
 109 448 109 448 126 457 c 0,35,36
 165 477 165 477 209.5 486.5 c 128,-1,37
 254 496 254 496 296 496 c 0,38,39
 366 496 366 496 407 466 c 128,-1,40
 448 436 448 436 459 379 c 1,41,-1
 428 379 l 1,42,43
 460 433 460 433 511.5 464.5 c 128,-1,44
 563 496 563 496 632 496 c 0,45,46
 693 496 693 496 732.5 475 c 128,-1,47
 772 454 772 454 794 419 c 128,-1,48
 816 384 816 384 823 342 c 128,-1,49
 830 300 830 300 824 258 c 2,50,-1
 823 247 l 2,51,52
 822 236 822 236 814 231 c 128,-1,53
 806 226 806 226 795 226 c 2,54,-1
 441 226 l 1,55,-1
 449 283 l 1,56,-1
 767 283 l 1,57,-1
 749 267 l 1,58,59
 756 312 756 312 746 349 c 128,-1,60
 736 386 736 386 708.5 408 c 128,-1,61
 681 430 681 430 630 430 c 0,62,63
 580 430 580 430 545.5 406.5 c 128,-1,64
 511 383 511 383 492 347 c 128,-1,65
 473 311 473 311 466 270 c 2,66,-1
 462 245 l 2,67,68
 448 162 448 162 486.5 112.5 c 128,-1,69
 525 63 525 63 604 63 c 0,70,71
 639 63 639 63 672.5 71 c 128,-1,72
 706 79 706 79 735 98 c 0,73,74
 750 108 750 108 761.5 107 c 128,-1,75
 773 106 773 106 780 99 c 128,-1,76
 787 92 787 92 788.5 81.5 c 128,-1,77
 790 71 790 71 785 59.5 c 128,-1,78
 780 48 780 48 767 39 c 0,79,80
 733 15 733 15 686.5 3 c 128,-1,81
 640 -9 640 -9 599 -9 c 0,82,83
 513 -9 513 -9 459 30.5 c 128,-1,84
 405 70 405 70 389 141 c 1,85,-1
 415 141 l 1,86,87
 393 64 393 64 336.5 27.5 c 128,-1,88
 280 -9 280 -9 211 -9 c 0,0,1
EndSplineSet
EndChar

StartChar: b
Encoding: 98 98 271
Width: 587
GlyphClass: 2
Flags: W
AnchorPoint: "Anchor-2" 269 0 basechar 0
AnchorPoint: "Anchor-0" 381 705 basechar 0
LayerCount: 2
Fore
SplineSet
300 -9 m 0,0,1
 242 -9 242 -9 197 20 c 128,-1,2
 152 49 152 49 135 107 c 1,3,-1
 143 122 l 1,4,-1
 130 39 l 2,5,6
 128 16 128 16 115.5 4.5 c 128,-1,7
 103 -7 103 -7 80 -7 c 0,8,9
 59 -7 59 -7 48.5 7 c 128,-1,10
 38 21 38 21 42 46 c 2,11,-1
 140 666 l 2,12,13
 144 689 144 689 157 700.5 c 128,-1,14
 170 712 170 712 193 712 c 0,15,16
 214 712 214 712 224 698 c 128,-1,17
 234 684 234 684 230 659 c 2,18,-1
 187 386 l 1,19,-1
 176 386 l 1,20,21
 203 438 203 438 249.5 467 c 128,-1,22
 296 496 296 496 358 496 c 0,23,24
 414 496 414 496 456 471 c 128,-1,25
 498 446 498 446 521.5 399 c 128,-1,26
 545 352 545 352 545 287 c 0,27,28
 545 206 545 206 516 139 c 128,-1,29
 487 72 487 72 432.5 31.5 c 128,-1,30
 378 -9 378 -9 300 -9 c 0,0,1
288 63 m 0,31,32
 341 63 341 63 377.5 92.5 c 128,-1,33
 414 122 414 122 433.5 172.5 c 128,-1,34
 453 223 453 223 453 284 c 0,35,36
 453 352 453 352 419.5 388 c 128,-1,37
 386 424 386 424 327 424 c 0,38,39
 274 424 274 424 237 394.5 c 128,-1,40
 200 365 200 365 181 315 c 128,-1,41
 162 265 162 265 162 203 c 0,42,43
 162 135 162 135 195.5 99 c 128,-1,44
 229 63 229 63 288 63 c 0,31,32
EndSplineSet
EndChar

StartChar: uni0253
Encoding: 595 595 272
Width: 587
GlyphClass: 1
Flags: W
LayerCount: 2
Fore
SplineSet
300 -9 m 0,0,1
 242 -9 242 -9 197 20 c 128,-1,2
 152 49 152 49 135 107 c 1,3,-1
 143 122 l 1,4,-1
 129 38 l 2,5,6
 126 16 126 16 114.5 4.5 c 128,-1,7
 103 -7 103 -7 80 -7 c 0,8,9
 59 -7 59 -7 48.5 7 c 128,-1,10
 38 21 38 21 42 46 c 2,11,-1
 120 542 l 2,12,13
 135 631 135 631 182 672.5 c 128,-1,14
 229 714 229 714 315 714 c 0,15,16
 350 714 350 714 363.5 705 c 128,-1,17
 377 696 377 696 377 677 c 0,18,19
 377 661 377 661 368.5 650 c 128,-1,20
 360 639 360 639 348 639 c 0,21,22
 344 639 344 639 335 640 c 128,-1,23
 326 641 326 641 317 641 c 0,24,25
 274 641 274 641 246.5 616 c 128,-1,26
 219 591 219 591 211 541 c 2,27,-1
 187 386 l 1,28,-1
 176 386 l 1,29,30
 203 438 203 438 249.5 467 c 128,-1,31
 296 496 296 496 358 496 c 0,32,33
 414 496 414 496 456 471 c 128,-1,34
 498 446 498 446 521.5 399 c 128,-1,35
 545 352 545 352 545 287 c 0,36,37
 545 206 545 206 516 139 c 128,-1,38
 487 72 487 72 432.5 31.5 c 128,-1,39
 378 -9 378 -9 300 -9 c 0,0,1
288 63 m 0,40,41
 341 63 341 63 377.5 92.5 c 128,-1,42
 414 122 414 122 433.5 172.5 c 128,-1,43
 453 223 453 223 453 284 c 0,44,45
 453 352 453 352 419.5 388 c 128,-1,46
 386 424 386 424 327 424 c 0,47,48
 274 424 274 424 237 394.5 c 128,-1,49
 200 365 200 365 181 315 c 128,-1,50
 162 265 162 265 162 203 c 0,51,52
 162 135 162 135 195.5 99 c 128,-1,53
 229 63 229 63 288 63 c 0,40,41
EndSplineSet
EndChar

StartChar: c
Encoding: 99 99 273
Width: 465
GlyphClass: 2
Flags: W
AnchorPoint: "Anchor-2" 241 0 basechar 0
AnchorPoint: "Anchor-0" 305 484 basechar 0
LayerCount: 2
Fore
SplineSet
261 -9 m 0,0,1
 187 -9 187 -9 139 18.5 c 128,-1,2
 91 46 91 46 67 95 c 128,-1,3
 43 144 43 144 43 208 c 0,4,5
 43 262 43 262 58.5 313.5 c 128,-1,6
 74 365 74 365 106 406 c 128,-1,7
 138 447 138 447 188 471.5 c 128,-1,8
 238 496 238 496 307 496 c 0,9,10
 344 496 344 496 379.5 486 c 128,-1,11
 415 476 415 476 442 460 c 0,12,13
 457 450 457 450 463 438.5 c 128,-1,14
 469 427 469 427 467.5 415 c 128,-1,15
 466 403 466 403 458.5 395 c 128,-1,16
 451 387 451 387 440.5 385 c 128,-1,17
 430 383 430 383 417 391 c 0,18,19
 392 408 392 408 366.5 415.5 c 128,-1,20
 341 423 341 423 311 423 c 0,21,22
 264 423 264 423 230.5 404.5 c 128,-1,23
 197 386 197 386 176.5 355 c 128,-1,24
 156 324 156 324 146 286.5 c 128,-1,25
 136 249 136 249 136 209 c 0,26,27
 136 143 136 143 168 103.5 c 128,-1,28
 200 64 200 64 272 64 c 0,29,30
 295 64 295 64 320 71 c 128,-1,31
 345 78 345 78 371 94 c 0,32,33
 382 101 382 101 392.5 99 c 128,-1,34
 403 97 403 97 410 89.5 c 128,-1,35
 417 82 417 82 419.5 71.5 c 128,-1,36
 422 61 422 61 417.5 50 c 128,-1,37
 413 39 413 39 400 31 c 0,38,39
 373 12 373 12 334.5 1.5 c 128,-1,40
 296 -9 296 -9 261 -9 c 0,0,1
EndSplineSet
EndChar

StartChar: d
Encoding: 100 100 280
Width: 587
GlyphClass: 2
Flags: W
AnchorPoint: "Anchor-5" 294 246 basechar 0
AnchorPoint: "Anchor-4" 473 585 basechar 0
AnchorPoint: "Anchor-2" 261 0 basechar 0
AnchorPoint: "Anchor-1" 631 705 basechar 0
AnchorPoint: "Anchor-0" 346 550 basechar 0
LayerCount: 2
Fore
SplineSet
229 -9 m 0,0,1
 173 -9 173 -9 131 16.5 c 128,-1,2
 89 42 89 42 65.5 89 c 128,-1,3
 42 136 42 136 42 200 c 0,4,5
 42 281 42 281 71 348.5 c 128,-1,6
 100 416 100 416 154.5 456 c 128,-1,7
 209 496 209 496 287 496 c 0,8,9
 345 496 345 496 390 467 c 128,-1,10
 435 438 435 438 452 380 c 1,11,-1
 445 380 l 1,12,-1
 490 669 l 2,13,14
 494 692 494 692 507 702 c 128,-1,15
 520 712 520 712 542 712 c 256,16,17
 564 712 564 712 573.5 699 c 128,-1,18
 583 686 583 686 580 660 c 2,19,-1
 481 39 l 2,20,21
 478 17 478 17 465 5 c 128,-1,22
 452 -7 452 -7 429 -7 c 0,23,24
 408 -7 408 -7 398.5 7.5 c 128,-1,25
 389 22 389 22 394 47 c 2,26,-1
 405 118 l 1,27,-1
 410 101 l 1,28,29
 384 50 384 50 337.5 20.5 c 128,-1,30
 291 -9 291 -9 229 -9 c 0,0,1
260 63 m 0,31,32
 313 63 313 63 350 93 c 128,-1,33
 387 123 387 123 406 173 c 128,-1,34
 425 223 425 223 425 284 c 0,35,36
 425 352 425 352 391.5 388 c 128,-1,37
 358 424 358 424 299 424 c 0,38,39
 246 424 246 424 209.5 394.5 c 128,-1,40
 173 365 173 365 153.5 315 c 128,-1,41
 134 265 134 265 134 203 c 0,42,43
 134 135 134 135 167.5 99 c 128,-1,44
 201 63 201 63 260 63 c 0,31,32
EndSplineSet
EndChar

StartChar: eth
Encoding: 240 240 281
Width: 565
GlyphClass: 1
Flags: W
LayerCount: 2
Fore
SplineSet
255 -9 m 0,0,1
 194 -9 194 -9 145 15.5 c 128,-1,2
 96 40 96 40 68 85 c 128,-1,3
 40 130 40 130 40 189 c 0,4,5
 40 267 40 267 72.5 326 c 128,-1,6
 105 385 105 385 161.5 418.5 c 128,-1,7
 218 452 218 452 288 452 c 0,8,9
 335 452 335 452 373 436 c 128,-1,10
 411 420 411 420 435.5 387.5 c 128,-1,11
 460 355 460 355 464 303 c 1,12,-1
 445 302 l 1,13,14
 451 396 451 396 421 470.5 c 128,-1,15
 391 545 391 545 330 593 c 1,16,-1
 346 590 l 1,17,-1
 206 530 l 2,18,19
 193 524 193 524 183.5 528.5 c 128,-1,20
 174 533 174 533 170 542.5 c 128,-1,21
 166 552 166 552 169.5 562 c 128,-1,22
 173 572 173 572 186 578 c 2,23,-1
 296 625 l 1,24,-1
 295 615 l 1,25,26
 279 626 279 626 259.5 634 c 128,-1,27
 240 642 240 642 219 648 c 0,28,29
 202 654 202 654 195.5 665.5 c 128,-1,30
 189 677 189 677 192.5 688.5 c 128,-1,31
 196 700 196 700 208 706.5 c 128,-1,32
 220 713 220 713 238 708 c 0,33,34
 277 697 277 697 310 682.5 c 128,-1,35
 343 668 343 668 371 649 c 1,36,-1
 354 650 l 1,37,-1
 484 707 l 2,38,39
 498 713 498 713 508 708.5 c 128,-1,40
 518 704 518 704 521.5 694.5 c 128,-1,41
 525 685 525 685 521.5 675 c 128,-1,42
 518 665 518 665 505 659 c 2,43,-1
 401 614 l 1,44,-1
 403 624 l 1,45,46
 447 587 447 587 474 539 c 128,-1,47
 501 491 501 491 514 434.5 c 128,-1,48
 527 378 527 378 527 315 c 0,49,50
 527 251 527 251 511 192.5 c 128,-1,51
 495 134 495 134 461.5 88.5 c 128,-1,52
 428 43 428 43 377 17 c 128,-1,53
 326 -9 326 -9 255 -9 c 0,0,1
262 64 m 0,54,55
 308 64 308 64 344.5 86 c 128,-1,56
 381 108 381 108 403 150 c 128,-1,57
 425 192 425 192 425 252 c 0,58,59
 425 313 425 313 390.5 346.5 c 128,-1,60
 356 380 356 380 295 380 c 0,61,62
 250 380 250 380 213 358 c 128,-1,63
 176 336 176 336 154 294 c 128,-1,64
 132 252 132 252 132 192 c 0,65,66
 132 131 132 131 167 97.5 c 128,-1,67
 202 64 202 64 262 64 c 0,54,55
EndSplineSet
EndChar

StartChar: dcroat
Encoding: 273 273 283
Width: 587
GlyphClass: 1
Flags: W
LayerCount: 2
Fore
SplineSet
229 -9 m 0,0,1
 173 -9 173 -9 131 16.5 c 128,-1,2
 89 42 89 42 65.5 89 c 128,-1,3
 42 136 42 136 42 200 c 0,4,5
 42 281 42 281 71 348.5 c 128,-1,6
 100 416 100 416 154.5 456 c 128,-1,7
 209 496 209 496 287 496 c 0,8,9
 345 496 345 496 390 467 c 128,-1,10
 435 438 435 438 452 380 c 1,11,-1
 444 380 l 1,12,-1
 472 551 l 1,13,-1
 316 551 l 2,14,15
 298 551 298 551 288.5 558 c 128,-1,16
 279 565 279 565 279 579 c 0,17,18
 279 597 279 597 290 607.5 c 128,-1,19
 301 618 301 618 320 618 c 2,20,-1
 500 618 l 1,21,-1
 476 581 l 1,22,-1
 490 668 l 2,23,24
 494 690 494 690 507 701 c 128,-1,25
 520 712 520 712 542 712 c 256,26,27
 564 712 564 712 574 699.5 c 128,-1,28
 584 687 584 687 580 661 c 2,29,-1
 567 581 l 1,30,-1
 555 618 l 1,31,-1
 627 618 l 2,32,33
 645 618 645 618 654.5 611 c 128,-1,34
 664 604 664 604 664 591 c 0,35,36
 664 572 664 572 653 561.5 c 128,-1,37
 642 551 642 551 622 551 c 2,38,-1
 562 551 l 1,39,-1
 481 39 l 2,40,41
 477 17 477 17 464 5 c 128,-1,42
 451 -7 451 -7 428 -7 c 0,43,44
 407 -7 407 -7 398 7.5 c 128,-1,45
 389 22 389 22 393 47 c 2,46,-1
 405 118 l 1,47,-1
 410 101 l 1,48,49
 384 50 384 50 337.5 20.5 c 128,-1,50
 291 -9 291 -9 229 -9 c 0,0,1
260 63 m 0,51,52
 313 63 313 63 350 93 c 128,-1,53
 387 123 387 123 406 173 c 128,-1,54
 425 223 425 223 425 284 c 0,55,56
 425 352 425 352 391.5 388 c 128,-1,57
 358 424 358 424 299 424 c 0,58,59
 246 424 246 424 209.5 394.5 c 128,-1,60
 173 365 173 365 153.5 315 c 128,-1,61
 134 265 134 265 134 203 c 0,62,63
 134 135 134 135 167.5 99 c 128,-1,64
 201 63 201 63 260 63 c 0,51,52
EndSplineSet
EndChar

StartChar: uni0257
Encoding: 599 599 285
Width: 587
GlyphClass: 1
Flags: W
LayerCount: 2
Fore
SplineSet
229 -9 m 0,0,1
 173 -9 173 -9 131 16.5 c 128,-1,2
 89 42 89 42 65.5 89 c 128,-1,3
 42 136 42 136 42 200 c 0,4,5
 42 281 42 281 71 348.5 c 128,-1,6
 100 416 100 416 154.5 456 c 128,-1,7
 209 496 209 496 287 496 c 0,8,9
 345 496 345 496 390 467 c 128,-1,10
 435 438 435 438 452 380 c 1,11,-1
 445 380 l 1,12,-1
 470 542 l 2,13,14
 485 631 485 631 531.5 672.5 c 128,-1,15
 578 714 578 714 663 714 c 0,16,17
 698 714 698 714 711.5 705 c 128,-1,18
 725 696 725 696 725 677 c 0,19,20
 725 661 725 661 717 650 c 128,-1,21
 709 639 709 639 696 639 c 0,22,23
 692 639 692 639 683 640 c 128,-1,24
 674 641 674 641 666 641 c 0,25,26
 623 641 623 641 596 615.5 c 128,-1,27
 569 590 569 590 561 540 c 2,28,-1
 481 39 l 2,29,30
 478 17 478 17 465 5 c 128,-1,31
 452 -7 452 -7 429 -7 c 0,32,33
 408 -7 408 -7 398.5 7.5 c 128,-1,34
 389 22 389 22 394 47 c 2,35,-1
 405 118 l 1,36,-1
 410 101 l 1,37,38
 384 50 384 50 337.5 20.5 c 128,-1,39
 291 -9 291 -9 229 -9 c 0,0,1
260 63 m 0,40,41
 313 63 313 63 350 93 c 128,-1,42
 387 123 387 123 406 173 c 128,-1,43
 425 223 425 223 425 284 c 0,44,45
 425 352 425 352 391.5 388 c 128,-1,46
 358 424 358 424 299 424 c 0,47,48
 246 424 246 424 209.5 394.5 c 128,-1,49
 173 365 173 365 153.5 315 c 128,-1,50
 134 265 134 265 134 203 c 0,51,52
 134 135 134 135 167.5 99 c 128,-1,53
 201 63 201 63 260 63 c 0,40,41
EndSplineSet
EndChar

StartChar: e
Encoding: 101 101 288
Width: 534
GlyphClass: 2
Flags: W
AnchorPoint: "Anchor-3" 325 0 basechar 0
AnchorPoint: "Anchor-2" 251 0 basechar 0
AnchorPoint: "Anchor-0" 314 484 basechar 0
LayerCount: 2
Fore
SplineSet
272 -9 m 0,0,1
 202 -9 202 -9 150.5 17.5 c 128,-1,2
 99 44 99 44 71 92.5 c 128,-1,3
 43 141 43 141 43 207 c 0,4,5
 43 287 43 287 75 352.5 c 128,-1,6
 107 418 107 418 166 457 c 128,-1,7
 225 496 225 496 305 496 c 0,8,9
 363 496 363 496 402 475.5 c 128,-1,10
 441 455 441 455 464 420.5 c 128,-1,11
 487 386 487 386 494.5 342.5 c 128,-1,12
 502 299 502 299 496 253 c 0,13,14
 494 235 494 235 487 229 c 128,-1,15
 480 223 480 223 465 223 c 2,16,-1
 114 223 l 1,17,-1
 122 281 l 1,18,-1
 440 281 l 1,19,-1
 422 267 l 1,20,21
 429 313 429 313 419 349.5 c 128,-1,22
 409 386 409 386 381 408 c 128,-1,23
 353 430 353 430 304 430 c 0,24,25
 252 430 252 430 217 406.5 c 128,-1,26
 182 383 182 383 162.5 347 c 128,-1,27
 143 311 143 311 137 270 c 2,28,-1
 132 245 l 2,29,30
 119 162 119 162 158 112.5 c 128,-1,31
 197 63 197 63 278 63 c 0,32,33
 313 63 313 63 346 71 c 128,-1,34
 379 79 379 79 409 98 c 0,35,36
 423 108 423 108 434.5 107 c 128,-1,37
 446 106 446 106 453 99 c 128,-1,38
 460 92 460 92 462 81.5 c 128,-1,39
 464 71 464 71 459 59.5 c 128,-1,40
 454 48 454 48 441 39 c 0,41,42
 407 15 407 15 360.5 3 c 128,-1,43
 314 -9 314 -9 272 -9 c 0,0,1
EndSplineSet
EndChar

StartChar: uni0259
Encoding: 601 601 311
Width: 535
GlyphClass: 1
Flags: W
LayerCount: 2
Fore
SplineSet
230 -9 m 0,0,1
 152 -9 152 -9 106.5 26.5 c 128,-1,2
 61 62 61 62 45.5 118.5 c 128,-1,3
 30 175 30 175 39 237 c 0,4,5
 42 253 42 253 49 258.5 c 128,-1,6
 56 264 56 264 70 264 c 2,7,-1
 421 264 l 1,8,-1
 412 206 l 1,9,-1
 95 206 l 1,10,-1
 117 220 l 1,11,12
 111 176 111 176 120.5 139 c 128,-1,13
 130 102 130 102 157.5 79.5 c 128,-1,14
 185 57 185 57 232 57 c 0,15,16
 285 57 285 57 319 80.5 c 128,-1,17
 353 104 353 104 372.5 140.5 c 128,-1,18
 392 177 392 177 398 216 c 2,19,-1
 402 242 l 2,20,21
 415 325 415 325 378 374.5 c 128,-1,22
 341 424 341 424 258 424 c 0,23,24
 223 424 223 424 188 415 c 128,-1,25
 153 406 153 406 125 386 c 0,26,27
 111 377 111 377 100 378 c 128,-1,28
 89 379 89 379 81.5 386 c 128,-1,29
 74 393 74 393 71.5 404 c 128,-1,30
 69 415 69 415 74 426 c 128,-1,31
 79 437 79 437 91 445 c 0,32,33
 124 471 124 471 172.5 483.5 c 128,-1,34
 221 496 221 496 264 496 c 0,35,36
 335 496 335 496 386 469.5 c 128,-1,37
 437 443 437 443 464.5 395 c 128,-1,38
 492 347 492 347 492 280 c 0,39,40
 492 201 492 201 460 135 c 128,-1,41
 428 69 428 69 369 30 c 128,-1,42
 310 -9 310 -9 230 -9 c 0,0,1
EndSplineSet
EndChar

StartChar: f
Encoding: 102 102 314
Width: 340
GlyphClass: 2
Flags: W
AnchorPoint: "Anchor-2" 108 0 basechar 0
AnchorPoint: "Anchor-0" 219 705 basechar 0
LayerCount: 2
Fore
SplineSet
107 -7 m 0,0,1
 86 -7 86 -7 76 7 c 128,-1,2
 66 21 66 21 70 46 c 2,3,-1
 129 417 l 1,4,-1
 74 417 l 2,5,6
 56 417 56 417 46.5 424 c 128,-1,7
 37 431 37 431 37 445 c 0,8,9
 37 465 37 465 49 476 c 128,-1,10
 61 487 61 487 81 487 c 2,11,-1
 151 487 l 1,12,-1
 138 475 l 1,13,-1
 145 521 l 2,14,15
 158 604 158 604 209.5 651.5 c 128,-1,16
 261 699 261 699 355 706 c 2,17,-1
 385 708 l 2,18,19
 401 709 401 709 409.5 702.5 c 128,-1,20
 418 696 418 696 421 685.5 c 128,-1,21
 424 675 424 675 421.5 664.5 c 128,-1,22
 419 654 419 654 411.5 646.5 c 128,-1,23
 404 639 404 639 392 638 c 2,24,-1
 363 636 l 2,25,26
 306 632 306 632 275.5 603.5 c 128,-1,27
 245 575 245 575 236 520 c 2,28,-1
 229 478 l 1,29,-1
 222 487 l 1,30,-1
 329 487 l 2,31,32
 347 487 347 487 356 480 c 128,-1,33
 365 473 365 473 365 460 c 0,34,35
 365 439 365 439 353.5 428 c 128,-1,36
 342 417 342 417 322 417 c 2,37,-1
 220 417 l 1,38,-1
 160 38 l 2,39,40
 152 -7 152 -7 107 -7 c 0,0,1
EndSplineSet
EndChar

StartChar: g
Encoding: 103 103 315
Width: 590
GlyphClass: 2
Flags: W
AnchorPoint: "Anchor-0" 331 484 basechar 0
LayerCount: 2
Fore
SplineSet
250 -189 m 0,0,1
 191 -189 191 -189 140 -173.5 c 128,-1,2
 89 -158 89 -158 49 -133 c 0,3,4
 37 -125 37 -125 33 -114 c 128,-1,5
 29 -103 29 -103 31.5 -92.5 c 128,-1,6
 34 -82 34 -82 42 -74 c 128,-1,7
 50 -66 50 -66 61.5 -64.5 c 128,-1,8
 73 -63 73 -63 86 -71 c 0,9,10
 121 -92 121 -92 157.5 -104.5 c 128,-1,11
 194 -117 194 -117 238 -117 c 0,12,13
 302 -117 302 -117 341.5 -86 c 128,-1,14
 381 -55 381 -55 391 11 c 2,15,-1
 409 122 l 1,16,-1
 417 121 l 1,17,18
 393 69 393 69 345.5 40.5 c 128,-1,19
 298 12 298 12 237 12 c 0,20,21
 179 12 179 12 135 36 c 128,-1,22
 91 60 91 60 67 105 c 128,-1,23
 43 150 43 150 43 211 c 0,24,25
 43 267 43 267 59.5 318.5 c 128,-1,26
 76 370 76 370 108 410 c 128,-1,27
 140 450 140 450 185.5 473 c 128,-1,28
 231 496 231 496 289 496 c 0,29,30
 349 496 349 496 394.5 467 c 128,-1,31
 440 438 440 438 457 380 c 1,32,-1
 446 363 l 1,33,-1
 460 450 l 2,34,35
 463 473 463 473 476.5 483.5 c 128,-1,36
 490 494 490 494 511 494 c 0,37,38
 533 494 533 494 542 480 c 128,-1,39
 551 466 551 466 547 441 c 2,40,-1
 480 16 l 2,41,42
 464 -86 464 -86 407 -137.5 c 128,-1,43
 350 -189 350 -189 250 -189 c 0,0,1
262 84 m 0,44,45
 317 84 317 84 354 113 c 128,-1,46
 391 142 391 142 410 190 c 128,-1,47
 429 238 429 238 429 294 c 0,48,49
 429 355 429 355 396 389.5 c 128,-1,50
 363 424 363 424 301 424 c 0,51,52
 248 424 248 424 210.5 395 c 128,-1,53
 173 366 173 366 154 318.5 c 128,-1,54
 135 271 135 271 135 215 c 0,55,56
 135 153 135 153 168.5 118.5 c 128,-1,57
 202 84 202 84 262 84 c 0,44,45
EndSplineSet
EndChar

StartChar: uni01E5
Encoding: 485 485 322
Width: 590
GlyphClass: 1
Flags: W
LayerCount: 2
Fore
SplineSet
250 -189 m 0,0,1
 191 -189 191 -189 140 -173.5 c 128,-1,2
 89 -158 89 -158 49 -133 c 0,3,4
 37 -125 37 -125 33 -114 c 128,-1,5
 29 -103 29 -103 32 -92.5 c 128,-1,6
 35 -82 35 -82 42.5 -74 c 128,-1,7
 50 -66 50 -66 61.5 -64.5 c 128,-1,8
 73 -63 73 -63 87 -71 c 0,9,10
 121 -92 121 -92 158 -104.5 c 128,-1,11
 195 -117 195 -117 239 -117 c 0,12,13
 286 -117 286 -117 319.5 -100 c 128,-1,14
 353 -83 353 -83 372 -49 c 1,15,-1
 376 -59 l 1,16,-1
 285 -59 l 2,17,18
 266 -59 266 -59 258.5 -51 c 128,-1,19
 251 -43 251 -43 251 -30 c 0,20,21
 251 -13 251 -13 262 -6 c 128,-1,22
 273 1 273 1 287 1 c 2,23,-1
 398 1 l 1,24,-1
 387 -10 l 1,25,26
 389 -4 389 -4 390.5 3 c 128,-1,27
 392 10 392 10 393 15 c 2,28,-1
 415 151 l 1,29,-1
 420 150 l 1,30,31
 396 99 396 99 346.5 68.5 c 128,-1,32
 297 38 297 38 235 38 c 0,33,34
 177 38 177 38 134 63 c 128,-1,35
 91 88 91 88 68 131 c 128,-1,36
 45 174 45 174 45 229 c 0,37,38
 45 283 45 283 62.5 331 c 128,-1,39
 80 379 80 379 113 416 c 128,-1,40
 146 453 146 453 191 474.5 c 128,-1,41
 236 496 236 496 293 496 c 0,42,43
 353 496 353 496 398 467 c 128,-1,44
 443 438 443 438 457 380 c 1,45,-1
 447 363 l 1,46,-1
 461 450 l 2,47,48
 464 473 464 473 477 483.5 c 128,-1,49
 490 494 490 494 512 494 c 0,50,51
 533 494 533 494 542.5 480 c 128,-1,52
 552 466 552 466 548 441 c 2,53,-1
 482 23 l 2,54,55
 481 15 481 15 479 7 c 128,-1,56
 477 -1 477 -1 475 -9 c 1,57,-1
 470 1 l 1,58,-1
 510 1 l 2,59,60
 529 1 529 1 536.5 -7 c 128,-1,61
 544 -15 544 -15 544 -28 c 0,62,63
 544 -43 544 -43 533 -51 c 128,-1,64
 522 -59 522 -59 508 -59 c 2,65,-1
 449 -59 l 1,66,-1
 464 -50 l 1,67,68
 438 -119 438 -119 385.5 -154 c 128,-1,69
 333 -189 333 -189 250 -189 c 0,0,1
264 110 m 0,70,71
 316 110 316 110 353.5 136.5 c 128,-1,72
 391 163 391 163 412 206.5 c 128,-1,73
 433 250 433 250 433 302 c 0,74,75
 433 359 433 359 399.5 391.5 c 128,-1,76
 366 424 366 424 305 424 c 0,77,78
 254 424 254 424 216 397.5 c 128,-1,79
 178 371 178 371 157.5 327.5 c 128,-1,80
 137 284 137 284 137 233 c 0,81,82
 137 177 137 177 170.5 143.5 c 128,-1,83
 204 110 204 110 264 110 c 0,70,71
EndSplineSet
EndChar

StartChar: h
Encoding: 104 104 323
Width: 572
GlyphClass: 2
Flags: W
AnchorPoint: "Anchor-5" 287 247 basechar 0
AnchorPoint: "Anchor-4" 223 585 basechar 0
AnchorPoint: "Anchor-2" 254 0 basechar 0
AnchorPoint: "Anchor-1" 272 705 basechar 0
AnchorPoint: "Anchor-0" 359 705 basechar 0
LayerCount: 2
Fore
SplineSet
79 -7 m 0,0,1
 58 -7 58 -7 48.5 7.5 c 128,-1,2
 39 22 39 22 42 47 c 2,3,-1
 140 666 l 2,4,5
 144 689 144 689 157 700.5 c 128,-1,6
 170 712 170 712 192 712 c 256,7,8
 214 712 214 712 224 698.5 c 128,-1,9
 234 685 234 685 230 659 c 2,10,-1
 186 379 l 1,11,-1
 175 379 l 1,12,13
 200 435 200 435 247.5 465.5 c 128,-1,14
 295 496 295 496 362 496 c 0,15,16
 416 496 416 496 452.5 474.5 c 128,-1,17
 489 453 489 453 504.5 408 c 128,-1,18
 520 363 520 363 509 294 c 2,19,-1
 469 39 l 2,20,21
 466 16 466 16 452.5 4.5 c 128,-1,22
 439 -7 439 -7 416 -7 c 0,23,24
 395 -7 395 -7 385 7 c 128,-1,25
 375 21 375 21 378 46 c 2,26,-1
 418 293 l 2,27,28
 428 358 428 358 407 390 c 128,-1,29
 386 422 386 422 332 422 c 0,30,31
 262 422 262 422 220.5 379 c 128,-1,32
 179 336 179 336 168 263 c 2,33,-1
 132 39 l 2,34,35
 126 -7 126 -7 79 -7 c 0,0,1
EndSplineSet
EndChar

StartChar: hbar
Encoding: 295 295 324
Width: 572
GlyphClass: 1
Flags: W
LayerCount: 2
Fore
SplineSet
79 -7 m 0,0,1
 58 -7 58 -7 48 7 c 128,-1,2
 38 21 38 21 42 46 c 2,3,-1
 122 551 l 1,4,-1
 69 551 l 2,5,6
 51 551 51 551 41.5 559.5 c 128,-1,7
 32 568 32 568 33 582 c 0,8,9
 36 618 36 618 74 618 c 2,10,-1
 156 618 l 1,11,-1
 128 587 l 1,12,-1
 140 667 l 2,13,14
 144 692 144 692 157.5 702 c 128,-1,15
 171 712 171 712 193 712 c 256,16,17
 215 712 215 712 225 700 c 128,-1,18
 235 688 235 688 230 661 c 2,19,-1
 218 581 l 1,20,-1
 205 618 l 1,21,-1
 376 618 l 2,22,23
 396 618 396 618 405.5 610 c 128,-1,24
 415 602 415 602 413 587 c 0,25,26
 410 551 410 551 372 551 c 2,27,-1
 213 551 l 1,28,-1
 186 379 l 1,29,-1
 175 379 l 1,30,31
 200 435 200 435 247.5 465.5 c 128,-1,32
 295 496 295 496 361 496 c 0,33,34
 415 496 415 496 452 474.5 c 128,-1,35
 489 453 489 453 504.5 408 c 128,-1,36
 520 363 520 363 509 294 c 2,37,-1
 469 39 l 2,38,39
 466 16 466 16 452.5 4.5 c 128,-1,40
 439 -7 439 -7 416 -7 c 0,41,42
 395 -7 395 -7 385 7 c 128,-1,43
 375 21 375 21 378 46 c 2,44,-1
 418 294 l 2,45,46
 428 359 428 359 407 390.5 c 128,-1,47
 386 422 386 422 331 422 c 0,48,49
 262 422 262 422 220.5 379 c 128,-1,50
 179 336 179 336 168 263 c 2,51,-1
 132 39 l 2,52,53
 126 -7 126 -7 79 -7 c 0,0,1
EndSplineSet
EndChar

StartChar: i
Encoding: 105 105 329
Width: 237
GlyphClass: 2
Flags: W
AnchorPoint: "Anchor-3" 110 0 basechar 0
AnchorPoint: "Anchor-2" 80 0 basechar 0
LayerCount: 2
Fore
SplineSet
79 -7 m 0,0,1
 58 -7 58 -7 48 7 c 128,-1,2
 38 21 38 21 42 46 c 2,3,-1
 106 449 l 2,4,5
 109 472 109 472 122.5 483 c 128,-1,6
 136 494 136 494 158 494 c 0,7,8
 179 494 179 494 189 480 c 128,-1,9
 199 466 199 466 195 441 c 2,10,-1
 131 38 l 2,11,12
 128 16 128 16 115 4.5 c 128,-1,13
 102 -7 102 -7 79 -7 c 0,0,1
176 600 m 0,14,15
 151 600 151 600 138 613 c 128,-1,16
 125 626 125 626 126 649 c 0,17,18
 129 677 129 677 146.5 691.5 c 128,-1,19
 164 706 164 706 193 706 c 0,20,21
 219 706 219 706 232.5 693.5 c 128,-1,22
 246 681 246 681 243 658 c 0,23,24
 241 630 241 630 224 615 c 128,-1,25
 207 600 207 600 176 600 c 0,14,15
EndSplineSet
Substitution2: "'locl' Localized Forms in Latin lookup 10 subtable" i.loclTRK
Substitution2: "Single Substitution lookup 4 subtable" dotlessi
Substitution2: "Single Substitution lookup 3 subtable" dotlessi
Substitution2: "'aalt' Access All Alternates lookup 0 subtable" i.loclTRK
EndChar

StartChar: dotlessi
Encoding: 305 305 330
Width: 237
GlyphClass: 2
Flags: W
AnchorPoint: "Anchor-3" 110 0 basechar 0
AnchorPoint: "Anchor-2" 80 0 basechar 0
AnchorPoint: "Anchor-0" 158 484 basechar 0
LayerCount: 2
Fore
SplineSet
79 -7 m 0,0,1
 58 -7 58 -7 48 7 c 128,-1,2
 38 21 38 21 42 46 c 2,3,-1
 106 449 l 2,4,5
 109 472 109 472 122.5 483 c 128,-1,6
 136 494 136 494 158 494 c 0,7,8
 179 494 179 494 189 480 c 128,-1,9
 199 466 199 466 195 441 c 2,10,-1
 131 38 l 2,11,12
 128 16 128 16 115 4.5 c 128,-1,13
 102 -7 102 -7 79 -7 c 0,0,1
EndSplineSet
EndChar

StartChar: iogonek
Encoding: 303 303 343
Width: 237
GlyphClass: 1
Flags: W
LayerCount: 2
Fore
SplineSet
75 -193 m 0,0,1
 25 -193 25 -193 0 -167.5 c 128,-1,2
 -25 -142 -25 -142 -25 -103 c 0,3,4
 -25 -60 -25 -60 -2 -28.5 c 128,-1,5
 21 3 21 3 55 23 c 1,6,-1
 48 5 l 1,7,8
 44 13 44 13 42 23.5 c 128,-1,9
 40 34 40 34 42 46 c 2,10,-1
 106 449 l 2,11,12
 109 472 109 472 122.5 483 c 128,-1,13
 136 494 136 494 158 494 c 0,14,15
 179 494 179 494 189 480 c 128,-1,16
 199 466 199 466 195 441 c 2,17,-1
 131 38 l 2,18,19
 129 23 129 23 122 12.5 c 128,-1,20
 115 2 115 2 101 -4 c 0,21,22
 71 -19 71 -19 54.5 -40.5 c 128,-1,23
 38 -62 38 -62 38 -88 c 0,24,25
 38 -111 38 -111 52 -125 c 128,-1,26
 66 -139 66 -139 91 -139 c 0,27,28
 99 -139 99 -139 107.5 -137.5 c 128,-1,29
 116 -136 116 -136 127 -133 c 0,30,31
 140 -129 140 -129 147 -134.5 c 128,-1,32
 154 -140 154 -140 155.5 -150 c 128,-1,33
 157 -160 157 -160 153 -169.5 c 128,-1,34
 149 -179 149 -179 139 -182 c 0,35,36
 125 -187 125 -187 107.5 -190 c 128,-1,37
 90 -193 90 -193 75 -193 c 0,0,1
176 600 m 0,38,39
 151 600 151 600 138 613 c 128,-1,40
 125 626 125 626 126 649 c 0,41,42
 129 677 129 677 146.5 691.5 c 128,-1,43
 164 706 164 706 193 706 c 0,44,45
 219 706 219 706 232.5 693.5 c 128,-1,46
 246 681 246 681 243 658 c 0,47,48
 241 630 241 630 224 615 c 128,-1,49
 207 600 207 600 176 600 c 0,38,39
EndSplineSet
EndChar

StartChar: j
Encoding: 106 106 345
Width: 241
GlyphClass: 1
Flags: W
LayerCount: 2
Fore
SplineSet
-79 -191 m 0,0,1
 -94 -192 -94 -192 -103.5 -185 c 128,-1,2
 -113 -178 -113 -178 -115.5 -167.5 c 128,-1,3
 -118 -157 -118 -157 -115.5 -146.5 c 128,-1,4
 -113 -136 -113 -136 -105 -128.5 c 128,-1,5
 -97 -121 -97 -121 -83 -121 c 0,6,7
 -34 -119 -34 -119 -3.5 -94 c 128,-1,8
 27 -69 27 -69 36 -13 c 2,9,-1
 109 449 l 2,10,11
 113 472 113 472 126 483 c 128,-1,12
 139 494 139 494 161 494 c 0,13,14
 182 494 182 494 192 480 c 128,-1,15
 202 466 202 466 199 441 c 2,16,-1
 128 -7 l 2,17,18
 118 -69 118 -69 93 -109 c 128,-1,19
 68 -149 68 -149 26 -169 c 128,-1,20
 -16 -189 -16 -189 -79 -191 c 0,0,1
178 600 m 0,21,22
 152 600 152 600 139 613 c 128,-1,23
 126 626 126 626 128 649 c 0,24,25
 130 677 130 677 147.5 691.5 c 128,-1,26
 165 706 165 706 195 706 c 0,27,28
 220 706 220 706 233.5 693.5 c 128,-1,29
 247 681 247 681 245 658 c 0,30,31
 242 630 242 630 225 615 c 128,-1,32
 208 600 208 600 178 600 c 0,21,22
EndSplineSet
Substitution2: "Single Substitution lookup 4 subtable" uni0237
Substitution2: "Single Substitution lookup 3 subtable" uni0237
EndChar

StartChar: uni0237
Encoding: 567 567 346
Width: 241
GlyphClass: 2
Flags: W
AnchorPoint: "Anchor-2" 83 0 basechar 0
AnchorPoint: "Anchor-0" 159 484 basechar 0
LayerCount: 2
Fore
SplineSet
-79 -191 m 0,0,1
 -94 -192 -94 -192 -103.5 -185 c 128,-1,2
 -113 -178 -113 -178 -115.5 -167.5 c 128,-1,3
 -118 -157 -118 -157 -115.5 -146.5 c 128,-1,4
 -113 -136 -113 -136 -105 -128.5 c 128,-1,5
 -97 -121 -97 -121 -83 -121 c 0,6,7
 -34 -119 -34 -119 -3.5 -94 c 128,-1,8
 27 -69 27 -69 36 -13 c 2,9,-1
 109 449 l 2,10,11
 113 472 113 472 126 483 c 128,-1,12
 139 494 139 494 161 494 c 0,13,14
 182 494 182 494 192 480 c 128,-1,15
 202 466 202 466 199 441 c 2,16,-1
 128 -7 l 2,17,18
 118 -69 118 -69 93 -109 c 128,-1,19
 68 -149 68 -149 26 -169 c 128,-1,20
 -16 -189 -16 -189 -79 -191 c 0,0,1
EndSplineSet
EndChar

StartChar: k
Encoding: 107 107 348
Width: 508
GlyphClass: 2
Flags: W
AnchorPoint: "Anchor-2" 224 0 basechar 0
AnchorPoint: "Anchor-0" 359 705 basechar 0
LayerCount: 2
Fore
SplineSet
79 -7 m 0,0,1
 58 -7 58 -7 48.5 7 c 128,-1,2
 39 21 39 21 42 46 c 2,3,-1
 141 668 l 2,4,5
 144 691 144 691 157.5 701.5 c 128,-1,6
 171 712 171 712 193 712 c 0,7,8
 214 712 214 712 224 698 c 128,-1,9
 234 684 234 684 230 658 c 2,10,-1
 169 272 l 1,11,-1
 171 272 l 1,12,-1
 400 468 l 2,13,14
 415 481 415 481 426.5 487.5 c 128,-1,15
 438 494 438 494 454 494 c 0,16,17
 472 494 472 494 480.5 483.5 c 128,-1,18
 489 473 489 473 487 458 c 128,-1,19
 485 443 485 443 470 429 c 2,20,-1
 235 226 l 1,21,-1
 237 273 l 1,22,-1
 432 58 l 2,23,24
 444 44 444 44 443.5 28.5 c 128,-1,25
 443 13 443 13 432.5 3 c 128,-1,26
 422 -7 422 -7 405 -7 c 0,27,28
 386 -7 386 -7 375 1 c 128,-1,29
 364 9 364 9 348 27 c 2,30,-1
 164 229 l 1,31,-1
 162 229 l 1,32,-1
 132 37 l 2,33,34
 125 -7 125 -7 79 -7 c 0,0,1
EndSplineSet
EndChar

StartChar: kgreenlandic
Encoding: 312 312 351
Width: 508
GlyphClass: 2
Flags: W
AnchorPoint: "Anchor-2" 215 0 basechar 0
AnchorPoint: "Anchor-0" 292 484 basechar 0
LayerCount: 2
Fore
SplineSet
82 -7 m 0,0,1
 58 -7 58 -7 48.5 7 c 128,-1,2
 39 21 39 21 42 46 c 2,3,-1
 106 450 l 2,4,5
 110 472 110 472 123 483 c 128,-1,6
 136 494 136 494 157 494 c 0,7,8
 180 494 180 494 189.5 480 c 128,-1,9
 199 466 199 466 196 440 c 2,10,-1
 169 272 l 1,11,-1
 171 272 l 1,12,-1
 400 468 l 2,13,14
 412 478 412 478 423.5 486 c 128,-1,15
 435 494 435 494 452 494 c 0,16,17
 471 494 471 494 480.5 483.5 c 128,-1,18
 490 473 490 473 488 458 c 128,-1,19
 486 443 486 443 470 429 c 2,20,-1
 235 226 l 1,21,-1
 237 273 l 1,22,-1
 432 58 l 2,23,24
 445 43 445 43 444.5 28 c 128,-1,25
 444 13 444 13 433 3 c 128,-1,26
 422 -7 422 -7 402 -7 c 0,27,28
 386 -7 386 -7 375 1 c 128,-1,29
 364 9 364 9 348 27 c 2,30,-1
 164 229 l 1,31,-1
 162 229 l 1,32,-1
 132 37 l 2,33,34
 128 14 128 14 115 3.5 c 128,-1,35
 102 -7 102 -7 82 -7 c 0,0,1
EndSplineSet
EndChar

StartChar: l
Encoding: 108 108 352
Width: 301
GlyphClass: 2
Flags: W
AnchorPoint: "Anchor-5" 144 357 basechar 0
AnchorPoint: "Anchor-2" 151 0 basechar 0
AnchorPoint: "Anchor-1" 281 705 basechar 0
AnchorPoint: "Anchor-0" 192 705 basechar 0
LayerCount: 2
Fore
SplineSet
189 -9 m 0,0,1
 114 -9 114 -9 80.5 34.5 c 128,-1,2
 47 78 47 78 60 162 c 2,3,-1
 141 667 l 2,4,5
 144 690 144 690 157.5 701 c 128,-1,6
 171 712 171 712 193 712 c 0,7,8
 214 712 214 712 224 698 c 128,-1,9
 234 684 234 684 230 659 c 2,10,-1
 151 163 l 2,11,12
 143 112 143 112 159 89.5 c 128,-1,13
 175 67 175 67 214 67 c 0,14,15
 227 67 227 67 234.5 68.5 c 128,-1,16
 242 70 242 70 247 70 c 0,17,18
 255 70 255 70 260 65 c 128,-1,19
 265 60 265 60 265 44 c 0,20,21
 265 23 265 23 255 11 c 128,-1,22
 245 -1 245 -1 231 -4 c 0,23,24
 223 -7 223 -7 210.5 -8 c 128,-1,25
 198 -9 198 -9 189 -9 c 0,0,1
EndSplineSet
Substitution2: "'ss02' Style Set 2 lookup 36 subtable" l.ss02
Substitution2: "'aalt' Access All Alternates lookup 0 subtable" l.ss02
EndChar

StartChar: m
Encoding: 109 109 361
Width: 861
GlyphClass: 2
Flags: W
AnchorPoint: "Anchor-2" 393 0 basechar 0
AnchorPoint: "Anchor-0" 469 484 basechar 0
LayerCount: 2
Fore
SplineSet
81 -7 m 0,0,1
 60 -7 60 -7 50 6.5 c 128,-1,2
 40 20 40 20 44 45 c 2,3,-1
 108 450 l 2,4,5
 112 472 112 472 125 483 c 128,-1,6
 138 494 138 494 159 494 c 256,7,8
 180 494 180 494 189.5 480.5 c 128,-1,9
 199 467 199 467 195 443 c 2,10,-1
 183 362 l 1,11,-1
 175 378 l 1,12,13
 202 436 202 436 247.5 466 c 128,-1,14
 293 496 293 496 348 496 c 0,15,16
 405 496 405 496 441.5 465 c 128,-1,17
 478 434 478 434 487 374 c 1,18,-1
 475 378 l 1,19,20
 500 434 500 434 546.5 465 c 128,-1,21
 593 496 593 496 656 496 c 0,22,23
 708 496 708 496 743 474.5 c 128,-1,24
 778 453 778 453 792 408 c 128,-1,25
 806 363 806 363 795 293 c 2,26,-1
 755 37 l 2,27,28
 752 16 752 16 739 4.5 c 128,-1,29
 726 -7 726 -7 704 -7 c 0,30,31
 681 -7 681 -7 671.5 6.5 c 128,-1,32
 662 20 662 20 665 45 c 2,33,-1
 704 297 l 2,34,35
 714 360 714 360 695 391 c 128,-1,36
 676 422 676 422 627 422 c 0,37,38
 569 422 569 422 530.5 380 c 128,-1,39
 492 338 492 338 480 263 c 2,40,-1
 445 37 l 2,41,42
 442 16 442 16 428.5 4.5 c 128,-1,43
 415 -7 415 -7 392 -7 c 0,44,45
 371 -7 371 -7 360.5 6.5 c 128,-1,46
 350 20 350 20 354 45 c 2,47,-1
 394 297 l 2,48,49
 404 360 404 360 385 391 c 128,-1,50
 366 422 366 422 317 422 c 0,51,52
 259 422 259 422 220.5 380 c 128,-1,53
 182 338 182 338 170 263 c 2,54,-1
 134 37 l 2,55,56
 128 -7 128 -7 81 -7 c 0,0,1
EndSplineSet
EndChar

StartChar: n
Encoding: 110 110 363
Width: 572
GlyphClass: 2
Flags: W
AnchorPoint: "Anchor-2" 252 0 basechar 0
AnchorPoint: "Anchor-0" 323 484 basechar 0
LayerCount: 2
Fore
SplineSet
80 -7 m 0,0,1
 59 -7 59 -7 49 8 c 128,-1,2
 39 23 39 23 43 48 c 2,3,-1
 106 449 l 2,4,5
 110 472 110 472 123.5 483 c 128,-1,6
 137 494 137 494 158 494 c 256,7,8
 179 494 179 494 188.5 481.5 c 128,-1,9
 198 469 198 469 194 444 c 2,10,-1
 181 365 l 1,11,-1
 175 379 l 1,12,13
 200 435 200 435 247.5 465.5 c 128,-1,14
 295 496 295 496 362 496 c 0,15,16
 416 496 416 496 452.5 474.5 c 128,-1,17
 489 453 489 453 504.5 408 c 128,-1,18
 520 363 520 363 509 294 c 2,19,-1
 468 38 l 2,20,21
 466 16 466 16 452.5 4.5 c 128,-1,22
 439 -7 439 -7 416 -7 c 0,23,24
 395 -7 395 -7 385 7.5 c 128,-1,25
 375 22 375 22 378 47 c 2,26,-1
 418 293 l 2,27,28
 428 358 428 358 407 390 c 128,-1,29
 386 422 386 422 332 422 c 0,30,31
 262 422 262 422 220.5 379 c 128,-1,32
 179 336 179 336 168 263 c 2,33,-1
 132 39 l 2,34,35
 126 -7 126 -7 80 -7 c 0,0,1
EndSplineSet
EndChar

StartChar: eng
Encoding: 331 331 373
Width: 572
GlyphClass: 1
Flags: W
LayerCount: 2
Fore
SplineSet
255 -190 m 0,0,1
 240 -191 240 -191 230.5 -184.5 c 128,-1,2
 221 -178 221 -178 218 -168 c 128,-1,3
 215 -158 215 -158 217.5 -147.5 c 128,-1,4
 220 -137 220 -137 228 -129.5 c 128,-1,5
 236 -122 236 -122 250 -121 c 0,6,7
 299 -118 299 -118 329.5 -93.5 c 128,-1,8
 360 -69 360 -69 369 -13 c 2,9,-1
 418 293 l 2,10,11
 428 358 428 358 407 390 c 128,-1,12
 386 422 386 422 332 422 c 0,13,14
 262 422 262 422 220.5 379 c 128,-1,15
 179 336 179 336 168 263 c 2,16,-1
 132 39 l 2,17,18
 126 -7 126 -7 80 -7 c 0,19,20
 59 -7 59 -7 49 7.5 c 128,-1,21
 39 22 39 22 43 47 c 2,22,-1
 106 449 l 2,23,24
 110 472 110 472 123.5 483 c 128,-1,25
 137 494 137 494 158 494 c 256,26,27
 179 494 179 494 188.5 481.5 c 128,-1,28
 198 469 198 469 194 444 c 2,29,-1
 181 365 l 1,30,-1
 175 379 l 1,31,32
 200 435 200 435 247.5 465.5 c 128,-1,33
 295 496 295 496 362 496 c 0,34,35
 416 496 416 496 452.5 474.5 c 128,-1,36
 489 453 489 453 504.5 408 c 128,-1,37
 520 363 520 363 509 294 c 2,38,-1
 461 -7 l 2,39,40
 451 -69 451 -69 425.5 -109 c 128,-1,41
 400 -149 400 -149 358 -168.5 c 128,-1,42
 316 -188 316 -188 255 -190 c 0,0,1
EndSplineSet
EndChar

StartChar: o
Encoding: 111 111 374
Width: 560
GlyphClass: 2
Flags: W
AnchorPoint: "Anchor-5" 281 244 basechar 0
AnchorPoint: "Anchor-3" 313 0 basechar 0
AnchorPoint: "Anchor-2" 251 0 basechar 0
AnchorPoint: "Anchor-1" 368 484 basechar 0
AnchorPoint: "Anchor-0" 321 484 basechar 0
LayerCount: 2
Fore
SplineSet
258 -9 m 0,0,1
 191 -9 191 -9 142.5 17 c 128,-1,2
 94 43 94 43 68.5 91.5 c 128,-1,3
 43 140 43 140 43 206 c 0,4,5
 43 269 43 269 61.5 322 c 128,-1,6
 80 375 80 375 115 414 c 128,-1,7
 150 453 150 453 197.5 474.5 c 128,-1,8
 245 496 245 496 302 496 c 0,9,10
 370 496 370 496 418 470 c 128,-1,11
 466 444 466 444 492 395.5 c 128,-1,12
 518 347 518 347 518 280 c 0,13,14
 518 218 518 218 499 165 c 128,-1,15
 480 112 480 112 445.5 73 c 128,-1,16
 411 34 411 34 363.5 12.5 c 128,-1,17
 316 -9 316 -9 258 -9 c 0,0,1
261 63 m 0,18,19
 314 63 314 63 350.5 92.5 c 128,-1,20
 387 122 387 122 406.5 172.5 c 128,-1,21
 426 223 426 223 426 284 c 0,22,23
 426 352 426 352 392.5 388 c 128,-1,24
 359 424 359 424 300 424 c 0,25,26
 247 424 247 424 210 394.5 c 128,-1,27
 173 365 173 365 154 315 c 128,-1,28
 135 265 135 265 135 203 c 0,29,30
 135 135 135 135 168.5 99 c 128,-1,31
 202 63 202 63 261 63 c 0,18,19
EndSplineSet
Substitution2: "Single Substitution lookup 29 subtable" ordmasculine
Substitution2: "'aalt' Access All Alternates lookup 0 subtable" ordmasculine
EndChar

StartChar: oslash
Encoding: 248 248 402
Width: 560
GlyphClass: 2
Flags: W
AnchorPoint: "Anchor-5" 281 244 basechar 0
AnchorPoint: "Anchor-0" 321 484 basechar 0
LayerCount: 2
Fore
SplineSet
259 -9 m 0,0,1
 192 -9 192 -9 143.5 17.5 c 128,-1,2
 95 44 95 44 69 92.5 c 128,-1,3
 43 141 43 141 43 207 c 0,4,5
 43 270 43 270 62 322.5 c 128,-1,6
 81 375 81 375 115.5 414 c 128,-1,7
 150 453 150 453 197.5 474.5 c 128,-1,8
 245 496 245 496 303 496 c 0,9,10
 370 496 370 496 418.5 470 c 128,-1,11
 467 444 467 444 492.5 395.5 c 128,-1,12
 518 347 518 347 518 280 c 0,13,14
 518 218 518 218 499.5 165 c 128,-1,15
 481 112 481 112 446 73 c 128,-1,16
 411 34 411 34 363.5 12.5 c 128,-1,17
 316 -9 316 -9 259 -9 c 0,0,1
262 59 m 0,18,19
 317 59 317 59 355 89 c 128,-1,20
 393 119 393 119 413 170 c 128,-1,21
 433 221 433 221 433 285 c 0,22,23
 433 355 433 355 398 391.5 c 128,-1,24
 363 428 363 428 299 428 c 0,25,26
 245 428 245 428 206.5 398.5 c 128,-1,27
 168 369 168 369 148 318 c 128,-1,28
 128 267 128 267 128 203 c 0,29,30
 128 132 128 132 163.5 95.5 c 128,-1,31
 199 59 199 59 262 59 c 0,18,19
119 -25 m 2,32,33
 111 -36 111 -36 99.5 -37 c 128,-1,34
 88 -38 88 -38 79.5 -31.5 c 128,-1,35
 71 -25 71 -25 68.5 -13.5 c 128,-1,36
 66 -2 66 -2 75 10 c 2,37,-1
 443 511 l 2,38,39
 452 523 452 523 463 523.5 c 128,-1,40
 474 524 474 524 482.5 517.5 c 128,-1,41
 491 511 491 511 493.5 499.5 c 128,-1,42
 496 488 496 488 487 476 c 2,43,-1
 119 -25 l 2,32,33
EndSplineSet
EndChar

StartChar: oe
Encoding: 339 339 408
Width: 911
GlyphClass: 2
Flags: W
AnchorPoint: "Anchor-2" 430 0 basechar 0
AnchorPoint: "Anchor-0" 508 484 basechar 0
LayerCount: 2
Fore
SplineSet
258 -9 m 0,0,1
 191 -9 191 -9 142.5 17.5 c 128,-1,2
 94 44 94 44 68.5 92.5 c 128,-1,3
 43 141 43 141 43 207 c 0,4,5
 43 270 43 270 61.5 322.5 c 128,-1,6
 80 375 80 375 115 414 c 128,-1,7
 150 453 150 453 197.5 474.5 c 128,-1,8
 245 496 245 496 302 496 c 0,9,10
 377 496 377 496 426.5 459 c 128,-1,11
 476 422 476 422 493 356 c 1,12,-1
 465 356 l 1,13,14
 495 417 495 417 550.5 456.5 c 128,-1,15
 606 496 606 496 682 496 c 0,16,17
 760 496 760 496 804.5 461.5 c 128,-1,18
 849 427 849 427 865.5 371.5 c 128,-1,19
 882 316 882 316 873 253 c 0,20,21
 870 235 870 235 863 229 c 128,-1,22
 856 223 856 223 841 223 c 2,23,-1
 493 223 l 1,24,-1
 502 281 l 1,25,-1
 816 281 l 1,26,-1
 798 267 l 1,27,28
 805 313 805 313 795.5 349.5 c 128,-1,29
 786 386 786 386 758.5 408 c 128,-1,30
 731 430 731 430 682 430 c 0,31,32
 631 430 631 430 597 407 c 128,-1,33
 563 384 563 384 544.5 347.5 c 128,-1,34
 526 311 526 311 519 271 c 2,35,-1
 515 245 l 2,36,37
 501 162 501 162 539 112.5 c 128,-1,38
 577 63 577 63 656 63 c 0,39,40
 690 63 690 63 722 71 c 128,-1,41
 754 79 754 79 785 98 c 0,42,43
 800 107 800 107 811.5 106 c 128,-1,44
 823 105 823 105 830.5 98.5 c 128,-1,45
 838 92 838 92 839.5 81.5 c 128,-1,46
 841 71 841 71 835.5 59.5 c 128,-1,47
 830 48 830 48 818 39 c 0,48,49
 783 15 783 15 737.5 3 c 128,-1,50
 692 -9 692 -9 651 -9 c 0,51,52
 571 -9 571 -9 517 28 c 128,-1,53
 463 65 463 65 444 132 c 1,54,-1
 475 132 l 1,55,56
 445 69 445 69 389.5 30 c 128,-1,57
 334 -9 334 -9 258 -9 c 0,0,1
261 63 m 0,58,59
 314 63 314 63 350.5 93 c 128,-1,60
 387 123 387 123 406.5 173 c 128,-1,61
 426 223 426 223 426 284 c 0,62,63
 426 352 426 352 392.5 388 c 128,-1,64
 359 424 359 424 300 424 c 0,65,66
 247 424 247 424 210 394.5 c 128,-1,67
 173 365 173 365 154 315 c 128,-1,68
 135 265 135 265 135 203 c 0,69,70
 135 135 135 135 168.5 99 c 128,-1,71
 202 63 202 63 261 63 c 0,58,59
EndSplineSet
EndChar

StartChar: p
Encoding: 112 112 409
Width: 587
GlyphClass: 2
Flags: W
AnchorPoint: "Anchor-2" 253 0 basechar 0
AnchorPoint: "Anchor-0" 330 484 basechar 0
LayerCount: 2
Fore
SplineSet
51 -187 m 0,0,1
 30 -187 30 -187 20 -173 c 128,-1,2
 10 -159 10 -159 13 -134 c 2,3,-1
 106 448 l 2,4,5
 109 471 109 471 122.5 482.5 c 128,-1,6
 136 494 136 494 158 494 c 0,7,8
 179 494 179 494 188.5 480 c 128,-1,9
 198 466 198 466 194 441 c 2,10,-1
 182 369 l 1,11,-1
 177 387 l 1,12,13
 204 439 204 439 250.5 467.5 c 128,-1,14
 297 496 297 496 358 496 c 0,15,16
 414 496 414 496 456 471 c 128,-1,17
 498 446 498 446 521.5 399 c 128,-1,18
 545 352 545 352 545 287 c 0,19,20
 545 206 545 206 516 139 c 128,-1,21
 487 72 487 72 432.5 31.5 c 128,-1,22
 378 -9 378 -9 300 -9 c 0,23,24
 242 -9 242 -9 197 20 c 128,-1,25
 152 49 152 49 135 107 c 1,26,-1
 143 107 l 1,27,-1
 103 -144 l 2,28,29
 99 -166 99 -166 86.5 -176.5 c 128,-1,30
 74 -187 74 -187 51 -187 c 0,0,1
288 63 m 0,31,32
 341 63 341 63 377.5 92.5 c 128,-1,33
 414 122 414 122 433.5 172.5 c 128,-1,34
 453 223 453 223 453 284 c 0,35,36
 453 352 453 352 419.5 388 c 128,-1,37
 386 424 386 424 327 424 c 0,38,39
 274 424 274 424 237 394.5 c 128,-1,40
 200 365 200 365 181 315 c 128,-1,41
 162 265 162 265 162 203 c 0,42,43
 162 135 162 135 195.5 99 c 128,-1,44
 229 63 229 63 288 63 c 0,31,32
EndSplineSet
EndChar

StartChar: thorn
Encoding: 254 254 410
Width: 587
GlyphClass: 2
Flags: W
AnchorPoint: "Anchor-2" 254 0 basechar 0
AnchorPoint: "Anchor-0" 331 484 basechar 0
LayerCount: 2
Fore
SplineSet
51 -187 m 0,0,1
 30 -187 30 -187 20 -173 c 128,-1,2
 10 -159 10 -159 13 -134 c 2,3,-1
 140 666 l 2,4,5
 144 689 144 689 157 700.5 c 128,-1,6
 170 712 170 712 192 712 c 256,7,8
 214 712 214 712 224 699 c 128,-1,9
 234 686 234 686 230 661 c 2,10,-1
 184 369 l 1,11,-1
 177 387 l 1,12,13
 204 439 204 439 250.5 467.5 c 128,-1,14
 297 496 297 496 358 496 c 0,15,16
 414 496 414 496 456 471 c 128,-1,17
 498 446 498 446 521.5 399 c 128,-1,18
 545 352 545 352 545 287 c 0,19,20
 545 206 545 206 516 139 c 128,-1,21
 487 72 487 72 432.5 31.5 c 128,-1,22
 378 -9 378 -9 300 -9 c 0,23,24
 242 -9 242 -9 197 20 c 128,-1,25
 152 49 152 49 135 107 c 1,26,-1
 143 107 l 1,27,-1
 103 -144 l 2,28,29
 99 -166 99 -166 86.5 -176.5 c 128,-1,30
 74 -187 74 -187 51 -187 c 0,0,1
288 63 m 0,31,32
 341 63 341 63 377.5 92.5 c 128,-1,33
 414 122 414 122 433.5 172.5 c 128,-1,34
 453 223 453 223 453 284 c 0,35,36
 453 352 453 352 419.5 388 c 128,-1,37
 386 424 386 424 327 424 c 0,38,39
 274 424 274 424 237 394.5 c 128,-1,40
 200 365 200 365 181 315 c 128,-1,41
 162 265 162 265 162 203 c 0,42,43
 162 135 162 135 195.5 99 c 128,-1,44
 229 63 229 63 288 63 c 0,31,32
EndSplineSet
EndChar

StartChar: q
Encoding: 113 113 411
Width: 587
GlyphClass: 2
Flags: W
AnchorPoint: "Anchor-2" 255 0 basechar 0
AnchorPoint: "Anchor-0" 332 484 basechar 0
LayerCount: 2
Fore
SplineSet
400 -187 m 0,0,1
 379 -187 379 -187 369 -173 c 128,-1,2
 359 -159 359 -159 363 -134 c 2,3,-1
 400 101 l 1,4,-1
 410 101 l 1,5,6
 384 50 384 50 337.5 20.5 c 128,-1,7
 291 -9 291 -9 229 -9 c 0,8,9
 173 -9 173 -9 131 16.5 c 128,-1,10
 89 42 89 42 65.5 89 c 128,-1,11
 42 136 42 136 42 200 c 0,12,13
 42 281 42 281 71 348.5 c 128,-1,14
 100 416 100 416 155 456 c 128,-1,15
 210 496 210 496 288 496 c 0,16,17
 345 496 345 496 390 467 c 128,-1,18
 435 438 435 438 452 380 c 1,19,-1
 444 365 l 1,20,-1
 458 450 l 2,21,22
 461 472 461 472 473 483 c 128,-1,23
 485 494 485 494 507 494 c 256,24,25
 529 494 529 494 539 480 c 128,-1,26
 549 466 549 466 545 441 c 2,27,-1
 453 -141 l 2,28,29
 449 -164 449 -164 436 -175.5 c 128,-1,30
 423 -187 423 -187 400 -187 c 0,0,1
260 63 m 0,31,32
 313 63 313 63 350 93 c 128,-1,33
 387 123 387 123 406 173 c 128,-1,34
 425 223 425 223 425 284 c 0,35,36
 425 352 425 352 391.5 388 c 128,-1,37
 358 424 358 424 299 424 c 0,38,39
 246 424 246 424 209.5 394.5 c 128,-1,40
 173 365 173 365 153.5 315 c 128,-1,41
 134 265 134 265 134 203 c 0,42,43
 134 135 134 135 167.5 99 c 128,-1,44
 201 63 201 63 260 63 c 0,31,32
EndSplineSet
EndChar

StartChar: r
Encoding: 114 114 412
Width: 365
GlyphClass: 2
Flags: W
AnchorPoint: "Anchor-2" 81 0 basechar 0
AnchorPoint: "Anchor-0" 254 486 basechar 0
LayerCount: 2
Fore
SplineSet
80 -7 m 0,0,1
 58 -7 58 -7 48 6.5 c 128,-1,2
 38 20 38 20 42 45 c 2,3,-1
 106 450 l 2,4,5
 110 472 110 472 123 483 c 128,-1,6
 136 494 136 494 157 494 c 256,7,8
 178 494 178 494 188 481 c 128,-1,9
 198 468 198 468 194 443 c 2,10,-1
 183 371 l 1,11,-1
 172 371 l 1,12,13
 193 430 193 430 241.5 462.5 c 128,-1,14
 290 495 290 495 352 497 c 0,15,16
 376 498 376 498 384 490.5 c 128,-1,17
 392 483 392 483 392 466 c 0,18,19
 392 442 392 442 381.5 431 c 128,-1,20
 371 420 371 420 346 418 c 2,21,-1
 324 415 l 2,22,23
 247 408 247 408 213.5 369 c 128,-1,24
 180 330 180 330 169 265 c 2,25,-1
 133 37 l 2,26,27
 130 15 130 15 116.5 4 c 128,-1,28
 103 -7 103 -7 80 -7 c 0,0,1
EndSplineSet
EndChar

StartChar: s
Encoding: 115 115 420
Width: 483
GlyphClass: 2
Flags: W
AnchorPoint: "Anchor-2" 213 0 basechar 0
AnchorPoint: "Anchor-0" 273 484 basechar 0
LayerCount: 2
Fore
SplineSet
224 -9 m 0,0,1
 176 -9 176 -9 132 2 c 128,-1,2
 88 13 88 13 57 31 c 0,3,4
 43 39 43 39 37.5 50 c 128,-1,5
 32 61 32 61 33.5 72 c 128,-1,6
 35 83 35 83 42 91 c 128,-1,7
 49 99 49 99 60.5 100.5 c 128,-1,8
 72 102 72 102 86 94 c 0,9,10
 118 76 118 76 153 67.5 c 128,-1,11
 188 59 188 59 225 59 c 0,12,13
 277 59 277 59 306.5 79.5 c 128,-1,14
 336 100 336 100 336 136 c 0,15,16
 336 160 336 160 319.5 176 c 128,-1,17
 303 192 303 192 273 199 c 2,18,-1
 179 221 l 2,19,20
 128 232 128 232 99 264 c 128,-1,21
 70 296 70 296 70 342 c 0,22,23
 70 386 70 386 94.5 420.5 c 128,-1,24
 119 455 119 455 165 475.5 c 128,-1,25
 211 496 211 496 274 496 c 0,26,27
 313 496 313 496 354 484.5 c 128,-1,28
 395 473 395 473 423 453 c 0,29,30
 436 445 436 445 441 433.5 c 128,-1,31
 446 422 446 422 443.5 411.5 c 128,-1,32
 441 401 441 401 434 394 c 128,-1,33
 427 387 427 387 415.5 386 c 128,-1,34
 404 385 404 385 390 394 c 0,35,36
 365 411 365 411 334 419.5 c 128,-1,37
 303 428 303 428 270 428 c 0,38,39
 216 428 216 428 185.5 406 c 128,-1,40
 155 384 155 384 155 347 c 0,41,42
 155 324 155 324 168.5 308 c 128,-1,43
 182 292 182 292 212 285 c 2,44,-1
 306 263 l 2,45,46
 361 250 361 250 390.5 220 c 128,-1,47
 420 190 420 190 420 143 c 0,48,49
 420 71 420 71 366 31 c 128,-1,50
 312 -9 312 -9 224 -9 c 0,0,1
EndSplineSet
EndChar

StartChar: germandbls
Encoding: 223 223 431
Width: 624
GlyphClass: 1
Flags: W
LayerCount: 2
Fore
SplineSet
385 -9 m 0,0,1
 339 -9 339 -9 295 3 c 128,-1,2
 251 15 251 15 220 35 c 0,3,4
 207 44 207 44 203 55 c 128,-1,5
 199 66 199 66 201 77.5 c 128,-1,6
 203 89 203 89 210 97 c 128,-1,7
 217 105 217 105 228.5 106.5 c 128,-1,8
 240 108 240 108 253 99 c 0,9,10
 282 81 282 81 315.5 71.5 c 128,-1,11
 349 62 349 62 385 62 c 0,12,13
 436 62 436 62 464.5 81 c 128,-1,14
 493 100 493 100 493 137 c 0,15,16
 493 161 493 161 474 181 c 128,-1,17
 455 201 455 201 401 219 c 0,18,19
 334 242 334 242 307 271 c 128,-1,20
 280 300 280 300 280 343 c 0,21,22
 280 370 280 370 289 391.5 c 128,-1,23
 298 413 298 413 319.5 434.5 c 128,-1,24
 341 456 341 456 377 484 c 0,25,26
 407 507 407 507 424.5 528.5 c 128,-1,27
 442 550 442 550 442 581 c 0,28,29
 442 607 442 607 423.5 625.5 c 128,-1,30
 405 644 405 644 366 644 c 0,31,32
 297 644 297 644 256.5 605 c 128,-1,33
 216 566 216 566 203 489 c 2,34,-1
 132 36 l 2,35,36
 129 15 129 15 116 4 c 128,-1,37
 103 -7 103 -7 82 -7 c 0,38,39
 59 -7 59 -7 49 6 c 128,-1,40
 39 19 39 19 42 44 c 2,41,-1
 111 479 l 2,42,43
 129 594 129 594 191.5 654 c 128,-1,44
 254 714 254 714 369 714 c 0,45,46
 419 714 419 714 455 697.5 c 128,-1,47
 491 681 491 681 510 653 c 128,-1,48
 529 625 529 625 529 591 c 0,49,50
 529 543 529 543 505 512 c 128,-1,51
 481 481 481 481 439 447 c 0,52,53
 415 428 415 428 398.5 413.5 c 128,-1,54
 382 399 382 399 374 385 c 128,-1,55
 366 371 366 371 366 354 c 0,56,57
 366 332 366 332 385 314.5 c 128,-1,58
 404 297 404 297 454 280 c 0,59,60
 514 259 514 259 546 228.5 c 128,-1,61
 578 198 578 198 578 146 c 0,62,63
 578 97 578 97 553.5 62.5 c 128,-1,64
 529 28 529 28 486 9.5 c 128,-1,65
 443 -9 443 -9 385 -9 c 0,0,1
EndSplineSet
Substitution2: "Single Substitution lookup 39 subtable" germandbls.calt
Substitution2: "Single Substitution lookup 38 subtable" germandbls.calt
Substitution2: "'aalt' Access All Alternates lookup 0 subtable" germandbls.calt
EndChar

StartChar: t
Encoding: 116 116 432
Width: 358
GlyphClass: 2
Flags: W
AnchorPoint: "Anchor-5" 171 266 basechar 0
AnchorPoint: "Anchor-2" 189 0 basechar 0
AnchorPoint: "Anchor-1" 330 705 basechar 0
AnchorPoint: "Anchor-0" 205 635 basechar 0
LayerCount: 2
Fore
SplineSet
242 -9 m 0,0,1
 184 -9 184 -9 146 13.5 c 128,-1,2
 108 36 108 36 93 76 c 128,-1,3
 78 116 78 116 87 170 c 2,4,-1
 126 417 l 1,5,-1
 68 417 l 2,6,7
 50 417 50 417 39.5 424.5 c 128,-1,8
 29 432 29 432 29 446 c 0,9,10
 29 466 29 466 42 476.5 c 128,-1,11
 55 487 55 487 76 487 c 2,12,-1
 137 487 l 1,13,-1
 155 599 l 2,14,15
 159 621 159 621 171 631.5 c 128,-1,16
 183 642 183 642 205 642 c 0,17,18
 228 642 228 642 238 629 c 128,-1,19
 248 616 248 616 244 591 c 2,20,-1
 228 487 l 1,21,-1
 343 487 l 2,22,23
 362 487 362 487 372.5 480 c 128,-1,24
 383 473 383 473 383 458 c 0,25,26
 383 440 383 440 371 428.5 c 128,-1,27
 359 417 359 417 339 417 c 2,28,-1
 217 417 l 1,29,-1
 179 179 l 2,30,31
 169 119 169 119 191 93.5 c 128,-1,32
 213 68 213 68 258 68 c 0,33,34
 279 68 279 68 290.5 71.5 c 128,-1,35
 302 75 302 75 311 75 c 0,36,37
 321 75 321 75 326.5 69 c 128,-1,38
 332 63 332 63 332 48 c 0,39,40
 332 24 332 24 324.5 14 c 128,-1,41
 317 4 317 4 302 0 c 0,42,43
 291 -4 291 -4 274 -6.5 c 128,-1,44
 257 -9 257 -9 242 -9 c 0,0,1
EndSplineSet
EndChar

StartChar: u
Encoding: 117 117 440
Width: 565
GlyphClass: 2
Flags: W
AnchorPoint: "Anchor-3" 433 0 basechar 0
AnchorPoint: "Anchor-2" 244 0 basechar 0
AnchorPoint: "Anchor-1" 458 484 basechar 0
AnchorPoint: "Anchor-0" 318 485 basechar 0
LayerCount: 2
Fore
SplineSet
208 -9 m 0,0,1
 156 -9 156 -9 119.5 12.5 c 128,-1,2
 83 34 83 34 68 79 c 128,-1,3
 53 124 53 124 63 194 c 2,4,-1
 104 451 l 2,5,6
 108 474 108 474 120.5 484 c 128,-1,7
 133 494 133 494 154 494 c 0,8,9
 177 494 177 494 187.5 481 c 128,-1,10
 198 468 198 468 194 443 c 2,11,-1
 155 194 l 2,12,13
 145 129 145 129 165.5 97 c 128,-1,14
 186 65 186 65 238 65 c 0,15,16
 305 65 305 65 346 108.5 c 128,-1,17
 387 152 387 152 398 224 c 2,18,-1
 434 451 l 2,19,20
 437 474 437 474 449.5 484 c 128,-1,21
 462 494 462 494 483 494 c 0,22,23
 506 494 506 494 516.5 481 c 128,-1,24
 527 468 527 468 523 444 c 2,25,-1
 459 36 l 2,26,27
 452 -7 452 -7 409 -7 c 0,28,29
 388 -7 388 -7 378 5 c 128,-1,30
 368 17 368 17 371 41 c 2,31,-1
 384 125 l 1,32,-1
 392 109 l 1,33,34
 368 52 368 52 320 21.5 c 128,-1,35
 272 -9 272 -9 208 -9 c 0,0,1
EndSplineSet
EndChar

StartChar: uhorn
Encoding: 432 432 450
Width: 565
GlyphClass: 2
Flags: W
AnchorPoint: "Anchor-2" 244 0 basechar 0
AnchorPoint: "Anchor-0" 318 485 basechar 0
LayerCount: 2
Fore
SplineSet
208 -9 m 0,0,1
 156 -9 156 -9 119.5 12.5 c 128,-1,2
 83 34 83 34 68 79 c 128,-1,3
 53 124 53 124 63 194 c 2,4,-1
 104 451 l 2,5,6
 108 473 108 473 120.5 483.5 c 128,-1,7
 133 494 133 494 154 494 c 0,8,9
 177 494 177 494 187.5 481 c 128,-1,10
 198 468 198 468 194 443 c 2,11,-1
 155 194 l 2,12,13
 145 129 145 129 165.5 97 c 128,-1,14
 186 65 186 65 238 65 c 0,15,16
 305 65 305 65 346 108.5 c 128,-1,17
 387 152 387 152 398 224 c 2,18,-1
 433 446 l 2,19,20
 436 468 436 468 448.5 478.5 c 128,-1,21
 461 489 461 489 481 490 c 0,22,23
 516 493 516 493 535 505.5 c 128,-1,24
 554 518 554 518 564 540 c 128,-1,25
 574 562 574 562 580 592 c 0,26,27
 586 623 586 623 624 623 c 0,28,29
 643 623 643 623 653.5 614.5 c 128,-1,30
 664 606 664 606 661 589 c 0,31,32
 653 528 653 528 619 487 c 128,-1,33
 585 446 585 446 522 436 c 1,34,-1
 459 36 l 2,35,36
 452 -7 452 -7 409 -7 c 0,37,38
 388 -7 388 -7 378 5 c 128,-1,39
 368 17 368 17 371 41 c 2,40,-1
 384 125 l 1,41,-1
 392 109 l 1,42,43
 368 52 368 52 320 21.5 c 128,-1,44
 272 -9 272 -9 208 -9 c 0,0,1
EndSplineSet
EndChar

StartChar: uogonek
Encoding: 371 371 460
Width: 565
GlyphClass: 1
Flags: W
LayerCount: 2
Fore
SplineSet
384 125 m 1,0,-1
 392 109 l 1,1,2
 368 52 368 52 320 21.5 c 128,-1,3
 272 -9 272 -9 208 -9 c 0,4,5
 156 -9 156 -9 119.5 12.5 c 128,-1,6
 83 34 83 34 68 79 c 128,-1,7
 53 124 53 124 63 194 c 2,8,-1
 104 451 l 2,9,10
 108 473 108 473 120.5 483.5 c 128,-1,11
 133 494 133 494 154 494 c 0,12,13
 177 494 177 494 187.5 481 c 128,-1,14
 198 468 198 468 194 443 c 2,15,-1
 155 194 l 2,16,17
 145 129 145 129 165.5 97 c 128,-1,18
 186 65 186 65 238 65 c 0,19,20
 305 65 305 65 346 108.5 c 128,-1,21
 387 152 387 152 398 224 c 2,22,-1
 434 451 l 2,23,24
 437 473 437 473 449.5 483.5 c 128,-1,25
 462 494 462 494 483 494 c 0,26,27
 506 494 506 494 516.5 480.5 c 128,-1,28
 527 467 527 467 523 443 c 2,29,-1
 459 36 l 2,30,31
 456 18 456 18 447.5 8.5 c 128,-1,32
 439 -1 439 -1 425 -6 c 0,33,34
 393 -18 393 -18 376.5 -40 c 128,-1,35
 360 -62 360 -62 360 -88 c 0,36,37
 360 -111 360 -111 374 -125 c 128,-1,38
 388 -139 388 -139 413 -139 c 0,39,40
 421 -139 421 -139 430 -137.5 c 128,-1,41
 439 -136 439 -136 449 -133 c 0,42,43
 462 -129 462 -129 469 -134.5 c 128,-1,44
 476 -140 476 -140 477.5 -150 c 128,-1,45
 479 -160 479 -160 475 -169.5 c 128,-1,46
 471 -179 471 -179 462 -182 c 0,47,48
 447 -187 447 -187 429.5 -190 c 128,-1,49
 412 -193 412 -193 397 -193 c 0,50,51
 348 -193 348 -193 323 -167.5 c 128,-1,52
 298 -142 298 -142 298 -103 c 0,53,54
 298 -61 298 -61 320.5 -28.5 c 128,-1,55
 343 4 343 4 383 26 c 1,56,-1
 374 12 l 1,57,58
 371 19 371 19 370.5 26 c 128,-1,59
 370 33 370 33 371 42 c 2,60,-1
 384 125 l 1,0,-1
EndSplineSet
EndChar

StartChar: v
Encoding: 118 118 464
Width: 518
GlyphClass: 2
Flags: W
AnchorPoint: "Anchor-2" 221 0 basechar 0
AnchorPoint: "Anchor-0" 297 484 basechar 0
LayerCount: 2
Fore
SplineSet
222 -7 m 0,0,1
 200 -7 200 -7 187 4.5 c 128,-1,2
 174 16 174 16 167 38 c 2,3,-1
 61 430 l 2,4,5
 56 449 56 449 59.5 463 c 128,-1,6
 63 477 63 477 74 485.5 c 128,-1,7
 85 494 85 494 103 494 c 0,8,9
 122 494 122 494 132.5 485 c 128,-1,10
 143 476 143 476 148 452 c 2,11,-1
 242 71 l 1,12,-1
 215 71 l 1,13,-1
 438 462 l 2,14,15
 449 480 449 480 460 487 c 128,-1,16
 471 494 471 494 488 494 c 0,17,18
 506 494 506 494 516 486 c 128,-1,19
 526 478 526 478 527 464.5 c 128,-1,20
 528 451 528 451 518 434 c 2,21,-1
 279 29 l 2,22,23
 268 10 268 10 254.5 1.5 c 128,-1,24
 241 -7 241 -7 222 -7 c 0,0,1
EndSplineSet
EndChar

StartChar: w
Encoding: 119 119 465
Width: 844
GlyphClass: 2
Flags: W
AnchorPoint: "Anchor-2" 382 0 basechar 0
AnchorPoint: "Anchor-0" 453 484 basechar 0
LayerCount: 2
Fore
SplineSet
207 -7 m 0,0,1
 188 -7 188 -7 174.5 4 c 128,-1,2
 161 15 161 15 156 38 c 2,3,-1
 72 429 l 2,4,5
 68 448 68 448 72 462.5 c 128,-1,6
 76 477 76 477 86.5 485.5 c 128,-1,7
 97 494 97 494 114 494 c 0,8,9
 132 494 132 494 141 484.5 c 128,-1,10
 150 475 150 475 155 453 c 2,11,-1
 229 72 l 1,12,-1
 203 72 l 1,13,-1
 408 464 l 2,14,15
 417 480 417 480 428 487 c 128,-1,16
 439 494 439 494 456 494 c 256,17,18
 473 494 473 494 484.5 485 c 128,-1,19
 496 476 496 476 499 456 c 2,20,-1
 575 72 l 1,21,-1
 553 72 l 1,22,-1
 753 460 l 2,23,24
 764 479 764 479 775 486.5 c 128,-1,25
 786 494 786 494 804 494 c 0,26,27
 821 494 821 494 830.5 486 c 128,-1,28
 840 478 840 478 841 465 c 128,-1,29
 842 452 842 452 834 437 c 2,30,-1
 617 29 l 2,31,32
 607 11 607 11 593 2 c 128,-1,33
 579 -7 579 -7 560 -7 c 256,34,35
 541 -7 541 -7 527 4 c 128,-1,36
 513 15 513 15 508 38 c 2,37,-1
 429 416 l 1,38,-1
 468 416 l 1,39,-1
 265 30 l 2,40,41
 255 11 255 11 241 2 c 128,-1,42
 227 -7 227 -7 207 -7 c 0,0,1
EndSplineSet
EndChar

StartChar: x
Encoding: 120 120 470
Width: 530
GlyphClass: 2
Flags: W
AnchorPoint: "Anchor-2" 226 0 basechar 0
AnchorPoint: "Anchor-0" 303 484 basechar 0
LayerCount: 2
Fore
SplineSet
50 -7 m 0,0,1
 31 -7 31 -7 21 2.5 c 128,-1,2
 11 12 11 12 11 26.5 c 128,-1,3
 11 41 11 41 23 53 c 2,4,-1
 231 270 l 1,5,-1
 229 229 l 1,6,-1
 99 430 l 2,7,8
 88 448 88 448 90 462.5 c 128,-1,9
 92 477 92 477 102.5 485.5 c 128,-1,10
 113 494 113 494 128 494 c 0,11,12
 144 494 144 494 156 487 c 128,-1,13
 168 480 168 480 177 465 c 2,14,-1
 285 294 l 1,15,-1
 261 294 l 1,16,-1
 422 470 l 2,17,18
 434 482 434 482 444.5 488 c 128,-1,19
 455 494 455 494 471 494 c 0,20,21
 490 494 490 494 500 484.5 c 128,-1,22
 510 475 510 475 510 461 c 128,-1,23
 510 447 510 447 498 434 c 2,24,-1
 306 231 l 1,25,-1
 305 271 l 1,26,-1
 444 58 l 2,27,28
 456 40 456 40 453.5 25 c 128,-1,29
 451 10 451 10 440 1.5 c 128,-1,30
 429 -7 429 -7 414 -7 c 0,31,32
 400 -7 400 -7 387.5 0.5 c 128,-1,33
 375 8 375 8 366 22 c 2,34,-1
 248 206 l 1,35,-1
 276 205 l 1,36,-1
 98 17 l 2,37,38
 86 5 86 5 75.5 -1 c 128,-1,39
 65 -7 65 -7 50 -7 c 0,0,1
EndSplineSet
EndChar

StartChar: y
Encoding: 121 121 471
Width: 517
GlyphClass: 2
Flags: W
AnchorPoint: "Anchor-2" 355 0 basechar 0
AnchorPoint: "Anchor-0" 285 484 basechar 0
LayerCount: 2
Fore
SplineSet
120 -187 m 256,0,1
 102 -187 102 -187 92.5 -178.5 c 128,-1,2
 83 -170 83 -170 83 -156.5 c 128,-1,3
 83 -143 83 -143 92 -127 c 2,4,-1
 186 29 l 1,5,-1
 180 -9 l 1,6,-1
 61 430 l 2,7,8
 56 449 56 449 59 463.5 c 128,-1,9
 62 478 62 478 73.5 486 c 128,-1,10
 85 494 85 494 102 494 c 0,11,12
 122 494 122 494 131.5 485 c 128,-1,13
 141 476 141 476 146 452 c 2,14,-1
 241 70 l 1,15,-1
 213 70 l 1,16,-1
 437 461 l 2,17,18
 448 478 448 478 458.5 486 c 128,-1,19
 469 494 469 494 487 494 c 256,20,21
 505 494 505 494 515 485.5 c 128,-1,22
 525 477 525 477 526.5 463.5 c 128,-1,23
 528 450 528 450 518 434 c 2,24,-1
 170 -154 l 2,25,26
 160 -171 160 -171 149 -179 c 128,-1,27
 138 -187 138 -187 120 -187 c 256,0,1
EndSplineSet
EndChar

StartChar: uni01B4
Encoding: 436 436 478
Width: 556
GlyphClass: 1
Flags: W
LayerCount: 2
Fore
SplineSet
121 -187 m 0,0,1
 103 -187 103 -187 93 -178.5 c 128,-1,2
 83 -170 83 -170 83 -156.5 c 128,-1,3
 83 -143 83 -143 92 -127 c 2,4,-1
 186 29 l 1,5,-1
 180 -9 l 1,6,-1
 61 429 l 2,7,8
 56 448 56 448 59.5 462.5 c 128,-1,9
 63 477 63 477 74 485.5 c 128,-1,10
 85 494 85 494 103 494 c 0,11,12
 122 494 122 494 131.5 485 c 128,-1,13
 141 476 141 476 146 452 c 2,14,-1
 241 70 l 1,15,-1
 213 70 l 1,16,-1
 395 388 l 2,17,18
 417 427 417 427 440.5 451 c 128,-1,19
 464 475 464 475 494 485.5 c 128,-1,20
 524 496 524 496 564 496 c 0,21,22
 603 496 603 496 617.5 486.5 c 128,-1,23
 632 477 632 477 632 459 c 0,24,25
 632 443 632 443 624 432 c 128,-1,26
 616 421 616 421 603 421 c 0,27,28
 599 421 599 421 588 422 c 128,-1,29
 577 423 577 423 568 423 c 0,30,31
 538 423 538 423 514.5 406.5 c 128,-1,32
 491 390 491 390 466 347 c 2,33,-1
 170 -154 l 2,34,35
 160 -171 160 -171 149 -179 c 128,-1,36
 138 -187 138 -187 121 -187 c 0,0,1
EndSplineSet
EndChar

StartChar: z
Encoding: 122 122 482
Width: 466
GlyphClass: 2
Flags: W
AnchorPoint: "Anchor-2" 211 0 basechar 0
AnchorPoint: "Anchor-0" 274 484 basechar 0
LayerCount: 2
Fore
SplineSet
58 0 m 2,0,1
 43 0 43 0 33.5 6 c 128,-1,2
 24 12 24 12 20 22 c 128,-1,3
 16 32 16 32 19 44 c 128,-1,4
 22 56 22 56 33 68 c 2,5,-1
 367 440 l 1,6,-1
 371 417 l 1,7,-1
 117 417 l 2,8,9
 99 417 99 417 89 425 c 128,-1,10
 79 433 79 433 79 446 c 0,11,12
 79 466 79 466 90.5 476.5 c 128,-1,13
 102 487 102 487 121 487 c 2,14,-1
 422 487 l 2,15,16
 437 487 437 487 447 480.5 c 128,-1,17
 457 474 457 474 460 464 c 128,-1,18
 463 454 463 454 459 441 c 128,-1,19
 455 428 455 428 443 415 c 2,20,-1
 110 45 l 1,21,-1
 106 70 l 1,22,-1
 374 70 l 2,23,24
 411 70 411 70 411 41 c 0,25,26
 411 22 411 22 400 11 c 128,-1,27
 389 0 389 0 369 0 c 2,28,-1
 58 0 l 2,0,1
EndSplineSet
EndChar

StartChar: germandbls.calt
Encoding: 65540 -1 487
Width: 716
GlyphClass: 1
Flags: W
LayerCount: 2
Fore
SplineSet
404 -9 m 0,0,1
 357 -9 357 -9 313 3.5 c 128,-1,2
 269 16 269 16 236 40 c 0,3,4
 223 48 223 48 219.5 59.5 c 128,-1,5
 216 71 216 71 219 82.5 c 128,-1,6
 222 94 222 94 229.5 102 c 128,-1,7
 237 110 237 110 249 112 c 128,-1,8
 261 114 261 114 274 106 c 0,9,10
 304 86 304 86 336.5 77.5 c 128,-1,11
 369 69 369 69 403 69 c 0,12,13
 478 69 478 69 517.5 105.5 c 128,-1,14
 557 142 557 142 557 207 c 0,15,16
 557 259 557 259 522 287.5 c 128,-1,17
 487 316 487 316 417 316 c 2,18,-1
 329 316 l 2,19,20
 314 316 314 316 304.5 324 c 128,-1,21
 295 332 295 332 295 346 c 0,22,23
 295 369 295 369 306 380 c 128,-1,24
 317 391 317 391 336 391 c 2,25,-1
 420 391 l 2,26,27
 489 391 489 391 530.5 425 c 128,-1,28
 572 459 572 459 572 525 c 0,29,30
 572 574 572 574 533 604.5 c 128,-1,31
 494 635 494 635 420 635 c 0,32,33
 326 635 326 635 276 591 c 128,-1,34
 226 547 226 547 211 456 c 2,35,-1
 145 37 l 2,36,37
 142 16 142 16 129 4.5 c 128,-1,38
 116 -7 116 -7 93 -7 c 0,39,40
 71 -7 71 -7 60.5 6.5 c 128,-1,41
 50 20 50 20 53 45 c 2,42,-1
 120 466 l 2,43,44
 134 553 134 553 173 607.5 c 128,-1,45
 212 662 212 662 275.5 688 c 128,-1,46
 339 714 339 714 428 714 c 0,47,48
 504 714 504 714 556.5 690.5 c 128,-1,49
 609 667 609 667 636.5 626 c 128,-1,50
 664 585 664 585 664 535 c 0,51,52
 664 462 664 462 619 412.5 c 128,-1,53
 574 363 574 363 505 350 c 1,54,-1
 505 365 l 1,55,56
 550 358 550 358 582 335 c 128,-1,57
 614 312 614 312 631 277.5 c 128,-1,58
 648 243 648 243 648 201 c 0,59,60
 648 139 648 139 620.5 91 c 128,-1,61
 593 43 593 43 538.5 17 c 128,-1,62
 484 -9 484 -9 404 -9 c 0,0,1
EndSplineSet
EndChar

StartChar: a.ss01
Encoding: 65542 -1 489
Width: 587
GlyphClass: 2
Flags: W
AnchorPoint: "Anchor-3" 454 0 basechar 0
AnchorPoint: "Anchor-2" 257 0 basechar 0
AnchorPoint: "Anchor-0" 321 484 basechar 0
LayerCount: 2
Fore
SplineSet
229 -9 m 0,0,1
 173 -9 173 -9 131 16.5 c 128,-1,2
 89 42 89 42 65.5 89 c 128,-1,3
 42 136 42 136 42 200 c 0,4,5
 42 281 42 281 71 348.5 c 128,-1,6
 100 416 100 416 154.5 456 c 128,-1,7
 209 496 209 496 287 496 c 0,8,9
 345 496 345 496 390.5 466.5 c 128,-1,10
 436 437 436 437 452 379 c 1,11,-1
 444 366 l 1,12,-1
 457 448 l 2,13,14
 461 471 461 471 474 482.5 c 128,-1,15
 487 494 487 494 509 494 c 0,16,17
 530 494 530 494 539.5 480.5 c 128,-1,18
 549 467 549 467 545 441 c 2,19,-1
 481 38 l 2,20,21
 478 16 478 16 465 4.5 c 128,-1,22
 452 -7 452 -7 429 -7 c 0,23,24
 408 -7 408 -7 399 7.5 c 128,-1,25
 390 22 390 22 394 47 c 2,26,-1
 406 118 l 1,27,-1
 410 101 l 1,28,29
 384 50 384 50 337.5 20.5 c 128,-1,30
 291 -9 291 -9 229 -9 c 0,0,1
260 63 m 0,31,32
 313 63 313 63 350 92.5 c 128,-1,33
 387 122 387 122 406 172.5 c 128,-1,34
 425 223 425 223 425 284 c 0,35,36
 425 352 425 352 391.5 388 c 128,-1,37
 358 424 358 424 299 424 c 0,38,39
 246 424 246 424 209.5 394.5 c 128,-1,40
 173 365 173 365 153.5 315 c 128,-1,41
 134 265 134 265 134 203 c 0,42,43
 134 135 134 135 167.5 99 c 128,-1,44
 201 63 201 63 260 63 c 0,31,32
EndSplineSet
EndChar

StartChar: l.ss02
Encoding: 65569 -1 516
Width: 237
GlyphClass: 2
Flags: W
AnchorPoint: "Anchor-5" 137 357 basechar 0
AnchorPoint: "Anchor-2" 79 0 basechar 0
AnchorPoint: "Anchor-1" 281 705 basechar 0
AnchorPoint: "Anchor-0" 191 705 basechar 0
LayerCount: 2
Fore
SplineSet
79 -7 m 0,0,1
 58 -7 58 -7 48 7 c 128,-1,2
 38 21 38 21 42 46 c 2,3,-1
 140 666 l 2,4,5
 144 690 144 690 157 701 c 128,-1,6
 170 712 170 712 192 712 c 256,7,8
 214 712 214 712 224 699 c 128,-1,9
 234 686 234 686 230 659 c 2,10,-1
 131 36 l 2,11,12
 124 -7 124 -7 79 -7 c 0,0,1
EndSplineSet
EndChar

StartChar: fi
Encoding: 64257 64257 525
Width: 570
GlyphClass: 3
LigCaretCntFixed: 1
Flags: W
LayerCount: 2
Fore
SplineSet
107 -7 m 0,0,1
 86 -7 86 -7 76 7 c 128,-1,2
 66 21 66 21 70 46 c 2,3,-1
 129 417 l 1,4,-1
 74 417 l 2,5,6
 56 417 56 417 46.5 424 c 128,-1,7
 37 431 37 431 37 445 c 0,8,9
 37 465 37 465 49 476 c 128,-1,10
 61 487 61 487 81 487 c 2,11,-1
 151 487 l 1,12,-1
 138 475 l 1,13,-1
 145 521 l 2,14,15
 158 604 158 604 210 651.5 c 128,-1,16
 262 699 262 699 354 706 c 2,17,-1
 384 708 l 2,18,19
 399 709 399 709 407.5 702.5 c 128,-1,20
 416 696 416 696 419.5 685.5 c 128,-1,21
 423 675 423 675 420.5 664.5 c 128,-1,22
 418 654 418 654 410.5 646.5 c 128,-1,23
 403 639 403 639 391 638 c 2,24,-1
 361 636 l 2,25,26
 306 632 306 632 275.5 603.5 c 128,-1,27
 245 575 245 575 236 520 c 2,28,-1
 229 478 l 1,29,-1
 222 487 l 1,30,-1
 490 487 l 2,31,32
 511 487 511 487 521 475 c 128,-1,33
 531 463 531 463 528 440 c 2,34,-1
 464 38 l 2,35,36
 461 16 461 16 448 4.5 c 128,-1,37
 435 -7 435 -7 412 -7 c 0,38,39
 391 -7 391 -7 380.5 7 c 128,-1,40
 370 21 370 21 374 46 c 2,41,-1
 433 417 l 1,42,-1
 220 417 l 1,43,-1
 159 38 l 2,44,45
 152 -7 152 -7 107 -7 c 0,0,1
511 600 m 0,46,47
 487 600 487 600 474 613 c 128,-1,48
 461 626 461 626 463 649 c 0,49,50
 465 676 465 676 482 691 c 128,-1,51
 499 706 499 706 528 706 c 0,52,53
 553 706 553 706 566 693.5 c 128,-1,54
 579 681 579 681 577 658 c 0,55,56
 575 630 575 630 558 615 c 128,-1,57
 541 600 541 600 511 600 c 0,46,47
EndSplineSet
Ligature2: "'liga' Standard Ligatures lookup 33 subtable" f i
LCarets2: 1 286
EndChar

StartChar: ordfeminine
Encoding: 170 170 529
Width: 330
GlyphClass: 1
Flags: W
LayerCount: 2
Fore
SplineSet
167 410 m 0,0,1
 125 410 125 410 96.5 436.5 c 128,-1,2
 68 463 68 463 68 500 c 0,3,4
 68 546 68 546 110 566.5 c 128,-1,5
 152 587 152 587 239 587 c 2,6,-1
 302 587 l 1,7,-1
 296 550 l 1,8,-1
 245 550 l 2,9,10
 182 550 182 550 156 539 c 128,-1,11
 130 528 130 528 130 504 c 0,12,13
 130 482 130 482 145 468.5 c 128,-1,14
 160 455 160 455 184 455 c 0,15,16
 206 455 206 455 226 465.5 c 128,-1,17
 246 476 246 476 260.5 493.5 c 128,-1,18
 275 511 275 511 278 533 c 2,19,-1
 289 602 l 2,20,21
 295 634 295 634 276.5 649.5 c 128,-1,22
 258 665 258 665 224 665 c 0,23,24
 203 665 203 665 183 660.5 c 128,-1,25
 163 656 163 656 145 647 c 0,26,27
 132 642 132 642 123 646 c 128,-1,28
 114 650 114 650 110.5 658.5 c 128,-1,29
 107 667 107 667 111 677 c 128,-1,30
 115 687 115 687 128 692 c 0,31,32
 149 703 149 703 175 708.5 c 128,-1,33
 201 714 201 714 229 714 c 0,34,35
 272 714 272 714 300.5 698 c 128,-1,36
 329 682 329 682 341.5 653.5 c 128,-1,37
 354 625 354 625 348 586 c 2,38,-1
 325 438 l 2,39,40
 320 410 320 410 292 410 c 0,41,42
 278 410 278 410 271 419 c 128,-1,43
 264 428 264 428 266 441 c 2,44,-1
 271 470 l 1,45,-1
 268 470 l 1,46,47
 252 441 252 441 226.5 425.5 c 128,-1,48
 201 410 201 410 167 410 c 0,0,1
EndSplineSet
EndChar

StartChar: ordmasculine
Encoding: 186 186 530
Width: 342
GlyphClass: 1
Flags: W
LayerCount: 2
Fore
SplineSet
215 411 m 0,0,1
 174 411 174 411 142 428.5 c 128,-1,2
 110 446 110 446 91.5 477.5 c 128,-1,3
 73 509 73 509 73 551 c 0,4,5
 73 601 73 601 94 638 c 128,-1,6
 115 675 115 675 150 694.5 c 128,-1,7
 185 714 185 714 227 714 c 256,8,9
 269 714 269 714 301 697 c 128,-1,10
 333 680 333 680 351 648.5 c 128,-1,11
 369 617 369 617 369 574 c 0,12,13
 369 524 369 524 348.5 487.5 c 128,-1,14
 328 451 328 451 293 431 c 128,-1,15
 258 411 258 411 215 411 c 0,0,1
216 461 m 0,16,17
 256 461 256 461 281 490 c 128,-1,18
 306 519 306 519 306 575 c 0,19,20
 306 618 306 618 284 641.5 c 128,-1,21
 262 665 262 665 226 665 c 0,22,23
 187 665 187 665 162 636 c 128,-1,24
 137 607 137 607 137 550 c 0,25,26
 137 507 137 507 158.5 484 c 128,-1,27
 180 461 180 461 216 461 c 0,16,17
EndSplineSet
EndChar

StartChar: uni0411
Encoding: 1041 1041 532
Width: 663
GlyphClass: 1
Flags: W
LayerCount: 2
Fore
SplineSet
101 0 m 2,0,1
 76 0 76 0 63.5 14.5 c 128,-1,2
 51 29 51 29 55 54 c 2,3,-1
 151 659 l 2,4,5
 154 682 154 682 168 693.5 c 128,-1,6
 182 705 182 705 205 705 c 2,7,-1
 577 705 l 2,8,9
 596 705 596 705 606.5 697 c 128,-1,10
 617 689 617 689 617 674 c 0,11,12
 617 653 617 653 605.5 641 c 128,-1,13
 594 629 594 629 572 629 c 2,14,-1
 237 629 l 1,15,-1
 200 398 l 1,16,-1
 388 398 l 2,17,18
 500 398 500 398 556 348.5 c 128,-1,19
 612 299 612 299 612 218 c 0,20,21
 612 111 612 111 546 55.5 c 128,-1,22
 480 0 480 0 353 0 c 2,23,-1
 101 0 l 2,0,1
149 76 m 1,24,-1
 357 76 l 2,25,26
 438 76 438 76 479.5 110.5 c 128,-1,27
 521 145 521 145 521 214 c 0,28,29
 521 268 521 268 485.5 295 c 128,-1,30
 450 322 450 322 377 322 c 2,31,-1
 188 322 l 1,32,-1
 149 76 l 1,24,-1
EndSplineSet
EndChar

StartChar: uni0413
Encoding: 1043 1043 534
Width: 546
GlyphClass: 2
Flags: W
AnchorPoint: "Anchor-4" 174 355 basechar 0
AnchorPoint: "Anchor-0" 351 705 basechar 0
LayerCount: 2
Fore
SplineSet
93 -7 m 0,0,1
 70 -7 70 -7 60 7.5 c 128,-1,2
 50 22 50 22 54 48 c 2,3,-1
 151 659 l 2,4,5
 154 682 154 682 167.5 693.5 c 128,-1,6
 181 705 181 705 204 705 c 2,7,-1
 566 705 l 2,8,9
 586 705 586 705 597.5 697 c 128,-1,10
 609 689 609 689 609 673 c 0,11,12
 609 651 609 651 596 638.5 c 128,-1,13
 583 626 583 626 561 626 c 2,14,-1
 238 626 l 1,15,-1
 146 40 l 2,16,17
 142 17 142 17 129.5 5 c 128,-1,18
 117 -7 117 -7 93 -7 c 0,0,1
EndSplineSet
EndChar

StartChar: uni0490
Encoding: 1168 1168 536
Width: 546
GlyphClass: 1
Flags: W
LayerCount: 2
Fore
SplineSet
94 -7 m 0,0,1
 71 -7 71 -7 60.5 7.5 c 128,-1,2
 50 22 50 22 54 48 c 2,3,-1
 151 659 l 2,4,5
 154 682 154 682 168 693.5 c 128,-1,6
 182 705 182 705 205 705 c 2,7,-1
 520 705 l 1,8,-1
 540 829 l 2,9,10
 547 868 547 868 587 868 c 0,11,12
 607 868 607 868 616.5 855.5 c 128,-1,13
 626 843 626 843 623 821 c 2,14,-1
 599 672 l 2,15,16
 596 649 596 649 582 637.5 c 128,-1,17
 568 626 568 626 545 626 c 2,18,-1
 238 626 l 1,19,-1
 146 40 l 2,20,21
 142 17 142 17 130 5 c 128,-1,22
 118 -7 118 -7 94 -7 c 0,0,1
EndSplineSet
EndChar

StartChar: uni04F6
Encoding: 1270 1270 537
Width: 546
GlyphClass: 1
Flags: W
LayerCount: 2
Fore
SplineSet
172 -166 m 0,0,1
 154 -166 154 -166 144.5 -153 c 128,-1,2
 135 -140 135 -140 139 -117 c 2,3,-1
 157 0 l 1,4,-1
 94 0 l 2,5,6
 70 0 70 0 60.5 14.5 c 128,-1,7
 51 29 51 29 55 56 c 2,8,-1
 151 659 l 2,9,10
 154 682 154 682 167.5 693.5 c 128,-1,11
 181 705 181 705 204 705 c 2,12,-1
 566 705 l 2,13,14
 586 705 586 705 597.5 697 c 128,-1,15
 609 689 609 689 609 673 c 0,16,17
 609 651 609 651 596 638.5 c 128,-1,18
 583 626 583 626 561 626 c 2,19,-1
 238 626 l 1,20,-1
 146 47 l 1,21,-1
 120 77 l 1,22,-1
 200 77 l 2,23,24
 224 77 224 77 236 64.5 c 128,-1,25
 248 52 248 52 244 27 c 2,26,-1
 220 -124 l 2,27,28
 217 -145 217 -145 205.5 -155.5 c 128,-1,29
 194 -166 194 -166 172 -166 c 0,0,1
EndSplineSet
EndChar

StartChar: uni0492
Encoding: 1170 1170 538
Width: 583
GlyphClass: 1
Flags: W
LayerCount: 2
Fore
SplineSet
131 -7 m 0,0,1
 108 -7 108 -7 98 8 c 128,-1,2
 88 23 88 23 91 48 c 2,3,-1
 134 316 l 1,4,-1
 78 316 l 2,5,6
 60 316 60 316 49.5 324 c 128,-1,7
 39 332 39 332 39 346 c 0,8,9
 39 366 39 366 50.5 376.5 c 128,-1,10
 62 387 62 387 82 387 c 2,11,-1
 145 387 l 1,12,-1
 188 659 l 2,13,14
 192 682 192 682 205.5 693.5 c 128,-1,15
 219 705 219 705 242 705 c 2,16,-1
 604 705 l 2,17,18
 624 705 624 705 635.5 697 c 128,-1,19
 647 689 647 689 647 673 c 0,20,21
 647 651 647 651 634 638.5 c 128,-1,22
 621 626 621 626 599 626 c 2,23,-1
 276 626 l 1,24,-1
 238 387 l 1,25,-1
 381 387 l 2,26,27
 400 387 400 387 410 379.5 c 128,-1,28
 420 372 420 372 420 358 c 0,29,30
 420 339 420 339 408.5 327.5 c 128,-1,31
 397 316 397 316 377 316 c 2,32,-1
 227 316 l 1,33,-1
 183 40 l 2,34,35
 179 17 179 17 167 5 c 128,-1,36
 155 -7 155 -7 131 -7 c 0,0,1
EndSplineSet
Substitution2: "'locl' Localized Forms in Cyrillic lookup 16 subtable" uni0492.loclBSH
Substitution2: "'aalt' Access All Alternates lookup 0 subtable" uni0492.loclBSH
EndChar

StartChar: uni0494
Encoding: 1172 1172 539
Width: 676
GlyphClass: 1
Flags: W
LayerCount: 2
Fore
SplineSet
354 -189 m 0,0,1
 330 -189 330 -189 306.5 -186 c 128,-1,2
 283 -183 283 -183 264 -178 c 0,3,4
 250 -175 250 -175 242.5 -165.5 c 128,-1,5
 235 -156 235 -156 235 -144.5 c 128,-1,6
 235 -133 235 -133 239.5 -123 c 128,-1,7
 244 -113 244 -113 254 -107.5 c 128,-1,8
 264 -102 264 -102 277 -105 c 0,9,10
 292 -108 292 -108 308 -110.5 c 128,-1,11
 324 -113 324 -113 343 -113 c 0,12,13
 404 -113 404 -113 443 -72 c 128,-1,14
 482 -31 482 -31 495 50 c 2,15,-1
 509 136 l 2,16,17
 528 249 528 249 486.5 302 c 128,-1,18
 445 355 445 355 352 355 c 0,19,20
 310 355 310 355 268.5 347 c 128,-1,21
 227 339 227 339 189 318 c 1,22,-1
 145 39 l 2,23,24
 142 17 142 17 129 5 c 128,-1,25
 116 -7 116 -7 93 -7 c 256,26,27
 70 -7 70 -7 60 7.5 c 128,-1,28
 50 22 50 22 54 48 c 2,29,-1
 151 659 l 2,30,31
 154 682 154 682 168.5 693.5 c 128,-1,32
 183 705 183 705 205 705 c 2,33,-1
 577 705 l 2,34,35
 598 705 598 705 609 697 c 128,-1,36
 620 689 620 689 620 673 c 0,37,38
 620 651 620 651 607.5 638.5 c 128,-1,39
 595 626 595 626 573 626 c 2,40,-1
 238 626 l 1,41,-1
 203 402 l 1,42,43
 236 419 236 419 278 428 c 128,-1,44
 320 437 320 437 366 437 c 0,45,46
 431 437 431 437 480 417.5 c 128,-1,47
 529 398 529 398 560.5 361 c 128,-1,48
 592 324 592 324 603 269 c 128,-1,49
 614 214 614 214 603 142 c 2,50,-1
 589 53 l 2,51,52
 576 -25 576 -25 545.5 -79 c 128,-1,53
 515 -133 515 -133 467 -161 c 128,-1,54
 419 -189 419 -189 354 -189 c 0,0,1
EndSplineSet
EndChar

StartChar: uni0414
Encoding: 1044 1044 540
Width: 783
GlyphClass: 1
Flags: W
AnchorPoint: "Anchor-0" 488 704 basechar 0
LayerCount: 2
Fore
SplineSet
-6 -166 m 0,0,1
 -27 -166 -27 -166 -35.5 -153.5 c 128,-1,2
 -44 -141 -44 -141 -41 -119 c 2,3,-1
 -18 35 l 2,4,5
 -11 76 -11 76 32 76 c 2,6,-1
 86 76 l 1,7,-1
 48 65 l 1,8,9
 113 125 113 125 157.5 235.5 c 128,-1,10
 202 346 202 346 229 520 c 2,11,-1
 251 659 l 2,12,13
 255 682 255 682 269 693.5 c 128,-1,14
 283 705 283 705 305 705 c 2,15,-1
 679 705 l 2,16,17
 705 705 705 705 717 691 c 128,-1,18
 729 677 729 677 725 650 c 2,19,-1
 629 46 l 1,20,-1
 609 76 l 1,21,-1
 685 76 l 2,22,23
 709 76 709 76 719.5 63 c 128,-1,24
 730 50 730 50 726 27 c 2,25,-1
 701 -126 l 2,26,27
 695 -166 695 -166 656 -166 c 0,28,29
 636 -166 636 -166 626.5 -153.5 c 128,-1,30
 617 -141 617 -141 620 -119 c 2,31,-1
 638 0 l 1,32,-1
 61 0 l 1,33,-1
 41 -126 l 2,34,35
 34 -166 34 -166 -6 -166 c 0,0,1
161 76 m 1,36,-1
 542 76 l 1,37,-1
 629 629 l 1,38,-1
 334 629 l 1,39,-1
 316 516 l 2,40,41
 291 355 291 355 254 246.5 c 128,-1,42
 217 138 217 138 161 76 c 1,36,-1
EndSplineSet
EndChar

StartChar: uni0416
Encoding: 1046 1046 544
Width: 979
GlyphClass: 2
Flags: W
AnchorPoint: "Anchor-0" 562 705 basechar 0
LayerCount: 2
Fore
SplineSet
452 -7 m 0,0,1
 429 -7 429 -7 419.5 6 c 128,-1,2
 410 19 410 19 413 43 c 2,3,-1
 456 315 l 1,4,-1
 375 315 l 2,5,6
 320 315 320 315 279.5 290 c 128,-1,7
 239 265 239 265 203 206 c 2,8,-1
 84 19 l 2,9,10
 74 3 74 3 60 -3 c 128,-1,11
 46 -9 46 -9 32.5 -6 c 128,-1,12
 19 -3 19 -3 10 6.5 c 128,-1,13
 1 16 1 16 0 30.5 c 128,-1,14
 -1 45 -1 45 11 64 c 2,15,-1
 127 246 l 2,16,17
 169 312 169 312 218.5 347.5 c 128,-1,18
 268 383 268 383 330 391 c 1,19,-1
 298 362 l 1,20,-1
 152 649 l 2,21,22
 143 666 143 666 146 680 c 128,-1,23
 149 694 149 694 159.5 702 c 128,-1,24
 170 710 170 710 184 711.5 c 128,-1,25
 198 713 198 713 211 706.5 c 128,-1,26
 224 700 224 700 232 683 c 2,27,-1
 383 378 l 1,28,-1
 362 395 l 1,29,-1
 468 395 l 1,30,-1
 512 670 l 2,31,32
 516 692 516 692 528 702 c 128,-1,33
 540 712 540 712 562 712 c 256,34,35
 584 712 584 712 594 699 c 128,-1,36
 604 686 604 686 600 662 c 2,37,-1
 558 395 l 1,38,-1
 655 395 l 1,39,-1
 634 378 l 1,40,-1
 888 691 l 2,41,42
 900 705 900 705 913.5 709 c 128,-1,43
 927 713 927 713 940 709.5 c 128,-1,44
 953 706 953 706 961 696 c 128,-1,45
 969 686 969 686 968 671.5 c 128,-1,46
 967 657 967 657 954 641 c 2,47,-1
 723 362 l 1,48,-1
 684 391 l 1,49,50
 724 386 724 386 755.5 368 c 128,-1,51
 787 350 787 350 809.5 319.5 c 128,-1,52
 832 289 832 289 847 246 c 2,53,-1
 912 55 l 2,54,55
 919 37 919 37 914 23 c 128,-1,56
 909 9 909 9 897.5 1 c 128,-1,57
 886 -7 886 -7 872 -7 c 128,-1,58
 858 -7 858 -7 845.5 1.5 c 128,-1,59
 833 10 833 10 827 29 c 2,60,-1
 768 206 l 2,61,62
 749 265 749 265 715.5 290 c 128,-1,63
 682 315 682 315 628 315 c 2,64,-1
 546 315 l 1,65,-1
 501 36 l 2,66,67
 498 15 498 15 485.5 4 c 128,-1,68
 473 -7 473 -7 452 -7 c 0,0,1
EndSplineSet
EndChar

StartChar: uni0417
Encoding: 1047 1047 545
Width: 639
GlyphClass: 2
Flags: W
AnchorPoint: "Anchor-2" 288 0 basechar 0
AnchorPoint: "Anchor-0" 385 705 basechar 0
LayerCount: 2
Fore
SplineSet
300 -9 m 0,0,1
 226 -9 226 -9 162 8.5 c 128,-1,2
 98 26 98 26 45 64 c 0,3,4
 33 73 33 73 29 85.5 c 128,-1,5
 25 98 25 98 27.5 110 c 128,-1,6
 30 122 30 122 38.5 130 c 128,-1,7
 47 138 47 138 59.5 139 c 128,-1,8
 72 140 72 140 88 130 c 0,9,10
 120 109 120 109 153.5 96 c 128,-1,11
 187 83 187 83 224 77.5 c 128,-1,12
 261 72 261 72 301 72 c 0,13,14
 348 72 348 72 388.5 85 c 128,-1,15
 429 98 429 98 454 128.5 c 128,-1,16
 479 159 479 159 479 210 c 0,17,18
 479 265 479 265 444.5 292 c 128,-1,19
 410 319 410 319 343 319 c 2,20,-1
 212 319 l 2,21,22
 192 319 192 319 181 328 c 128,-1,23
 170 337 170 337 171 353 c 0,24,25
 172 372 172 372 184.5 383.5 c 128,-1,26
 197 395 197 395 217 395 c 2,27,-1
 352 395 l 2,28,29
 426 395 426 395 470 429 c 128,-1,30
 514 463 514 463 514 528 c 0,31,32
 514 566 514 566 495 589 c 128,-1,33
 476 612 476 612 443 623 c 128,-1,34
 410 634 410 634 366 634 c 0,35,36
 315 634 315 634 264.5 620.5 c 128,-1,37
 214 607 214 607 171 580 c 0,38,39
 154 570 154 570 140 571 c 128,-1,40
 126 572 126 572 117.5 580.5 c 128,-1,41
 109 589 109 589 107.5 601.5 c 128,-1,42
 106 614 106 614 112 626.5 c 128,-1,43
 118 639 118 639 133 648 c 0,44,45
 185 680 185 680 248.5 697 c 128,-1,46
 312 714 312 714 376 714 c 0,47,48
 443 714 443 714 495 693.5 c 128,-1,49
 547 673 547 673 577 635 c 128,-1,50
 607 597 607 597 607 542 c 0,51,52
 607 462 607 462 558 412 c 128,-1,53
 509 362 509 362 429 351 c 1,54,-1
 429 366 l 1,55,56
 495 355 495 355 533 312.5 c 128,-1,57
 571 270 571 270 571 206 c 0,58,59
 571 132 571 132 536 84.5 c 128,-1,60
 501 37 501 37 439.5 14 c 128,-1,61
 378 -9 378 -9 300 -9 c 0,0,1
EndSplineSet
EndChar

StartChar: uni0418
Encoding: 1048 1048 546
Width: 741
GlyphClass: 2
Flags: W
AnchorPoint: "Anchor-0" 442 705 basechar 0
LayerCount: 2
Fore
SplineSet
84 -9 m 0,0,1
 71 -9 71 -9 64 -5 c 128,-1,2
 57 -1 57 -1 54.5 5.5 c 128,-1,3
 52 12 52 12 51.5 20 c 128,-1,4
 51 28 51 28 52 35 c 2,5,-1
 152 669 l 2,6,7
 156 691 156 691 168.5 701.5 c 128,-1,8
 181 712 181 712 201 712 c 0,9,10
 224 712 224 712 232.5 698.5 c 128,-1,11
 241 685 241 685 237 661 c 2,12,-1
 152 124 l 1,13,-1
 127 126 l 1,14,-1
 644 689 l 2,15,16
 651 698 651 698 662.5 705 c 128,-1,17
 674 712 674 712 692 712 c 0,18,19
 709 712 709 712 716 705.5 c 128,-1,20
 723 699 723 699 724 689 c 128,-1,21
 725 679 725 679 724 668 c 2,22,-1
 624 36 l 2,23,24
 621 15 621 15 608 4 c 128,-1,25
 595 -7 595 -7 575 -7 c 0,26,27
 553 -7 553 -7 544 6.5 c 128,-1,28
 535 20 535 20 539 45 c 2,29,-1
 623 582 l 1,30,-1
 648 580 l 1,31,-1
 130 14 l 2,32,33
 122 6 122 6 112 -1.5 c 128,-1,34
 102 -9 102 -9 84 -9 c 0,0,1
EndSplineSet
EndChar

StartChar: uni048A
Encoding: 1162 1162 549
Width: 781
GlyphClass: 1
Flags: W
LayerCount: 2
Fore
SplineSet
637 -142 m 2,0,1
 630 -156 630 -156 619 -162 c 128,-1,2
 608 -168 608 -168 596.5 -166.5 c 128,-1,3
 585 -165 585 -165 576.5 -158 c 128,-1,4
 568 -151 568 -151 566 -139.5 c 128,-1,5
 564 -128 564 -128 571 -113 c 2,6,-1
 640 28 l 1,7,-1
 640 0 l 1,8,-1
 579 0 l 2,9,10
 555 0 555 0 545 12 c 128,-1,11
 535 24 535 24 540 51 c 2,12,-1
 623 582 l 1,13,-1
 648 580 l 1,14,-1
 130 14 l 2,15,16
 122 6 122 6 112 -1.5 c 128,-1,17
 102 -9 102 -9 84 -9 c 0,18,19
 71 -9 71 -9 64 -5 c 128,-1,20
 57 -1 57 -1 54.5 5.5 c 128,-1,21
 52 12 52 12 51.5 20 c 128,-1,22
 51 28 51 28 52 35 c 2,23,-1
 152 669 l 2,24,25
 156 691 156 691 168.5 701.5 c 128,-1,26
 181 712 181 712 201 712 c 0,27,28
 224 712 224 712 232.5 698.5 c 128,-1,29
 241 685 241 685 237 661 c 2,30,-1
 152 124 l 1,31,-1
 127 126 l 1,32,-1
 644 689 l 2,33,34
 651 698 651 698 662.5 705 c 128,-1,35
 674 712 674 712 692 712 c 0,36,37
 709 712 709 712 716 705.5 c 128,-1,38
 723 699 723 699 724 689 c 128,-1,39
 725 679 725 679 724 668 c 2,40,-1
 625 47 l 1,41,-1
 615 77 l 1,42,-1
 681 77 l 2,43,44
 709 77 709 77 719.5 61.5 c 128,-1,45
 730 46 730 46 717 19 c 2,46,-1
 637 -142 l 2,0,1
447 760 m 0,47,48
 388 760 388 760 341.5 786.5 c 128,-1,49
 295 813 295 813 273 867 c 0,50,51
 267 883 267 883 271.5 893.5 c 128,-1,52
 276 904 276 904 289 909 c 0,53,54
 301 914 301 914 311 908 c 128,-1,55
 321 902 321 902 329 886 c 0,56,57
 346 851 346 851 375 833.5 c 128,-1,58
 404 816 404 816 449 816 c 0,59,60
 497 816 497 816 530.5 834 c 128,-1,61
 564 852 564 852 592 894 c 0,62,63
 601 906 601 906 610 910.5 c 128,-1,64
 619 915 619 915 630 910 c 256,65,66
 641 905 641 905 644.5 895 c 128,-1,67
 648 885 648 885 639 871 c 0,68,69
 606 811 606 811 555.5 785.5 c 128,-1,70
 505 760 505 760 447 760 c 0,47,48
EndSplineSet
EndChar

StartChar: uni041A
Encoding: 1050 1050 550
Width: 649
GlyphClass: 2
Flags: W
AnchorPoint: "Anchor-5" 346 353 basechar 0
AnchorPoint: "Anchor-0" 403 705 basechar 0
LayerCount: 2
Fore
SplineSet
93 -7 m 0,0,1
 71 -7 71 -7 60.5 6.5 c 128,-1,2
 50 20 50 20 53 45 c 2,3,-1
 153 671 l 2,4,5
 156 693 156 693 168.5 702.5 c 128,-1,6
 181 712 181 712 204 712 c 256,7,8
 227 712 227 712 237.5 698.5 c 128,-1,9
 248 685 248 685 244 660 c 2,10,-1
 201 395 l 1,11,-1
 325 395 l 1,12,-1
 304 378 l 1,13,-1
 558 691 l 2,14,15
 570 705 570 705 584 709 c 128,-1,16
 598 713 598 713 610.5 709 c 128,-1,17
 623 705 623 705 631 695.5 c 128,-1,18
 639 686 639 686 638 671.5 c 128,-1,19
 637 657 637 657 624 641 c 2,20,-1
 395 362 l 1,21,-1
 354 391 l 1,22,23
 415 383 415 383 454.5 347 c 128,-1,24
 494 311 494 311 517 246 c 2,25,-1
 582 55 l 2,26,27
 589 37 589 37 584 23 c 128,-1,28
 579 9 579 9 567.5 1 c 128,-1,29
 556 -7 556 -7 542 -7 c 128,-1,30
 528 -7 528 -7 515.5 1.5 c 128,-1,31
 503 10 503 10 497 29 c 2,32,-1
 438 206 l 2,33,34
 419 265 419 265 385.5 290 c 128,-1,35
 352 315 352 315 298 315 c 2,36,-1
 189 315 l 1,37,-1
 146 39 l 2,38,39
 142 16 142 16 129 4.5 c 128,-1,40
 116 -7 116 -7 93 -7 c 0,0,1
EndSplineSet
EndChar

StartChar: uni041B
Encoding: 1051 1051 552
Width: 743
GlyphClass: 2
Flags: W
LayerCount: 2
Fore
SplineSet
573 -7 m 0,0,1
 551 -7 551 -7 541 7 c 128,-1,2
 531 21 531 21 535 47 c 2,3,-1
 626 626 l 1,4,-1
 331 626 l 1,5,-1
 303 452 l 2,6,7
 287 349 287 349 264 274 c 128,-1,8
 241 199 241 199 210.5 146 c 128,-1,9
 180 93 180 93 140.5 57.5 c 128,-1,10
 101 22 101 22 52 -3 c 0,11,12
 34 -12 34 -12 18 -8.5 c 128,-1,13
 2 -5 2 -5 -8 13 c 0,14,15
 -17 31 -17 31 -11.5 45.5 c 128,-1,16
 -6 60 -6 60 13 70 c 0,17,18
 48 89 48 89 79 117 c 128,-1,19
 110 145 110 145 136 190 c 128,-1,20
 162 235 162 235 183.5 305 c 128,-1,21
 205 375 205 375 221 476 c 2,22,-1
 250 658 l 2,23,24
 254 681 254 681 267.5 693 c 128,-1,25
 281 705 281 705 304 705 c 2,26,-1
 676 705 l 2,27,28
 702 705 702 705 714.5 691 c 128,-1,29
 727 677 727 677 723 651 c 2,30,-1
 626 38 l 2,31,32
 623 16 623 16 609.5 4.5 c 128,-1,33
 596 -7 596 -7 573 -7 c 0,0,1
EndSplineSet
EndChar

StartChar: uni041F
Encoding: 1055 1055 556
Width: 758
GlyphClass: 2
Flags: W
LayerCount: 2
Fore
SplineSet
93 -7 m 256,0,1
 70 -7 70 -7 60 6 c 128,-1,2
 50 19 50 19 53 45 c 2,3,-1
 151 659 l 2,4,5
 154 682 154 682 168 693.5 c 128,-1,6
 182 705 182 705 205 705 c 2,7,-1
 692 705 l 2,8,9
 718 705 718 705 730 691 c 128,-1,10
 742 677 742 677 738 651 c 2,11,-1
 641 37 l 2,12,13
 638 15 638 15 625 4 c 128,-1,14
 612 -7 612 -7 589 -7 c 256,15,16
 566 -7 566 -7 556 6.5 c 128,-1,17
 546 20 546 20 549 46 c 2,18,-1
 641 626 l 1,19,-1
 238 626 l 1,20,-1
 145 38 l 2,21,22
 142 16 142 16 129 4.5 c 128,-1,23
 116 -7 116 -7 93 -7 c 256,0,1
EndSplineSet
EndChar

StartChar: uni0423
Encoding: 1059 1059 560
Width: 647
GlyphClass: 2
Flags: W
AnchorPoint: "Anchor-0" 387 705 basechar 0
LayerCount: 2
Fore
SplineSet
220 -7 m 256,0,1
 202 -7 202 -7 191 1.5 c 128,-1,2
 180 10 180 10 178.5 24.5 c 128,-1,3
 177 39 177 39 187 55 c 2,4,-1
 304 230 l 1,5,-1
 305 196 l 1,6,-1
 92 655 l 2,7,8
 85 671 85 671 88 684 c 128,-1,9
 91 697 91 697 103 704.5 c 128,-1,10
 115 712 115 712 131 712 c 0,11,12
 152 712 152 712 161.5 700.5 c 128,-1,13
 171 689 171 689 178 672 c 2,14,-1
 358 281 l 1,15,-1
 339 281 l 1,16,-1
 609 683 l 2,17,18
 617 695 617 695 628.5 703.5 c 128,-1,19
 640 712 640 712 658 712 c 0,20,21
 675 712 675 712 686 703.5 c 128,-1,22
 697 695 697 695 698.5 681.5 c 128,-1,23
 700 668 700 668 690 652 c 2,24,-1
 268 23 l 2,25,26
 260 11 260 11 249 2 c 128,-1,27
 238 -7 238 -7 220 -7 c 256,0,1
EndSplineSet
EndChar

StartChar: uni0424
Encoding: 1060 1060 562
Width: 854
GlyphClass: 1
Flags: W
LayerCount: 2
Fore
SplineSet
385 -30 m 0,0,1
 361 -30 361 -30 351.5 -15.5 c 128,-1,2
 342 -1 342 -1 346 24 c 2,3,-1
 355 85 l 1,4,-1
 383 56 l 1,5,-1
 376 56 l 2,6,7
 287 56 287 56 219 88 c 128,-1,8
 151 120 151 120 113.5 179 c 128,-1,9
 76 238 76 238 76 320 c 0,10,11
 76 386 76 386 100 446.5 c 128,-1,12
 124 507 124 507 170 555.5 c 128,-1,13
 216 604 216 604 283 632 c 128,-1,14
 350 660 350 660 435 660 c 2,15,-1
 468 660 l 1,16,-1
 442 631 l 1,17,-1
 452 695 l 2,18,19
 456 718 456 718 469 729 c 128,-1,20
 482 740 482 740 503 740 c 0,21,22
 526 740 526 740 537 726.5 c 128,-1,23
 548 713 548 713 544 687 c 2,24,-1
 534 629 l 1,25,-1
 507 658 l 1,26,-1
 514 658 l 2,27,28
 603 658 603 658 671 626.5 c 128,-1,29
 739 595 739 595 777 535.5 c 128,-1,30
 815 476 815 476 815 394 c 0,31,32
 815 328 815 328 791 267.5 c 128,-1,33
 767 207 767 207 720.5 158.5 c 128,-1,34
 674 110 674 110 607.5 82 c 128,-1,35
 541 54 541 54 455 54 c 2,36,-1
 423 54 l 1,37,-1
 448 83 l 1,38,-1
 438 18 l 2,39,40
 434 -7 434 -7 420.5 -18.5 c 128,-1,41
 407 -30 407 -30 385 -30 c 0,0,1
360 111 m 1,42,-1
 438 605 l 1,43,-1
 456 586 l 1,44,-1
 429 586 l 2,45,46
 367 586 367 586 319.5 564 c 128,-1,47
 272 542 272 542 239 504.5 c 128,-1,48
 206 467 206 467 188.5 419.5 c 128,-1,49
 171 372 171 372 171 321 c 0,50,51
 171 260 171 260 195.5 217.5 c 128,-1,52
 220 175 220 175 268 152.5 c 128,-1,53
 316 130 316 130 384 130 c 2,54,-1
 389 130 l 1,55,-1
 360 111 l 1,42,-1
451 109 m 1,56,-1
 434 128 l 1,57,-1
 461 128 l 2,58,59
 523 128 523 128 571 150 c 128,-1,60
 619 172 619 172 652 209.5 c 128,-1,61
 685 247 685 247 702 294.5 c 128,-1,62
 719 342 719 342 719 393 c 0,63,64
 719 454 719 454 695 496.5 c 128,-1,65
 671 539 671 539 624 561.5 c 128,-1,66
 577 584 577 584 509 584 c 2,67,-1
 503 584 l 1,68,-1
 530 603 l 1,69,-1
 451 109 l 1,56,-1
EndSplineSet
EndChar

StartChar: uni0427
Encoding: 1063 1063 564
Width: 680
GlyphClass: 2
Flags: W
AnchorPoint: "Anchor-5" 313 295 basechar 0
AnchorPoint: "Anchor-0" 394 705 basechar 0
LayerCount: 2
Fore
SplineSet
511 -7 m 0,0,1
 488 -7 488 -7 478 7.5 c 128,-1,2
 468 22 468 22 472 48 c 2,3,-1
 510 293 l 1,4,5
 477 276 477 276 431.5 267 c 128,-1,6
 386 258 386 258 340 258 c 0,7,8
 253 258 253 258 195.5 292 c 128,-1,9
 138 326 138 326 115 391.5 c 128,-1,10
 92 457 92 457 107 552 c 2,11,-1
 125 666 l 2,12,13
 129 689 129 689 142.5 700.5 c 128,-1,14
 156 712 156 712 177 712 c 0,15,16
 200 712 200 712 210 697.5 c 128,-1,17
 220 683 220 683 216 658 c 2,18,-1
 199 555 l 2,19,20
 181 444 181 444 219.5 392 c 128,-1,21
 258 340 258 340 353 340 c 0,22,23
 396 340 396 340 441 348.5 c 128,-1,24
 486 357 486 357 524 378 c 1,25,-1
 570 666 l 2,26,27
 574 689 574 689 587.5 700.5 c 128,-1,28
 601 712 601 712 622 712 c 0,29,30
 646 712 646 712 655.5 697.5 c 128,-1,31
 665 683 665 683 661 658 c 2,32,-1
 563 39 l 2,33,34
 560 16 560 16 546.5 4.5 c 128,-1,35
 533 -7 533 -7 511 -7 c 0,0,1
EndSplineSet
EndChar

StartChar: uni0426
Encoding: 1062 1062 565
Width: 796
GlyphClass: 1
Flags: W
LayerCount: 2
Fore
SplineSet
668 -166 m 0,0,1
 648 -166 648 -166 638.5 -153 c 128,-1,2
 629 -140 629 -140 633 -117 c 2,3,-1
 651 0 l 1,4,-1
 101 0 l 2,5,6
 76 0 76 0 63.5 14.5 c 128,-1,7
 51 29 51 29 55 54 c 2,8,-1
 153 668 l 2,9,10
 156 690 156 690 169 701 c 128,-1,11
 182 712 182 712 204 712 c 0,12,13
 227 712 227 712 237.5 698.5 c 128,-1,14
 248 685 248 685 244 660 c 2,15,-1
 152 79 l 1,16,-1
 555 79 l 1,17,-1
 648 667 l 2,18,19
 651 689 651 689 663.5 700.5 c 128,-1,20
 676 712 676 712 698 712 c 0,21,22
 722 712 722 712 732.5 698.5 c 128,-1,23
 743 685 743 685 739 660 c 2,24,-1
 645 62 l 1,25,-1
 615 79 l 1,26,-1
 696 79 l 2,27,28
 721 79 721 79 732 65.5 c 128,-1,29
 743 52 743 52 739 28 c 2,30,-1
 715 -126 l 2,31,32
 708 -166 708 -166 668 -166 c 0,0,1
EndSplineSet
EndChar

StartChar: uni0428
Encoding: 1064 1064 566
Width: 1057
GlyphClass: 1
Flags: W
LayerCount: 2
Fore
SplineSet
101 0 m 2,0,1
 76 0 76 0 64 14.5 c 128,-1,2
 52 29 52 29 55 54 c 2,3,-1
 153 667 l 2,4,5
 156 689 156 689 169 700.5 c 128,-1,6
 182 712 182 712 203 712 c 0,7,8
 226 712 226 712 236 698.5 c 128,-1,9
 246 685 246 685 243 660 c 2,10,-1
 151 79 l 1,11,-1
 456 79 l 1,12,-1
 549 667 l 2,13,14
 553 689 553 689 565.5 700.5 c 128,-1,15
 578 712 578 712 600 712 c 0,16,17
 623 712 623 712 633.5 698.5 c 128,-1,18
 644 685 644 685 640 660 c 2,19,-1
 548 79 l 1,20,-1
 854 79 l 1,21,-1
 947 667 l 2,22,23
 951 689 951 689 963 700.5 c 128,-1,24
 975 712 975 712 997 712 c 0,25,26
 1020 712 1020 712 1030.5 698.5 c 128,-1,27
 1041 685 1041 685 1037 660 c 2,28,-1
 940 47 l 2,29,30
 936 23 936 23 922 11.5 c 128,-1,31
 908 0 908 0 886 0 c 2,32,-1
 101 0 l 2,0,1
EndSplineSet
EndChar

StartChar: uni0429
Encoding: 1065 1065 567
Width: 1094
GlyphClass: 1
Flags: W
LayerCount: 2
Fore
SplineSet
966 -166 m 0,0,1
 945 -166 945 -166 936 -153 c 128,-1,2
 927 -140 927 -140 931 -117 c 2,3,-1
 949 0 l 1,4,-1
 101 0 l 2,5,6
 76 0 76 0 63.5 14.5 c 128,-1,7
 51 29 51 29 55 54 c 2,8,-1
 153 667 l 2,9,10
 156 689 156 689 169 700.5 c 128,-1,11
 182 712 182 712 203 712 c 0,12,13
 226 712 226 712 236 698.5 c 128,-1,14
 246 685 246 685 243 660 c 2,15,-1
 151 79 l 1,16,-1
 456 79 l 1,17,-1
 550 667 l 2,18,19
 554 689 554 689 566 700.5 c 128,-1,20
 578 712 578 712 600 712 c 0,21,22
 623 712 623 712 633.5 698.5 c 128,-1,23
 644 685 644 685 640 660 c 2,24,-1
 548 79 l 1,25,-1
 854 79 l 1,26,-1
 947 667 l 2,27,28
 950 689 950 689 962.5 700.5 c 128,-1,29
 975 712 975 712 998 712 c 256,30,31
 1021 712 1021 712 1031.5 699.5 c 128,-1,32
 1042 687 1042 687 1038 661 c 2,33,-1
 943 62 l 1,34,-1
 913 79 l 1,35,-1
 994 79 l 2,36,37
 1019 79 1019 79 1030.5 66 c 128,-1,38
 1042 53 1042 53 1038 29 c 2,39,-1
 1013 -124 l 2,40,41
 1011 -145 1011 -145 998 -155.5 c 128,-1,42
 985 -166 985 -166 966 -166 c 0,0,1
EndSplineSet
EndChar

StartChar: uni040F
Encoding: 1039 1039 568
Width: 758
GlyphClass: 1
Flags: W
LayerCount: 2
Fore
SplineSet
316 -166 m 0,0,1
 296 -166 296 -166 287 -153 c 128,-1,2
 278 -140 278 -140 281 -117 c 2,3,-1
 300 0 l 1,4,-1
 101 0 l 2,5,6
 75 0 75 0 63 14.5 c 128,-1,7
 51 29 51 29 54 54 c 2,8,-1
 152 667 l 2,9,10
 155 689 155 689 168.5 700.5 c 128,-1,11
 182 712 182 712 203 712 c 0,12,13
 226 712 226 712 237 698.5 c 128,-1,14
 248 685 248 685 244 660 c 2,15,-1
 152 79 l 1,16,-1
 554 79 l 1,17,-1
 648 668 l 2,18,19
 651 691 651 691 663.5 701.5 c 128,-1,20
 676 712 676 712 698 712 c 0,21,22
 722 712 722 712 732.5 698.5 c 128,-1,23
 743 685 743 685 739 660 c 2,24,-1
 642 47 l 2,25,26
 638 23 638 23 624 11.5 c 128,-1,27
 610 0 610 0 588 0 c 2,28,-1
 382 0 l 1,29,-1
 363 -124 l 2,30,31
 360 -145 360 -145 347.5 -155.5 c 128,-1,32
 335 -166 335 -166 316 -166 c 0,0,1
EndSplineSet
EndChar

StartChar: uni042C
Encoding: 1068 1068 569
Width: 663
GlyphClass: 1
Flags: W
LayerCount: 2
Fore
SplineSet
101 0 m 2,0,1
 76 0 76 0 63.5 14.5 c 128,-1,2
 51 29 51 29 55 54 c 2,3,-1
 152 666 l 2,4,5
 155 688 155 688 168 700 c 128,-1,6
 181 712 181 712 203 712 c 0,7,8
 226 712 226 712 236.5 698 c 128,-1,9
 247 684 247 684 243 659 c 2,10,-1
 202 398 l 1,11,-1
 388 398 l 2,12,13
 463 398 463 398 512.5 375 c 128,-1,14
 562 352 562 352 587 312 c 128,-1,15
 612 272 612 272 612 218 c 0,16,17
 612 111 612 111 546.5 55.5 c 128,-1,18
 481 0 481 0 354 0 c 2,19,-1
 101 0 l 2,0,1
151 76 m 1,20,-1
 357 76 l 2,21,22
 438 76 438 76 479.5 110.5 c 128,-1,23
 521 145 521 145 521 214 c 0,24,25
 521 268 521 268 485.5 295 c 128,-1,26
 450 322 450 322 377 322 c 2,27,-1
 190 322 l 1,28,-1
 151 76 l 1,20,-1
EndSplineSet
EndChar

StartChar: uni042B
Encoding: 1067 1067 570
Width: 865
GlyphClass: 2
Flags: W
AnchorPoint: "Anchor-0" 502 705 basechar 0
LayerCount: 2
Fore
SplineSet
101 0 m 2,0,1
 76 0 76 0 63.5 14.5 c 128,-1,2
 51 29 51 29 55 54 c 2,3,-1
 152 666 l 2,4,5
 155 688 155 688 168 700 c 128,-1,6
 181 712 181 712 203 712 c 0,7,8
 226 712 226 712 236.5 698 c 128,-1,9
 247 684 247 684 243 659 c 2,10,-1
 202 398 l 1,11,-1
 361 398 l 2,12,13
 436 398 436 398 485.5 375 c 128,-1,14
 535 352 535 352 560 312 c 128,-1,15
 585 272 585 272 585 218 c 0,16,17
 585 111 585 111 519.5 55.5 c 128,-1,18
 454 0 454 0 327 0 c 2,19,-1
 101 0 l 2,0,1
151 76 m 1,20,-1
 330 76 l 2,21,22
 412 76 412 76 453 110.5 c 128,-1,23
 494 145 494 145 494 214 c 0,24,25
 494 268 494 268 458.5 295 c 128,-1,26
 423 322 423 322 351 322 c 2,27,-1
 190 322 l 1,28,-1
 151 76 l 1,20,-1
695 -7 m 0,29,30
 673 -7 673 -7 662 7 c 128,-1,31
 651 21 651 21 655 46 c 2,32,-1
 754 667 l 2,33,34
 758 689 758 689 770.5 700.5 c 128,-1,35
 783 712 783 712 804 712 c 0,36,37
 827 712 827 712 838 698.5 c 128,-1,38
 849 685 849 685 845 660 c 2,39,-1
 747 38 l 2,40,41
 744 16 744 16 731 4.5 c 128,-1,42
 718 -7 718 -7 695 -7 c 0,29,30
EndSplineSet
EndChar

StartChar: uni042A
Encoding: 1066 1066 571
Width: 794
GlyphClass: 1
Flags: W
LayerCount: 2
Fore
SplineSet
232 0 m 2,0,1
 206 0 206 0 194 14.5 c 128,-1,2
 182 29 182 29 186 54 c 2,3,-1
 277 626 l 1,4,-1
 111 626 l 2,5,6
 88 626 88 626 77 636.5 c 128,-1,7
 66 647 66 647 68 666 c 0,8,9
 72 685 72 685 83.5 695 c 128,-1,10
 95 705 95 705 115 705 c 2,11,-1
 328 705 l 2,12,13
 354 705 354 705 365.5 691 c 128,-1,14
 377 677 377 677 373 651 c 2,15,-1
 333 398 l 1,16,-1
 518 398 l 2,17,18
 593 398 593 398 642.5 375 c 128,-1,19
 692 352 692 352 717 312 c 128,-1,20
 742 272 742 272 742 218 c 0,21,22
 742 111 742 111 676.5 55.5 c 128,-1,23
 611 0 611 0 484 0 c 2,24,-1
 232 0 l 2,0,1
282 76 m 1,25,-1
 487 76 l 2,26,27
 568 76 568 76 609.5 110.5 c 128,-1,28
 651 145 651 145 651 214 c 0,29,30
 651 268 651 268 615.5 295 c 128,-1,31
 580 322 580 322 508 322 c 2,32,-1
 321 322 l 1,33,-1
 282 76 l 1,25,-1
EndSplineSet
EndChar

StartChar: uni0409
Encoding: 1033 1033 572
Width: 1130
GlyphClass: 1
Flags: W
LayerCount: 2
Fore
SplineSet
568 0 m 2,0,1
 543 0 543 0 530.5 14.5 c 128,-1,2
 518 29 518 29 522 54 c 2,3,-1
 612 626 l 1,4,-1
 331 626 l 1,5,-1
 303 451 l 2,6,7
 287 346 287 346 263 270.5 c 128,-1,8
 239 195 239 195 208.5 143.5 c 128,-1,9
 178 92 178 92 139 57 c 128,-1,10
 100 22 100 22 52 -3 c 0,11,12
 40 -10 40 -10 28 -10 c 128,-1,13
 16 -10 16 -10 6.5 -4 c 128,-1,14
 -3 2 -3 2 -9 14 c 0,15,16
 -17 32 -17 32 -10 46.5 c 128,-1,17
 -3 61 -3 61 15 71 c 0,18,19
 51 90 51 90 81.5 118 c 128,-1,20
 112 146 112 146 138 191 c 128,-1,21
 164 236 164 236 185 305.5 c 128,-1,22
 206 375 206 375 221 474 c 2,23,-1
 250 659 l 2,24,25
 254 682 254 682 267.5 693.5 c 128,-1,26
 281 705 281 705 304 705 c 2,27,-1
 663 705 l 2,28,29
 689 705 689 705 701 691 c 128,-1,30
 713 677 713 677 709 651 c 2,31,-1
 668 398 l 1,32,-1
 855 398 l 2,33,34
 930 398 930 398 979.5 375 c 128,-1,35
 1029 352 1029 352 1054 312 c 128,-1,36
 1079 272 1079 272 1079 218 c 0,37,38
 1079 111 1079 111 1013.5 55.5 c 128,-1,39
 948 0 948 0 821 0 c 2,40,-1
 568 0 l 2,0,1
618 76 m 1,41,-1
 824 76 l 2,42,43
 905 76 905 76 946.5 110.5 c 128,-1,44
 988 145 988 145 988 214 c 0,45,46
 988 268 988 268 952.5 295 c 128,-1,47
 917 322 917 322 844 322 c 2,48,-1
 657 322 l 1,49,-1
 618 76 l 1,41,-1
EndSplineSet
EndChar

StartChar: uni040A
Encoding: 1034 1034 573
Width: 1164
GlyphClass: 1
Flags: W
LayerCount: 2
Fore
SplineSet
92 -7 m 0,0,1
 69 -7 69 -7 59.5 7 c 128,-1,2
 50 21 50 21 53 47 c 2,3,-1
 152 667 l 2,4,5
 156 689 156 689 168.5 700.5 c 128,-1,6
 181 712 181 712 204 712 c 256,7,8
 227 712 227 712 237.5 698.5 c 128,-1,9
 248 685 248 685 244 659 c 2,10,-1
 202 397 l 1,11,-1
 610 397 l 1,12,-1
 653 667 l 2,13,14
 657 689 657 689 670 700.5 c 128,-1,15
 683 712 683 712 706 712 c 0,16,17
 728 712 728 712 738.5 698.5 c 128,-1,18
 749 685 749 685 745 659 c 2,19,-1
 703 398 l 1,20,-1
 889 398 l 2,21,22
 964 398 964 398 1013.5 375 c 128,-1,23
 1063 352 1063 352 1088 312 c 128,-1,24
 1113 272 1113 272 1113 218 c 0,25,26
 1113 111 1113 111 1047.5 55.5 c 128,-1,27
 982 0 982 0 855 0 c 2,28,-1
 602 0 l 2,29,30
 576 0 576 0 564 14.5 c 128,-1,31
 552 29 552 29 556 54 c 2,32,-1
 598 318 l 1,33,-1
 189 318 l 1,34,-1
 146 38 l 2,35,36
 143 17 143 17 129.5 5 c 128,-1,37
 116 -7 116 -7 92 -7 c 0,0,1
652 76 m 1,38,-1
 858 76 l 2,39,40
 940 76 940 76 981 110.5 c 128,-1,41
 1022 145 1022 145 1022 214 c 0,42,43
 1022 268 1022 268 986.5 295 c 128,-1,44
 951 322 951 322 879 322 c 2,45,-1
 691 322 l 1,46,-1
 652 76 l 1,38,-1
EndSplineSet
EndChar

StartChar: uni0404
Encoding: 1028 1028 575
Width: 675
GlyphClass: 2
Flags: W
AnchorPoint: "Anchor-2" 347 0 basechar 0
AnchorPoint: "Anchor-0" 460 705 basechar 0
LayerCount: 2
Fore
SplineSet
384 -9 m 0,0,1
 294 -9 294 -9 224 25.5 c 128,-1,2
 154 60 154 60 115 129.5 c 128,-1,3
 76 199 76 199 76 303 c 0,4,5
 76 391 76 391 101 466 c 128,-1,6
 126 541 126 541 173.5 596.5 c 128,-1,7
 221 652 221 652 289.5 683 c 128,-1,8
 358 714 358 714 444 714 c 0,9,10
 503 714 503 714 557.5 697 c 128,-1,11
 612 680 612 680 654 644 c 0,12,13
 669 634 669 634 673.5 619.5 c 128,-1,14
 678 605 678 605 673.5 592.5 c 128,-1,15
 669 580 669 580 659.5 571.5 c 128,-1,16
 650 563 650 563 636.5 563 c 128,-1,17
 623 563 623 563 607 574 c 0,18,19
 572 604 572 604 530 617 c 128,-1,20
 488 630 488 630 440 630 c 0,21,22
 368 630 368 630 313 598 c 128,-1,23
 258 566 258 566 223.5 508.5 c 128,-1,24
 189 451 189 451 179 375 c 1,25,-1
 168 396 l 1,26,-1
 488 396 l 2,27,28
 509 396 509 396 520 387.5 c 128,-1,29
 531 379 531 379 530 363 c 0,30,31
 529 342 529 342 516.5 331 c 128,-1,32
 504 320 504 320 483 320 c 2,33,-1
 166 320 l 1,34,-1
 175 334 l 1,35,36
 172 253 172 253 193 195 c 128,-1,37
 214 137 214 137 263 106 c 128,-1,38
 312 75 312 75 394 75 c 0,39,40
 435 75 435 75 474.5 86.5 c 128,-1,41
 514 98 514 98 553 129 c 0,42,43
 570 140 570 140 583.5 139 c 128,-1,44
 597 138 597 138 605.5 130 c 128,-1,45
 614 122 614 122 616.5 109.5 c 128,-1,46
 619 97 619 97 614 83.5 c 128,-1,47
 609 70 609 70 595 60 c 0,48,49
 551 26 551 26 496.5 8.5 c 128,-1,50
 442 -9 442 -9 384 -9 c 0,0,1
EndSplineSet
EndChar

StartChar: uni042D
Encoding: 1069 1069 576
Width: 675
GlyphClass: 2
Flags: W
AnchorPoint: "Anchor-2" 261 0 basechar 0
AnchorPoint: "Anchor-0" 372 705 basechar 0
LayerCount: 2
Fore
SplineSet
265 -9 m 0,0,1
 206 -9 206 -9 152.5 8 c 128,-1,2
 99 25 99 25 55 61 c 0,3,4
 41 71 41 71 37 85 c 128,-1,5
 33 99 33 99 36.5 112 c 128,-1,6
 40 125 40 125 50 133.5 c 128,-1,7
 60 142 60 142 73.5 142.5 c 128,-1,8
 87 143 87 143 102 131 c 0,9,10
 137 102 137 102 179 88.5 c 128,-1,11
 221 75 221 75 269 75 c 0,12,13
 344 75 344 75 400 108.5 c 128,-1,14
 456 142 456 142 489.5 201.5 c 128,-1,15
 523 261 523 261 532 338 c 1,16,-1
 540 320 l 1,17,-1
 223 320 l 2,18,19
 202 320 202 320 191 328.5 c 128,-1,20
 180 337 180 337 181 353 c 0,21,22
 182 374 182 374 194.5 385 c 128,-1,23
 207 396 207 396 227 396 c 2,24,-1
 543 396 l 1,25,-1
 535 380 l 1,26,27
 537 457 537 457 517.5 513 c 128,-1,28
 498 569 498 569 451 599.5 c 128,-1,29
 404 630 404 630 323 630 c 0,30,31
 281 630 281 630 240 618.5 c 128,-1,32
 199 607 199 607 157 577 c 0,33,34
 140 567 140 567 126 568 c 128,-1,35
 112 569 112 569 103.5 578 c 128,-1,36
 95 587 95 587 92.5 599.5 c 128,-1,37
 90 612 90 612 95.5 625 c 128,-1,38
 101 638 101 638 116 646 c 0,39,40
 165 682 165 682 219 698 c 128,-1,41
 273 714 273 714 333 714 c 0,42,43
 422 714 422 714 489.5 680 c 128,-1,44
 557 646 557 646 595 575.5 c 128,-1,45
 633 505 633 505 633 397 c 0,46,47
 633 311 633 311 608 237 c 128,-1,48
 583 163 583 163 535.5 108 c 128,-1,49
 488 53 488 53 419.5 22 c 128,-1,50
 351 -9 351 -9 265 -9 c 0,0,1
EndSplineSet
EndChar

StartChar: uni040B
Encoding: 1035 1035 580
Width: 852
GlyphClass: 1
Flags: W
LayerCount: 2
Fore
SplineSet
264 -7 m 0,0,1
 242 -7 242 -7 232 7 c 128,-1,2
 222 21 222 21 225 46 c 2,3,-1
 317 626 l 1,4,-1
 106 626 l 2,5,6
 86 626 86 626 74.5 635 c 128,-1,7
 63 644 63 644 63 659 c 0,8,9
 63 681 63 681 76.5 693 c 128,-1,10
 90 705 90 705 111 705 c 2,11,-1
 635 705 l 2,12,13
 655 705 655 705 666 697 c 128,-1,14
 677 689 677 689 677 673 c 0,15,16
 677 651 677 651 664.5 638.5 c 128,-1,17
 652 626 652 626 630 626 c 2,18,-1
 411 626 l 1,19,-1
 375 402 l 1,20,21
 408 419 408 419 454 428 c 128,-1,22
 500 437 500 437 547 437 c 0,23,24
 634 437 634 437 691 403 c 128,-1,25
 748 369 748 369 771.5 303.5 c 128,-1,26
 795 238 795 238 780 143 c 2,27,-1
 763 39 l 2,28,29
 760 15 760 15 746 4 c 128,-1,30
 732 -7 732 -7 711 -7 c 0,31,32
 688 -7 688 -7 678 7.5 c 128,-1,33
 668 22 668 22 672 48 c 2,34,-1
 688 141 l 2,35,36
 706 253 706 253 666.5 304 c 128,-1,37
 627 355 627 355 532 355 c 0,38,39
 489 355 489 355 444.5 347 c 128,-1,40
 400 339 400 339 361 318 c 1,41,-1
 317 39 l 2,42,43
 314 17 314 17 301 5 c 128,-1,44
 288 -7 288 -7 264 -7 c 0,0,1
EndSplineSet
EndChar

StartChar: uni042E
Encoding: 1070 1070 581
Width: 1021
GlyphClass: 1
Flags: W
AnchorPoint: "Anchor-0" 547 674 basechar 0
LayerCount: 2
Fore
SplineSet
621 -9 m 0,0,1
 523 -9 523 -9 455.5 31 c 128,-1,2
 388 71 388 71 355 144.5 c 128,-1,3
 322 218 322 218 325 318 c 1,4,-1
 189 318 l 1,5,-1
 146 40 l 2,6,7
 142 17 142 17 129.5 5 c 128,-1,8
 117 -7 117 -7 93 -7 c 0,9,10
 70 -7 70 -7 60 7.5 c 128,-1,11
 50 22 50 22 54 48 c 2,12,-1
 152 665 l 2,13,14
 156 689 156 689 169 700.5 c 128,-1,15
 182 712 182 712 205 712 c 256,16,17
 228 712 228 712 238 697.5 c 128,-1,18
 248 683 248 683 243 657 c 2,19,-1
 202 397 l 1,20,-1
 333 397 l 1,21,22
 350 491 350 491 395.5 562 c 128,-1,23
 441 633 441 633 514 673.5 c 128,-1,24
 587 714 587 714 684 714 c 0,25,26
 775 714 775 714 841.5 679 c 128,-1,27
 908 644 908 644 944.5 576 c 128,-1,28
 981 508 981 508 981 411 c 0,29,30
 981 321 981 321 957 244.5 c 128,-1,31
 933 168 933 168 886.5 111 c 128,-1,32
 840 54 840 54 773.5 22.5 c 128,-1,33
 707 -9 707 -9 621 -9 c 0,0,1
623 73 m 0,34,35
 707 73 707 73 765 117 c 128,-1,36
 823 161 823 161 853 237 c 128,-1,37
 883 313 883 313 883 410 c 0,38,39
 883 522 883 522 829.5 577 c 128,-1,40
 776 632 776 632 681 632 c 0,41,42
 598 632 598 632 540 588.5 c 128,-1,43
 482 545 482 545 452 469 c 128,-1,44
 422 393 422 393 422 296 c 0,45,46
 422 183 422 183 475.5 128 c 128,-1,47
 529 73 529 73 623 73 c 0,34,35
EndSplineSet
EndChar

StartChar: uni042F
Encoding: 1071 1071 582
Width: 674
GlyphClass: 1
Flags: W
AnchorPoint: "Anchor-0" 415 690 basechar 0
LayerCount: 2
Fore
SplineSet
502 -7 m 0,0,1
 481 -7 481 -7 471 7.5 c 128,-1,2
 461 22 461 22 465 48 c 2,3,-1
 505 294 l 1,4,-1
 394 294 l 2,5,6
 363 294 363 294 340 288.5 c 128,-1,7
 317 283 317 283 298 268 c 128,-1,8
 279 253 279 253 259 225 c 2,9,-1
 114 15 l 2,10,11
 104 -1 104 -1 90.5 -5 c 128,-1,12
 77 -9 77 -9 64 -5 c 128,-1,13
 51 -1 51 -1 42 9 c 128,-1,14
 33 19 33 19 32 33 c 128,-1,15
 31 47 31 47 42 63 c 2,16,-1
 156 227 l 2,17,18
 187 272 187 272 215.5 291.5 c 128,-1,19
 244 311 244 311 284 311 c 2,20,-1
 314 311 l 1,21,-1
 326 298 l 1,22,23
 217 300 217 300 161.5 351 c 128,-1,24
 106 402 106 402 106 489 c 0,25,26
 106 562 106 562 140 610 c 128,-1,27
 174 658 174 658 232.5 681.5 c 128,-1,28
 291 705 291 705 365 705 c 2,29,-1
 607 705 l 2,30,31
 634 705 634 705 645.5 691 c 128,-1,32
 657 677 657 677 654 651 c 2,33,-1
 556 38 l 2,34,35
 553 15 553 15 539.5 4 c 128,-1,36
 526 -7 526 -7 502 -7 c 0,0,1
348 366 m 2,37,-1
 516 366 l 1,38,-1
 558 629 l 1,39,-1
 361 629 l 2,40,41
 283 629 283 629 240 592.5 c 128,-1,42
 197 556 197 556 197 488 c 0,43,44
 197 427 197 427 233.5 396.5 c 128,-1,45
 270 366 270 366 348 366 c 2,37,-1
EndSplineSet
EndChar

StartChar: uni0402
Encoding: 1026 1026 583
Width: 848
GlyphClass: 1
Flags: W
LayerCount: 2
Fore
SplineSet
526 -189 m 0,0,1
 501 -189 501 -189 476.5 -186 c 128,-1,2
 452 -183 452 -183 434 -177 c 0,3,4
 420 -172 420 -172 413 -163 c 128,-1,5
 406 -154 406 -154 406 -142.5 c 128,-1,6
 406 -131 406 -131 411 -121.5 c 128,-1,7
 416 -112 416 -112 426.5 -107 c 128,-1,8
 437 -102 437 -102 450 -105 c 0,9,10
 465 -108 465 -108 481 -110.5 c 128,-1,11
 497 -113 497 -113 515 -113 c 0,12,13
 576 -113 576 -113 615.5 -72 c 128,-1,14
 655 -31 655 -31 668 50 c 2,15,-1
 682 136 l 2,16,17
 700 249 700 249 658.5 302 c 128,-1,18
 617 355 617 355 525 355 c 0,19,20
 481 355 481 355 440 347 c 128,-1,21
 399 339 399 339 361 318 c 1,22,-1
 317 39 l 2,23,24
 314 17 314 17 301 5 c 128,-1,25
 288 -7 288 -7 264 -7 c 0,26,27
 242 -7 242 -7 232 7.5 c 128,-1,28
 222 22 222 22 226 47 c 2,29,-1
 318 626 l 1,30,-1
 106 626 l 2,31,32
 86 626 86 626 74.5 635 c 128,-1,33
 63 644 63 644 63 659 c 0,34,35
 63 681 63 681 76.5 693 c 128,-1,36
 90 705 90 705 111 705 c 2,37,-1
 635 705 l 2,38,39
 655 705 655 705 666 697 c 128,-1,40
 677 689 677 689 677 673 c 0,41,42
 677 651 677 651 664.5 638.5 c 128,-1,43
 652 626 652 626 630 626 c 2,44,-1
 411 626 l 1,45,-1
 375 402 l 1,46,47
 408 419 408 419 449.5 428 c 128,-1,48
 491 437 491 437 538 437 c 0,49,50
 602 437 602 437 651.5 418 c 128,-1,51
 701 399 701 399 732 361.5 c 128,-1,52
 763 324 763 324 775 269 c 128,-1,53
 787 214 787 214 775 142 c 2,54,-1
 761 53 l 2,55,56
 748 -26 748 -26 717 -80 c 128,-1,57
 686 -134 686 -134 638 -161.5 c 128,-1,58
 590 -189 590 -189 526 -189 c 0,0,1
EndSplineSet
EndChar

StartChar: uni0462
Encoding: 1122 1122 584
Width: 729
GlyphClass: 1
Flags: W
LayerCount: 2
Fore
SplineSet
165 0 m 2,0,1
 140 0 140 0 128 14 c 128,-1,2
 116 28 116 28 119 53 c 2,3,-1
 196 533 l 1,4,-1
 64 533 l 2,5,6
 43 533 43 533 32.5 542.5 c 128,-1,7
 22 552 22 552 25 569 c 0,8,9
 30 604 30 604 68 604 c 2,10,-1
 230 604 l 1,11,-1
 202 568 l 1,12,-1
 217 667 l 2,13,14
 221 690 221 690 234.5 701 c 128,-1,15
 248 712 248 712 271 712 c 0,16,17
 292 712 292 712 302 698.5 c 128,-1,18
 312 685 312 685 309 660 c 2,19,-1
 295 568 l 1,20,-1
 281 604 l 1,21,-1
 501 604 l 2,22,23
 522 604 522 604 532.5 595 c 128,-1,24
 543 586 543 586 540 569 c 0,25,26
 534 533 534 533 497 533 c 2,27,-1
 289 533 l 1,28,-1
 267 398 l 1,29,-1
 453 398 l 2,30,31
 565 398 565 398 621 348.5 c 128,-1,32
 677 299 677 299 677 218 c 0,33,34
 677 111 677 111 611.5 55.5 c 128,-1,35
 546 0 546 0 419 0 c 2,36,-1
 165 0 l 2,0,1
216 76 m 1,37,-1
 422 76 l 2,38,39
 503 76 503 76 544.5 110.5 c 128,-1,40
 586 145 586 145 586 214 c 0,41,42
 586 268 586 268 550.5 295 c 128,-1,43
 515 322 515 322 442 322 c 2,44,-1
 255 322 l 1,45,-1
 216 76 l 1,37,-1
EndSplineSet
EndChar

StartChar: uni046A
Encoding: 1130 1130 585
Width: 968
GlyphClass: 1
Flags: W
LayerCount: 2
Fore
SplineSet
447 -7 m 0,0,1
 423 -7 423 -7 412.5 6.5 c 128,-1,2
 402 20 402 20 406 45 c 2,3,-1
 449 315 l 1,4,-1
 375 315 l 2,5,6
 320 315 320 315 279.5 289.5 c 128,-1,7
 239 264 239 264 203 206 c 2,8,-1
 84 19 l 2,9,10
 74 3 74 3 60 -3 c 128,-1,11
 46 -9 46 -9 32.5 -6 c 128,-1,12
 19 -3 19 -3 10 6.5 c 128,-1,13
 1 16 1 16 0 30.5 c 128,-1,14
 -1 45 -1 45 11 64 c 2,15,-1
 128 248 l 2,16,17
 159 298 159 298 196.5 330 c 128,-1,18
 234 362 234 362 278 377.5 c 128,-1,19
 322 393 322 393 371 393 c 2,20,-1
 440 393 l 1,21,-1
 431 371 l 1,22,-1
 238 647 l 2,23,24
 227 663 227 663 227 676 c 128,-1,25
 227 689 227 689 237.5 697 c 128,-1,26
 248 705 248 705 269 705 c 2,27,-1
 831 705 l 2,28,29
 854 705 854 705 864.5 696.5 c 128,-1,30
 875 688 875 688 873.5 674.5 c 128,-1,31
 872 661 872 661 856 646 c 2,32,-1
 577 371 l 1,33,-1
 569 393 l 1,34,-1
 633 393 l 2,35,36
 684 393 684 393 723.5 374.5 c 128,-1,37
 763 356 763 356 792 322.5 c 128,-1,38
 821 289 821 289 835 246 c 2,39,-1
 901 55 l 2,40,41
 907 37 907 37 902.5 23 c 128,-1,42
 898 9 898 9 886.5 1 c 128,-1,43
 875 -7 875 -7 861 -7 c 128,-1,44
 847 -7 847 -7 834 1.5 c 128,-1,45
 821 10 821 10 815 29 c 2,46,-1
 757 206 l 2,47,48
 738 265 738 265 704.5 290 c 128,-1,49
 671 315 671 315 617 315 c 2,50,-1
 542 315 l 1,51,-1
 498 36 l 2,52,53
 495 15 495 15 482 4 c 128,-1,54
 469 -7 469 -7 447 -7 c 0,0,1
504 395 m 1,55,-1
 633 523 l 1,56,-1
 777 657 l 1,57,-1
 556 636 l 1,58,-1
 309 648 l 1,59,-1
 401 540 l 1,60,-1
 504 395 l 1,55,-1
EndSplineSet
EndChar

StartChar: uni0474
Encoding: 1140 1140 587
Width: 749
GlyphClass: 1
Flags: W
LayerCount: 2
Fore
SplineSet
309 -7 m 0,0,1
 288 -7 288 -7 275.5 4 c 128,-1,2
 263 15 263 15 257 36 c 2,3,-1
 85 651 l 2,4,5
 81 668 81 668 84.5 681 c 128,-1,6
 88 694 88 694 99 701 c 128,-1,7
 110 708 110 708 125 708 c 0,8,9
 144 708 144 708 155.5 699 c 128,-1,10
 167 690 167 690 173 667 c 2,11,-1
 333 77 l 1,12,-1
 298 77 l 1,13,-1
 551 521 l 2,14,15
 589 587 589 587 623.5 628 c 128,-1,16
 658 669 658 669 699 689.5 c 128,-1,17
 740 710 740 710 797 713 c 0,18,19
 814 714 814 714 824.5 707 c 128,-1,20
 835 700 835 700 839 689 c 128,-1,21
 843 678 843 678 840.5 666 c 128,-1,22
 838 654 838 654 829.5 645.5 c 128,-1,23
 821 637 821 637 806 635 c 0,24,25
 770 632 770 632 742 617 c 128,-1,26
 714 602 714 602 689 571.5 c 128,-1,27
 664 541 664 541 634 492 c 2,28,-1
 365 28 l 2,29,30
 354 10 354 10 341.5 1.5 c 128,-1,31
 329 -7 329 -7 309 -7 c 0,0,1
EndSplineSet
EndChar

StartChar: uni0496
Encoding: 1174 1174 588
Width: 1017
GlyphClass: 1
Flags: W
LayerCount: 2
Fore
SplineSet
918 -166 m 0,0,1
 900 -166 900 -166 890 -153 c 128,-1,2
 880 -140 880 -140 883 -117 c 2,3,-1
 906 30 l 1,4,-1
 928 0 l 1,5,-1
 872 0 l 2,6,7
 858 0 858 0 845 6 c 128,-1,8
 832 12 832 12 826 30 c 2,9,-1
 768 206 l 2,10,11
 749 265 749 265 715.5 290 c 128,-1,12
 682 315 682 315 628 315 c 2,13,-1
 546 315 l 1,14,-1
 501 36 l 2,15,16
 498 15 498 15 485.5 4 c 128,-1,17
 473 -7 473 -7 452 -7 c 0,18,19
 429 -7 429 -7 419.5 6 c 128,-1,20
 410 19 410 19 413 43 c 2,21,-1
 456 315 l 1,22,-1
 375 315 l 2,23,24
 320 315 320 315 279.5 290 c 128,-1,25
 239 265 239 265 203 206 c 2,26,-1
 84 19 l 2,27,28
 74 3 74 3 60 -3 c 128,-1,29
 46 -9 46 -9 32.5 -6 c 128,-1,30
 19 -3 19 -3 10 6.5 c 128,-1,31
 1 16 1 16 0 30.5 c 128,-1,32
 -1 45 -1 45 11 64 c 2,33,-1
 127 246 l 2,34,35
 169 312 169 312 218.5 347.5 c 128,-1,36
 268 383 268 383 330 391 c 1,37,-1
 298 362 l 1,38,-1
 152 649 l 2,39,40
 143 666 143 666 146.5 680 c 128,-1,41
 150 694 150 694 160.5 702 c 128,-1,42
 171 710 171 710 184.5 711.5 c 128,-1,43
 198 713 198 713 211 706.5 c 128,-1,44
 224 700 224 700 232 683 c 2,45,-1
 383 378 l 1,46,-1
 362 395 l 1,47,-1
 468 395 l 1,48,-1
 512 670 l 2,49,50
 516 692 516 692 528 702 c 128,-1,51
 540 712 540 712 562 712 c 256,52,53
 584 712 584 712 594 699 c 128,-1,54
 604 686 604 686 600 662 c 2,55,-1
 558 395 l 1,56,-1
 655 395 l 1,57,-1
 634 378 l 1,58,-1
 888 691 l 2,59,60
 900 705 900 705 914 709 c 128,-1,61
 928 713 928 713 940.5 709 c 128,-1,62
 953 705 953 705 961 695.5 c 128,-1,63
 969 686 969 686 968 671.5 c 128,-1,64
 967 657 967 657 954 641 c 2,65,-1
 723 362 l 1,66,-1
 684 391 l 1,67,68
 724 386 724 386 755.5 368 c 128,-1,69
 787 350 787 350 809.5 319.5 c 128,-1,70
 832 289 832 289 847 246 c 2,71,-1
 914 48 l 1,72,-1
 876 77 l 1,73,-1
 946 77 l 2,74,75
 970 77 970 77 982 64 c 128,-1,76
 994 51 994 51 990 27 c 2,77,-1
 965 -125 l 2,78,79
 963 -146 963 -146 951 -156 c 128,-1,80
 939 -166 939 -166 918 -166 c 0,0,1
EndSplineSet
EndChar

StartChar: uni0498
Encoding: 1176 1176 589
Width: 639
GlyphClass: 2
Flags: W
AnchorPoint: "Anchor-2" 288 0 basechar 0
AnchorPoint: "Anchor-0" 385 705 basechar 0
LayerCount: 2
Fore
SplineSet
262 -166 m 0,0,1
 244 -166 244 -166 234 -153.5 c 128,-1,2
 224 -141 224 -141 228 -118 c 2,3,-1
 253 41 l 1,4,-1
 336 41 l 1,5,-1
 310 -126 l 2,6,7
 307 -147 307 -147 294 -156.5 c 128,-1,8
 281 -166 281 -166 262 -166 c 0,0,1
300 -9 m 0,9,10
 226 -9 226 -9 162 8.5 c 128,-1,11
 98 26 98 26 45 64 c 0,12,13
 33 73 33 73 29 85.5 c 128,-1,14
 25 98 25 98 27.5 110 c 128,-1,15
 30 122 30 122 38.5 130 c 128,-1,16
 47 138 47 138 59.5 139 c 128,-1,17
 72 140 72 140 88 130 c 0,18,19
 120 109 120 109 153.5 96 c 128,-1,20
 187 83 187 83 224 77.5 c 128,-1,21
 261 72 261 72 301 72 c 0,22,23
 348 72 348 72 388.5 85 c 128,-1,24
 429 98 429 98 454 128.5 c 128,-1,25
 479 159 479 159 479 210 c 0,26,27
 479 265 479 265 444.5 292 c 128,-1,28
 410 319 410 319 343 319 c 2,29,-1
 212 319 l 2,30,31
 192 319 192 319 181 328 c 128,-1,32
 170 337 170 337 171 353 c 0,33,34
 172 372 172 372 184.5 383.5 c 128,-1,35
 197 395 197 395 217 395 c 2,36,-1
 352 395 l 2,37,38
 426 395 426 395 470 429 c 128,-1,39
 514 463 514 463 514 528 c 0,40,41
 514 566 514 566 495 589 c 128,-1,42
 476 612 476 612 443 623 c 128,-1,43
 410 634 410 634 366 634 c 0,44,45
 315 634 315 634 264.5 620.5 c 128,-1,46
 214 607 214 607 171 580 c 0,47,48
 154 570 154 570 140 571 c 128,-1,49
 126 572 126 572 117.5 580.5 c 128,-1,50
 109 589 109 589 107.5 601.5 c 128,-1,51
 106 614 106 614 112 626.5 c 128,-1,52
 118 639 118 639 133 648 c 0,53,54
 185 680 185 680 248.5 697 c 128,-1,55
 312 714 312 714 376 714 c 0,56,57
 443 714 443 714 495 693.5 c 128,-1,58
 547 673 547 673 577 635 c 128,-1,59
 607 597 607 597 607 542 c 0,60,61
 607 462 607 462 558 412 c 128,-1,62
 509 362 509 362 429 351 c 1,63,-1
 429 366 l 1,64,65
 495 355 495 355 533 312.5 c 128,-1,66
 571 270 571 270 571 206 c 0,67,68
 571 132 571 132 536 84.5 c 128,-1,69
 501 37 501 37 439.5 14 c 128,-1,70
 378 -9 378 -9 300 -9 c 0,9,10
EndSplineSet
Substitution2: "'locl' Localized Forms in Cyrillic lookup 17 subtable" uni0498.loclCHU
Substitution2: "'locl' Localized Forms in Cyrillic lookup 16 subtable" uni0498.loclBSH
AlternateSubs2: "'aalt' Access All Alternates lookup 1 subtable" uni0498.loclBSH uni0498.loclCHU
EndChar

StartChar: uni049A
Encoding: 1178 1178 590
Width: 687
GlyphClass: 1
Flags: W
LayerCount: 2
Fore
SplineSet
588 -166 m 0,0,1
 570 -166 570 -166 560 -153 c 128,-1,2
 550 -140 550 -140 554 -117 c 2,3,-1
 577 30 l 1,4,-1
 587 0 l 1,5,-1
 542 0 l 2,6,7
 528 0 528 0 515 6.5 c 128,-1,8
 502 13 502 13 496 31 c 2,9,-1
 438 206 l 2,10,11
 419 265 419 265 385.5 290 c 128,-1,12
 352 315 352 315 298 315 c 2,13,-1
 189 315 l 1,14,-1
 146 39 l 2,15,16
 142 16 142 16 129 4.5 c 128,-1,17
 116 -7 116 -7 93 -7 c 0,18,19
 71 -7 71 -7 60.5 6.5 c 128,-1,20
 50 20 50 20 53 45 c 2,21,-1
 153 671 l 2,22,23
 156 693 156 693 168.5 702.5 c 128,-1,24
 181 712 181 712 204 712 c 256,25,26
 227 712 227 712 237.5 698.5 c 128,-1,27
 248 685 248 685 244 660 c 2,28,-1
 201 395 l 1,29,-1
 325 395 l 1,30,-1
 304 378 l 1,31,-1
 558 691 l 2,32,33
 570 705 570 705 584 709 c 128,-1,34
 598 713 598 713 610.5 709 c 128,-1,35
 623 705 623 705 631 695.5 c 128,-1,36
 639 686 639 686 638 671.5 c 128,-1,37
 637 657 637 657 624 641 c 2,38,-1
 395 362 l 1,39,-1
 354 391 l 1,40,41
 415 383 415 383 454.5 347 c 128,-1,42
 494 311 494 311 517 246 c 2,43,-1
 584 48 l 1,44,-1
 551 77 l 1,45,-1
 616 77 l 2,46,47
 640 77 640 77 652 64 c 128,-1,48
 664 51 664 51 660 27 c 2,49,-1
 636 -125 l 2,50,51
 633 -146 633 -146 621 -156 c 128,-1,52
 609 -166 609 -166 588 -166 c 0,0,1
EndSplineSet
EndChar

StartChar: uni049C
Encoding: 1180 1180 591
Width: 684
GlyphClass: 1
Flags: W
LayerCount: 2
Fore
SplineSet
93 -7 m 0,0,1
 71 -7 71 -7 60.5 6.5 c 128,-1,2
 50 20 50 20 53 45 c 2,3,-1
 153 668 l 2,4,5
 156 690 156 690 168.5 701 c 128,-1,6
 181 712 181 712 204 712 c 256,7,8
 227 712 227 712 237.5 698.5 c 128,-1,9
 248 685 248 685 244 660 c 2,10,-1
 201 394 l 1,11,-1
 268 394 l 1,12,-1
 290 533 l 2,13,14
 296 567 296 567 329 567 c 0,15,16
 346 567 346 567 354 557 c 128,-1,17
 362 547 362 547 359 529 c 2,18,-1
 337 394 l 1,19,-1
 355 394 l 1,20,-1
 343 384 l 1,21,-1
 593 691 l 2,22,23
 605 706 605 706 619 710 c 128,-1,24
 633 714 633 714 645.5 710 c 128,-1,25
 658 706 658 706 666 696.5 c 128,-1,26
 674 687 674 687 673 673 c 128,-1,27
 672 659 672 659 659 643 c 2,28,-1
 430 362 l 1,29,-1
 389 391 l 1,30,31
 430 386 430 386 461 368.5 c 128,-1,32
 492 351 492 351 514.5 320.5 c 128,-1,33
 537 290 537 290 552 246 c 2,34,-1
 617 55 l 2,35,36
 624 37 624 37 619 23 c 128,-1,37
 614 9 614 9 602.5 1 c 128,-1,38
 591 -7 591 -7 577 -7 c 128,-1,39
 563 -7 563 -7 551 1 c 128,-1,40
 539 9 539 9 533 28 c 2,41,-1
 473 206 l 2,42,43
 454 266 454 266 420.5 291.5 c 128,-1,44
 387 317 387 317 334 317 c 2,45,-1
 307 317 l 1,46,-1
 326 327 l 1,47,-1
 303 178 l 2,48,49
 298 145 298 145 264 145 c 0,50,51
 229 145 229 145 235 184 c 2,52,-1
 256 317 l 1,53,-1
 189 317 l 1,54,-1
 145 37 l 2,55,56
 141 14 141 14 128.5 3.5 c 128,-1,57
 116 -7 116 -7 93 -7 c 0,0,1
EndSplineSet
EndChar

StartChar: uni049E
Encoding: 1182 1182 592
Width: 690
GlyphClass: 1
Flags: W
LayerCount: 2
Fore
SplineSet
137 -7 m 0,0,1
 114 -7 114 -7 103.5 6.5 c 128,-1,2
 93 20 93 20 97 45 c 2,3,-1
 175 536 l 1,4,-1
 68 536 l 2,5,6
 49 536 49 536 39 545 c 128,-1,7
 29 554 29 554 32 570 c 256,8,9
 35 586 35 586 45 595 c 128,-1,10
 55 604 55 604 72 604 c 2,11,-1
 203 604 l 1,12,-1
 179 566 l 1,13,-1
 196 668 l 2,14,15
 199 690 199 690 211.5 701 c 128,-1,16
 224 712 224 712 246 712 c 0,17,18
 269 712 269 712 280 699 c 128,-1,19
 291 686 291 686 287 660 c 2,20,-1
 272 565 l 1,21,-1
 262 604 l 1,22,-1
 372 604 l 2,23,24
 391 604 391 604 401 595 c 128,-1,25
 411 586 411 586 408 570 c 256,26,27
 405 554 405 554 395 545 c 128,-1,28
 385 536 385 536 367 536 c 2,29,-1
 268 536 l 1,30,-1
 245 395 l 1,31,-1
 361 395 l 1,32,-1
 341 378 l 1,33,-1
 594 691 l 2,34,35
 606 705 606 705 620 709 c 128,-1,36
 634 713 634 713 646.5 709.5 c 128,-1,37
 659 706 659 706 667 696 c 128,-1,38
 675 686 675 686 674.5 672 c 128,-1,39
 674 658 674 658 661 642 c 2,40,-1
 432 362 l 1,41,-1
 390 391 l 1,42,43
 430 386 430 386 461 368.5 c 128,-1,44
 492 351 492 351 515 320.5 c 128,-1,45
 538 290 538 290 553 246 c 2,46,-1
 618 55 l 2,47,48
 625 37 625 37 620 23 c 128,-1,49
 615 9 615 9 603.5 1 c 128,-1,50
 592 -7 592 -7 578 -6.5 c 128,-1,51
 564 -6 564 -6 551.5 2.5 c 128,-1,52
 539 11 539 11 533 29 c 2,53,-1
 474 206 l 2,54,55
 455 265 455 265 421.5 290 c 128,-1,56
 388 315 388 315 334 315 c 2,57,-1
 232 315 l 1,58,-1
 188 37 l 2,59,60
 185 14 185 14 172 3.5 c 128,-1,61
 159 -7 159 -7 137 -7 c 0,0,1
EndSplineSet
EndChar

StartChar: uni04A0
Encoding: 1184 1184 593
Width: 780
GlyphClass: 1
Flags: W
LayerCount: 2
Fore
SplineSet
224 -7 m 0,0,1
 202 -7 202 -7 191.5 6.5 c 128,-1,2
 181 20 181 20 184 45 c 2,3,-1
 277 627 l 1,4,-1
 106 627 l 2,5,6
 86 627 86 627 74.5 635.5 c 128,-1,7
 63 644 63 644 63 659 c 0,8,9
 63 681 63 681 76 693 c 128,-1,10
 89 705 89 705 111 705 c 2,11,-1
 334 705 l 2,12,13
 357 705 357 705 367.5 691.5 c 128,-1,14
 378 678 378 678 374 653 c 2,15,-1
 332 395 l 1,16,-1
 456 395 l 1,17,-1
 435 378 l 1,18,-1
 690 691 l 2,19,20
 701 705 701 705 715 709 c 128,-1,21
 729 713 729 713 742 709 c 128,-1,22
 755 705 755 705 762.5 695.5 c 128,-1,23
 770 686 770 686 769 671.5 c 128,-1,24
 768 657 768 657 755 641 c 2,25,-1
 527 362 l 1,26,-1
 486 391 l 1,27,28
 546 383 546 383 586 347 c 128,-1,29
 626 311 626 311 648 246 c 2,30,-1
 713 55 l 2,31,32
 720 37 720 37 715 23 c 128,-1,33
 710 9 710 9 698.5 1 c 128,-1,34
 687 -7 687 -7 673 -7 c 128,-1,35
 659 -7 659 -7 646.5 1.5 c 128,-1,36
 634 10 634 10 628 29 c 2,37,-1
 569 206 l 2,38,39
 550 265 550 265 516.5 290 c 128,-1,40
 483 315 483 315 429 315 c 2,41,-1
 321 315 l 1,42,-1
 277 39 l 2,43,44
 273 16 273 16 260 4.5 c 128,-1,45
 247 -7 247 -7 224 -7 c 0,0,1
EndSplineSet
EndChar

StartChar: uni04A2
Encoding: 1186 1186 594
Width: 807
GlyphClass: 1
Flags: W
LayerCount: 2
Fore
SplineSet
674 -166 m 0,0,1
 656 -166 656 -166 646.5 -153 c 128,-1,2
 637 -140 637 -140 641 -117 c 2,3,-1
 660 0 l 1,4,-1
 596 0 l 2,5,6
 572 0 572 0 562.5 14.5 c 128,-1,7
 553 29 553 29 557 56 c 2,8,-1
 598 318 l 1,9,-1
 189 318 l 1,10,-1
 145 40 l 2,11,12
 142 17 142 17 129 5 c 128,-1,13
 116 -7 116 -7 93 -7 c 256,14,15
 70 -7 70 -7 60 7.5 c 128,-1,16
 50 22 50 22 54 48 c 2,17,-1
 152 665 l 2,18,19
 155 689 155 689 168 700.5 c 128,-1,20
 181 712 181 712 204 712 c 256,21,22
 227 712 227 712 237 697.5 c 128,-1,23
 247 683 247 683 243 657 c 2,24,-1
 202 397 l 1,25,-1
 611 397 l 1,26,-1
 653 665 l 2,27,28
 657 689 657 689 669.5 700.5 c 128,-1,29
 682 712 682 712 705 712 c 256,30,31
 728 712 728 712 738.5 698 c 128,-1,32
 749 684 749 684 744 657 c 2,33,-1
 648 47 l 1,34,-1
 622 77 l 1,35,-1
 702 77 l 2,36,37
 727 77 727 77 738.5 64.5 c 128,-1,38
 750 52 750 52 746 27 c 2,39,-1
 722 -124 l 2,40,41
 719 -145 719 -145 707.5 -155.5 c 128,-1,42
 696 -166 696 -166 674 -166 c 0,0,1
EndSplineSet
EndChar

StartChar: uni04A4
Encoding: 1188 1188 595
Width: 936
GlyphClass: 1
Flags: W
LayerCount: 2
Fore
SplineSet
93 -7 m 0,0,1
 70 -7 70 -7 60 7.5 c 128,-1,2
 50 22 50 22 54 48 c 2,3,-1
 152 665 l 2,4,5
 156 689 156 689 169 700.5 c 128,-1,6
 182 712 182 712 205 712 c 256,7,8
 228 712 228 712 238 697.5 c 128,-1,9
 248 683 248 683 243 657 c 2,10,-1
 202 397 l 1,11,-1
 610 397 l 1,12,-1
 652 659 l 2,13,14
 656 682 656 682 669.5 693.5 c 128,-1,15
 683 705 683 705 706 705 c 2,16,-1
 963 705 l 2,17,18
 984 705 984 705 995 697 c 128,-1,19
 1006 689 1006 689 1006 673 c 0,20,21
 1006 651 1006 651 993.5 638.5 c 128,-1,22
 981 626 981 626 958 626 c 2,23,-1
 740 626 l 1,24,-1
 646 40 l 2,25,26
 643 17 643 17 630.5 5 c 128,-1,27
 618 -7 618 -7 594 -7 c 0,28,29
 571 -7 571 -7 561 7.5 c 128,-1,30
 551 22 551 22 556 48 c 2,31,-1
 598 318 l 1,32,-1
 189 318 l 1,33,-1
 146 40 l 2,34,35
 142 17 142 17 129.5 5 c 128,-1,36
 117 -7 117 -7 93 -7 c 0,0,1
EndSplineSet
EndChar

StartChar: uni0524
Encoding: 1316 1316 596
Width: 801
GlyphClass: 1
Flags: W
LayerCount: 2
Fore
SplineSet
668 -166 m 0,0,1
 650 -166 650 -166 640 -153 c 128,-1,2
 630 -140 630 -140 634 -117 c 2,3,-1
 653 0 l 1,4,-1
 590 0 l 2,5,6
 566 0 566 0 556.5 14.5 c 128,-1,7
 547 29 547 29 551 56 c 2,8,-1
 641 626 l 1,9,-1
 238 626 l 1,10,-1
 145 38 l 2,11,12
 142 16 142 16 129 4.5 c 128,-1,13
 116 -7 116 -7 93 -7 c 256,14,15
 70 -7 70 -7 60 6 c 128,-1,16
 50 19 50 19 53 45 c 2,17,-1
 151 659 l 2,18,19
 154 682 154 682 168 693.5 c 128,-1,20
 182 705 182 705 205 705 c 2,21,-1
 692 705 l 2,22,23
 718 705 718 705 730 691 c 128,-1,24
 742 677 742 677 738 651 c 2,25,-1
 642 47 l 1,26,-1
 616 77 l 1,27,-1
 695 77 l 2,28,29
 720 77 720 77 731.5 64.5 c 128,-1,30
 743 52 743 52 739 27 c 2,31,-1
 715 -124 l 2,32,33
 712 -145 712 -145 700.5 -155.5 c 128,-1,34
 689 -166 689 -166 668 -166 c 0,0,1
EndSplineSet
EndChar

StartChar: uni04A8
Encoding: 1192 1192 597
Width: 811
GlyphClass: 1
Flags: W
LayerCount: 2
Fore
SplineSet
365 -9 m 0,0,1
 278 -9 278 -9 212.5 25 c 128,-1,2
 147 59 147 59 110.5 125.5 c 128,-1,3
 74 192 74 192 74 287 c 0,4,5
 74 383 74 383 100.5 461.5 c 128,-1,6
 127 540 127 540 176 596.5 c 128,-1,7
 225 653 225 653 294 683.5 c 128,-1,8
 363 714 363 714 448 714 c 0,9,10
 459 714 459 714 470.5 713 c 128,-1,11
 482 712 482 712 492 710 c 0,12,13
 515 707 515 707 522.5 694.5 c 128,-1,14
 530 682 530 682 528 664 c 0,15,16
 527 653 527 653 520.5 645 c 128,-1,17
 514 637 514 637 504.5 633.5 c 128,-1,18
 495 630 495 630 485 631 c 0,19,20
 473 633 473 633 459 634 c 128,-1,21
 445 635 445 635 434 634 c 0,22,23
 354 631 354 631 294.5 588.5 c 128,-1,24
 235 546 235 546 203 469.5 c 128,-1,25
 171 393 171 393 171 290 c 0,26,27
 171 214 171 214 196.5 165 c 128,-1,28
 222 116 222 116 268.5 91.5 c 128,-1,29
 315 67 315 67 378 67 c 0,30,31
 445 67 445 67 498 89.5 c 128,-1,32
 551 112 551 112 588 153 c 128,-1,33
 625 194 625 194 644 248.5 c 128,-1,34
 663 303 663 303 663 367 c 0,35,36
 663 421 663 421 640.5 450 c 128,-1,37
 618 479 618 479 575 479 c 256,38,39
 532 479 532 479 501.5 450.5 c 128,-1,40
 471 422 471 422 455.5 374 c 128,-1,41
 440 326 440 326 440 269 c 0,42,43
 440 203 440 203 465 158 c 128,-1,44
 490 113 490 113 537 90 c 128,-1,45
 584 67 584 67 651 67 c 0,46,47
 677 67 677 67 704 71.5 c 128,-1,48
 731 76 731 76 754 85 c 0,49,50
 771 91 771 91 782 88 c 128,-1,51
 793 85 793 85 799 76 c 128,-1,52
 805 67 805 67 805.5 55.5 c 128,-1,53
 806 44 806 44 800 33 c 128,-1,54
 794 22 794 22 780 16 c 0,55,56
 754 3 754 3 718 -3 c 128,-1,57
 682 -9 682 -9 644 -9 c 0,58,59
 580 -9 580 -9 526.5 12 c 128,-1,60
 473 33 473 33 433.5 71 c 128,-1,61
 394 109 394 109 372 160 c 128,-1,62
 350 211 350 211 350 271 c 0,63,64
 350 351 350 351 378.5 415.5 c 128,-1,65
 407 480 407 480 459 518 c 128,-1,66
 511 556 511 556 582 556 c 0,67,68
 634 556 634 556 672.5 534 c 128,-1,69
 711 512 711 512 732 472 c 128,-1,70
 753 432 753 432 753 375 c 0,71,72
 753 297 753 297 723.5 227.5 c 128,-1,73
 694 158 694 158 641 104.5 c 128,-1,74
 588 51 588 51 517.5 21 c 128,-1,75
 447 -9 447 -9 365 -9 c 0,0,1
EndSplineSet
EndChar

StartChar: uni04AA
Encoding: 1194 1194 598
Width: 675
GlyphClass: 2
Flags: W
AnchorPoint: "Anchor-2" 368 0 basechar 0
AnchorPoint: "Anchor-0" 438 705 basechar 0
LayerCount: 2
Fore
SplineSet
342 -166 m 256,0,1
 323 -166 323 -166 313.5 -153.5 c 128,-1,2
 304 -141 304 -141 307 -118 c 2,3,-1
 332 41 l 1,4,-1
 416 41 l 1,5,-1
 390 -126 l 2,6,7
 387 -147 387 -147 374 -156.5 c 128,-1,8
 361 -166 361 -166 342 -166 c 256,0,1
385 -9 m 0,9,10
 294 -9 294 -9 224 25.5 c 128,-1,11
 154 60 154 60 115 130.5 c 128,-1,12
 76 201 76 201 76 308 c 0,13,14
 76 394 76 394 101 468 c 128,-1,15
 126 542 126 542 173.5 597 c 128,-1,16
 221 652 221 652 289.5 683 c 128,-1,17
 358 714 358 714 444 714 c 0,18,19
 505 714 505 714 559.5 696 c 128,-1,20
 614 678 614 678 654 645 c 0,21,22
 667 635 667 635 670 621.5 c 128,-1,23
 673 608 673 608 669 595.5 c 128,-1,24
 665 583 665 583 656 574 c 128,-1,25
 647 565 647 565 634.5 564 c 128,-1,26
 622 563 622 563 609 573 c 0,27,28
 570 604 570 604 529 617 c 128,-1,29
 488 630 488 630 440 630 c 0,30,31
 357 630 357 630 297.5 588.5 c 128,-1,32
 238 547 238 547 206.5 474.5 c 128,-1,33
 175 402 175 402 175 310 c 0,34,35
 175 226 175 226 200.5 174 c 128,-1,36
 226 122 226 122 275 98.5 c 128,-1,37
 324 75 324 75 393 75 c 0,38,39
 437 75 437 75 476 87 c 128,-1,40
 515 99 515 99 553 128 c 0,41,42
 568 138 568 138 580.5 137 c 128,-1,43
 593 136 593 136 602 127.5 c 128,-1,44
 611 119 611 119 614 106.5 c 128,-1,45
 617 94 617 94 612.5 81.5 c 128,-1,46
 608 69 608 69 595 59 c 0,47,48
 549 24 549 24 495 7.5 c 128,-1,49
 441 -9 441 -9 385 -9 c 0,9,10
EndSplineSet
Substitution2: "'locl' Localized Forms in Cyrillic lookup 17 subtable" uni04AA.loclCHU
Substitution2: "'locl' Localized Forms in Cyrillic lookup 16 subtable" uni04AA.loclBSH
AlternateSubs2: "'aalt' Access All Alternates lookup 1 subtable" uni04AA.loclBSH uni04AA.loclCHU
EndChar

StartChar: uni04AC
Encoding: 1196 1196 599
Width: 585
GlyphClass: 1
Flags: W
LayerCount: 2
Fore
SplineSet
333 -166 m 0,0,1
 313 -166 313 -166 303.5 -153 c 128,-1,2
 294 -140 294 -140 297 -117 c 2,3,-1
 316 0 l 1,4,-1
 263 0 l 2,5,6
 237 0 237 0 224.5 14.5 c 128,-1,7
 212 29 212 29 216 54 c 2,8,-1
 307 626 l 1,9,-1
 103 626 l 2,10,11
 83 626 83 626 71.5 635 c 128,-1,12
 60 644 60 644 60 659 c 0,13,14
 60 681 60 681 73 693 c 128,-1,15
 86 705 86 705 108 705 c 2,16,-1
 617 705 l 2,17,18
 637 705 637 705 648.5 697 c 128,-1,19
 660 689 660 689 660 673 c 0,20,21
 660 651 660 651 647 638.5 c 128,-1,22
 634 626 634 626 612 626 c 2,23,-1
 399 626 l 1,24,-1
 309 53 l 1,25,-1
 272 77 l 1,26,-1
 362 77 l 2,27,28
 386 77 386 77 397 63.5 c 128,-1,29
 408 50 408 50 404 26 c 2,30,-1
 380 -124 l 2,31,32
 373 -166 373 -166 333 -166 c 0,0,1
EndSplineSet
EndChar

StartChar: uni04B2
Encoding: 1202 1202 602
Width: 694
GlyphClass: 1
Flags: W
LayerCount: 2
Fore
SplineSet
574 -166 m 0,0,1
 556 -166 556 -166 546 -153 c 128,-1,2
 536 -140 536 -140 540 -117 c 2,3,-1
 563 30 l 1,4,-1
 589 0 l 1,5,-1
 540 0 l 2,6,7
 523 0 523 0 512 6.5 c 128,-1,8
 501 13 501 13 491 31 c 2,9,-1
 327 314 l 1,10,-1
 355 314 l 1,11,-1
 100 21 l 2,12,13
 87 6 87 6 75.5 -0.5 c 128,-1,14
 64 -7 64 -7 48 -7 c 0,15,16
 31 -7 31 -7 20 3.5 c 128,-1,17
 9 14 9 14 9 30 c 128,-1,18
 9 46 9 46 22 61 c 2,19,-1
 305 379 l 1,20,-1
 305 342 l 1,21,-1
 128 646 l 2,22,23
 118 663 118 663 119.5 678 c 128,-1,24
 121 693 121 693 132.5 702.5 c 128,-1,25
 144 712 144 712 162 712 c 256,26,27
 180 712 180 712 189.5 704.5 c 128,-1,28
 199 697 199 697 210 677 c 2,29,-1
 363 409 l 1,30,-1
 341 409 l 1,31,-1
 579 684 l 2,32,33
 592 699 592 699 604 705.5 c 128,-1,34
 616 712 616 712 631 712 c 0,35,36
 649 712 649 712 660 702 c 128,-1,37
 671 692 671 692 672 676.5 c 128,-1,38
 673 661 673 661 659 645 c 2,39,-1
 387 338 l 1,40,-1
 387 381 l 1,41,-1
 581 51 l 1,42,-1
 535 77 l 1,43,-1
 602 77 l 2,44,45
 627 77 627 77 638.5 64 c 128,-1,46
 650 51 650 51 646 27 c 2,47,-1
 622 -125 l 2,48,49
 619 -146 619 -146 607.5 -156 c 128,-1,50
 596 -166 596 -166 574 -166 c 0,0,1
EndSplineSet
EndChar

StartChar: uni04B4
Encoding: 1204 1204 603
Width: 927
GlyphClass: 1
Flags: W
LayerCount: 2
Fore
SplineSet
799 -166 m 0,0,1
 779 -166 779 -166 769.5 -153 c 128,-1,2
 760 -140 760 -140 764 -117 c 2,3,-1
 782 0 l 1,4,-1
 232 0 l 2,5,6
 206 0 206 0 193.5 14.5 c 128,-1,7
 181 29 181 29 185 54 c 2,8,-1
 276 626 l 1,9,-1
 107 626 l 2,10,11
 86 626 86 626 75 635 c 128,-1,12
 64 644 64 644 64 659 c 0,13,14
 64 681 64 681 77 693 c 128,-1,15
 90 705 90 705 112 705 c 2,16,-1
 540 705 l 2,17,18
 560 705 560 705 571 697 c 128,-1,19
 582 689 582 689 582 673 c 0,20,21
 582 651 582 651 569.5 638.5 c 128,-1,22
 557 626 557 626 535 626 c 2,23,-1
 369 626 l 1,24,-1
 283 79 l 1,25,-1
 686 79 l 1,26,-1
 779 667 l 2,27,28
 783 689 783 689 795.5 700.5 c 128,-1,29
 808 712 808 712 829 712 c 0,30,31
 853 712 853 712 863.5 698.5 c 128,-1,32
 874 685 874 685 871 660 c 2,33,-1
 774 52 l 1,34,-1
 741 79 l 1,35,-1
 827 79 l 2,36,37
 851 79 851 79 862.5 65.5 c 128,-1,38
 874 52 874 52 871 28 c 2,39,-1
 847 -124 l 2,40,41
 840 -166 840 -166 799 -166 c 0,0,1
EndSplineSet
EndChar

StartChar: uni04B6
Encoding: 1206 1206 604
Width: 723
GlyphClass: 1
Flags: W
LayerCount: 2
Fore
SplineSet
510 293 m 1,0,1
 477 276 477 276 431.5 267 c 128,-1,2
 386 258 386 258 340 258 c 0,3,4
 253 258 253 258 195.5 292 c 128,-1,5
 138 326 138 326 115 391.5 c 128,-1,6
 92 457 92 457 107 552 c 2,7,-1
 125 666 l 2,8,9
 129 689 129 689 142.5 700.5 c 128,-1,10
 156 712 156 712 177 712 c 0,11,12
 200 712 200 712 210 697.5 c 128,-1,13
 220 683 220 683 216 658 c 2,14,-1
 199 555 l 2,15,16
 181 444 181 444 219.5 392 c 128,-1,17
 258 340 258 340 353 340 c 0,18,19
 396 340 396 340 441 348.5 c 128,-1,20
 486 357 486 357 524 378 c 1,21,-1
 570 666 l 2,22,23
 574 689 574 689 587.5 700.5 c 128,-1,24
 601 712 601 712 622 712 c 0,25,26
 646 712 646 712 655.5 697.5 c 128,-1,27
 665 683 665 683 661 658 c 2,28,-1
 564 47 l 1,29,-1
 538 77 l 1,30,-1
 618 77 l 2,31,32
 642 77 642 77 653.5 64.5 c 128,-1,33
 665 52 665 52 662 27 c 2,34,-1
 638 -124 l 2,35,36
 635 -145 635 -145 623 -155.5 c 128,-1,37
 611 -166 611 -166 590 -166 c 0,38,39
 572 -166 572 -166 562.5 -153 c 128,-1,40
 553 -140 553 -140 557 -117 c 2,41,-1
 575 0 l 1,42,-1
 512 0 l 2,43,44
 488 0 488 0 478.5 14.5 c 128,-1,45
 469 29 469 29 473 56 c 2,46,-1
 510 293 l 1,0,1
EndSplineSet
EndChar

StartChar: uni04B8
Encoding: 1208 1208 605
Width: 680
GlyphClass: 1
Flags: W
LayerCount: 2
Fore
SplineSet
511 -7 m 0,0,1
 487 -7 487 -7 477 7 c 128,-1,2
 467 21 467 21 471 47 c 2,3,-1
 510 293 l 1,4,5
 481 279 481 279 441 270 c 128,-1,6
 401 261 401 261 360 259 c 1,7,-1
 371 269 l 1,8,-1
 350 136 l 2,9,10
 345 103 345 103 311 103 c 0,11,12
 295 103 295 103 287 113 c 128,-1,13
 279 123 279 123 282 141 c 2,14,-1
 302 268 l 1,15,-1
 310 259 l 1,16,17
 233 265 233 265 183 301 c 128,-1,18
 133 337 133 337 113 400 c 128,-1,19
 93 463 93 463 107 552 c 2,20,-1
 125 666 l 2,21,22
 129 689 129 689 142.5 700.5 c 128,-1,23
 156 712 156 712 177 712 c 0,24,25
 200 712 200 712 210 697.5 c 128,-1,26
 220 683 220 683 216 658 c 2,27,-1
 199 555 l 2,28,29
 184 453 184 453 214.5 401.5 c 128,-1,30
 245 350 245 350 323 342 c 1,31,-1
 313 336 l 1,32,-1
 336 486 l 2,33,34
 342 519 342 519 375 519 c 0,35,36
 392 519 392 519 400 509 c 128,-1,37
 408 499 408 499 405 481 c 2,38,-1
 382 332 l 1,39,-1
 374 341 l 1,40,41
 412 342 412 342 451 351 c 128,-1,42
 490 360 490 360 524 378 c 1,43,-1
 570 666 l 2,44,45
 574 689 574 689 587 700.5 c 128,-1,46
 600 712 600 712 622 712 c 0,47,48
 645 712 645 712 655 697.5 c 128,-1,49
 665 683 665 683 661 658 c 2,50,-1
 563 39 l 2,51,52
 560 16 560 16 546 4.5 c 128,-1,53
 532 -7 532 -7 511 -7 c 0,0,1
EndSplineSet
EndChar

StartChar: uni04BA
Encoding: 1210 1210 606
Width: 680
GlyphClass: 2
Flags: W
LayerCount: 2
Fore
SplineSet
93 -7 m 0,0,1
 70 -7 70 -7 60 7.5 c 128,-1,2
 50 22 50 22 54 48 c 2,3,-1
 152 666 l 2,4,5
 156 689 156 689 169.5 700.5 c 128,-1,6
 183 712 183 712 204 712 c 0,7,8
 228 712 228 712 238 698 c 128,-1,9
 248 684 248 684 243 658 c 2,10,-1
 205 412 l 1,11,12
 238 429 238 429 284.5 438 c 128,-1,13
 331 447 331 447 376 447 c 0,14,15
 464 447 464 447 521 413 c 128,-1,16
 578 379 578 379 601.5 314 c 128,-1,17
 625 249 625 249 610 153 c 2,18,-1
 591 39 l 2,19,20
 588 16 588 16 574.5 4.5 c 128,-1,21
 561 -7 561 -7 539 -7 c 0,22,23
 516 -7 516 -7 506.5 8 c 128,-1,24
 497 23 497 23 500 48 c 2,25,-1
 517 150 l 2,26,27
 535 262 535 262 496.5 313.5 c 128,-1,28
 458 365 458 365 362 365 c 0,29,30
 320 365 320 365 275 357 c 128,-1,31
 230 349 230 349 191 328 c 1,32,-1
 145 39 l 2,33,34
 142 16 142 16 128.5 4.5 c 128,-1,35
 115 -7 115 -7 93 -7 c 0,0,1
EndSplineSet
EndChar

StartChar: uni0526
Encoding: 1318 1318 607
Width: 723
GlyphClass: 1
Flags: W
LayerCount: 2
Fore
SplineSet
517 150 m 2,0,1
 535 262 535 262 496.5 313.5 c 128,-1,2
 458 365 458 365 362 365 c 0,3,4
 320 365 320 365 275 357 c 128,-1,5
 230 349 230 349 191 328 c 1,6,-1
 145 39 l 2,7,8
 142 16 142 16 128.5 4.5 c 128,-1,9
 115 -7 115 -7 93 -7 c 0,10,11
 70 -7 70 -7 60 7.5 c 128,-1,12
 50 22 50 22 54 48 c 2,13,-1
 152 666 l 2,14,15
 156 689 156 689 169.5 700.5 c 128,-1,16
 183 712 183 712 204 712 c 0,17,18
 228 712 228 712 238 698 c 128,-1,19
 248 684 248 684 243 658 c 2,20,-1
 205 412 l 1,21,22
 238 429 238 429 284.5 438 c 128,-1,23
 331 447 331 447 376 447 c 0,24,25
 464 447 464 447 521.5 413 c 128,-1,26
 579 379 579 379 602.5 314 c 128,-1,27
 626 249 626 249 610 153 c 2,28,-1
 593 47 l 1,29,-1
 566 77 l 1,30,-1
 647 77 l 2,31,32
 671 77 671 77 682.5 64.5 c 128,-1,33
 694 52 694 52 691 27 c 2,34,-1
 667 -124 l 2,35,36
 664 -145 664 -145 652 -155.5 c 128,-1,37
 640 -166 640 -166 619 -166 c 0,38,39
 601 -166 601 -166 591.5 -153 c 128,-1,40
 582 -140 582 -140 586 -117 c 2,41,-1
 604 0 l 1,42,-1
 541 0 l 2,43,44
 517 0 517 0 507 14.5 c 128,-1,45
 497 29 497 29 502 56 c 2,46,-1
 517 150 l 2,0,1
EndSplineSet
EndChar

StartChar: uni04BC
Encoding: 1212 1212 608
Width: 932
GlyphClass: 2
Flags: W
AnchorPoint: "Anchor-3" 590 0 basechar 0
LayerCount: 2
Fore
SplineSet
553 -9 m 0,0,1
 452 -9 452 -9 378 35 c 128,-1,2
 304 79 304 79 267.5 156 c 128,-1,3
 231 233 231 233 238 333 c 1,4,-1
 252 311 l 1,5,-1
 224 311 l 2,6,7
 162 311 162 311 122.5 332 c 128,-1,8
 83 353 83 353 66.5 391 c 128,-1,9
 50 429 50 429 58 481 c 2,10,-1
 64 515 l 2,11,12
 71 552 71 552 114 552 c 0,13,14
 135 552 135 552 146 541.5 c 128,-1,15
 157 531 157 531 154 509 c 0,16,17
 153 502 153 502 152 493.5 c 128,-1,18
 151 485 151 485 149 477 c 0,19,20
 143 431 143 431 163 410 c 128,-1,21
 183 389 183 389 229 389 c 2,22,-1
 258 389 l 1,23,-1
 240 367 l 1,24,25
 249 443 249 443 276 506 c 128,-1,26
 303 569 303 569 348.5 616 c 128,-1,27
 394 663 394 663 457 688.5 c 128,-1,28
 520 714 520 714 600 714 c 0,29,30
 673 714 673 714 726 692 c 128,-1,31
 779 670 779 670 814.5 633 c 128,-1,32
 850 596 850 596 869 549 c 128,-1,33
 888 502 888 502 893 451.5 c 128,-1,34
 898 401 898 401 890 352 c 0,35,36
 887 335 887 335 879.5 326 c 128,-1,37
 872 317 872 317 861.5 314 c 128,-1,38
 851 311 851 311 840 311 c 2,39,-1
 317 311 l 1,40,-1
 336 334 l 1,41,42
 328 257 328 257 353 197.5 c 128,-1,43
 378 138 378 138 432 105.5 c 128,-1,44
 486 73 486 73 564 73 c 0,45,46
 628 73 628 73 679 87.5 c 128,-1,47
 730 102 730 102 775 130 c 0,48,49
 791 139 791 139 804 137.5 c 128,-1,50
 817 136 817 136 825 126.5 c 128,-1,51
 833 117 833 117 835 104.5 c 128,-1,52
 837 92 837 92 832 79.5 c 128,-1,53
 827 67 827 67 813 59 c 0,54,55
 760 25 760 25 692.5 8 c 128,-1,56
 625 -9 625 -9 553 -9 c 0,0,1
596 635 m 0,57,58
 520 635 520 635 465.5 600.5 c 128,-1,59
 411 566 411 566 379.5 505 c 128,-1,60
 348 444 348 444 338 366 c 1,61,-1
 324 389 l 1,62,-1
 826 389 l 1,63,-1
 798 352 l 1,64,65
 810 434 810 434 793 497.5 c 128,-1,66
 776 561 776 561 727 598 c 128,-1,67
 678 635 678 635 596 635 c 0,57,58
EndSplineSet
EndChar

StartChar: uni04C3
Encoding: 1219 1219 612
Width: 676
GlyphClass: 1
Flags: W
LayerCount: 2
Fore
SplineSet
356 -189 m 0,0,1
 332 -189 332 -189 307 -186 c 128,-1,2
 282 -183 282 -183 263 -177 c 0,3,4
 249 -174 249 -174 242 -164 c 128,-1,5
 235 -154 235 -154 235 -142.5 c 128,-1,6
 235 -131 235 -131 240 -120.5 c 128,-1,7
 245 -110 245 -110 255 -105.5 c 128,-1,8
 265 -101 265 -101 278 -104 c 0,9,10
 293 -109 293 -109 308.5 -111 c 128,-1,11
 324 -113 324 -113 343 -113 c 0,12,13
 404 -113 404 -113 444 -72.5 c 128,-1,14
 484 -32 484 -32 497 49 c 2,15,-1
 505 101 l 2,16,17
 518 180 518 180 501 228 c 128,-1,18
 484 276 484 276 440.5 297.5 c 128,-1,19
 397 319 397 319 330 319 c 2,20,-1
 189 319 l 1,21,-1
 145 37 l 2,22,23
 142 14 142 14 129 3.5 c 128,-1,24
 116 -7 116 -7 93 -7 c 0,25,26
 71 -7 71 -7 60.5 6.5 c 128,-1,27
 50 20 50 20 53 45 c 2,28,-1
 152 669 l 2,29,30
 156 691 156 691 168.5 701.5 c 128,-1,31
 181 712 181 712 203 712 c 0,32,33
 226 712 226 712 236.5 698.5 c 128,-1,34
 247 685 247 685 243 660 c 2,35,-1
 202 398 l 1,36,-1
 338 398 l 1,37,-1
 310 378 l 1,38,-1
 564 691 l 2,39,40
 575 706 575 706 589 709.5 c 128,-1,41
 603 713 603 713 615.5 709 c 128,-1,42
 628 705 628 705 635.5 695 c 128,-1,43
 643 685 643 685 642 671 c 128,-1,44
 641 657 641 657 628 641 c 2,45,-1
 400 362 l 1,46,-1
 374 395 l 1,47,48
 457 391 457 391 512.5 358.5 c 128,-1,49
 568 326 568 326 591 263.5 c 128,-1,50
 614 201 614 201 598 107 c 2,51,-1
 589 53 l 2,52,53
 577 -26 577 -26 546 -80 c 128,-1,54
 515 -134 515 -134 467.5 -161.5 c 128,-1,55
 420 -189 420 -189 356 -189 c 0,0,1
EndSplineSet
EndChar

StartChar: uni04C5
Encoding: 1221 1221 613
Width: 783
GlyphClass: 1
Flags: W
LayerCount: 2
Fore
SplineSet
639 -142 m 2,0,1
 632 -156 632 -156 621 -162 c 128,-1,2
 610 -168 610 -168 598.5 -166.5 c 128,-1,3
 587 -165 587 -165 578.5 -158 c 128,-1,4
 570 -151 570 -151 568 -139.5 c 128,-1,5
 566 -128 566 -128 573 -113 c 2,6,-1
 642 28 l 1,7,-1
 642 0 l 1,8,-1
 575 0 l 2,9,10
 551 0 551 0 541 12 c 128,-1,11
 531 24 531 24 536 51 c 2,12,-1
 626 626 l 1,13,-1
 331 626 l 1,14,-1
 303 452 l 2,15,16
 287 349 287 349 264 274 c 128,-1,17
 241 199 241 199 210.5 146 c 128,-1,18
 180 93 180 93 140.5 57.5 c 128,-1,19
 101 22 101 22 52 -3 c 0,20,21
 34 -12 34 -12 18 -8.5 c 128,-1,22
 2 -5 2 -5 -8 13 c 0,23,24
 -17 31 -17 31 -11.5 45.5 c 128,-1,25
 -6 60 -6 60 13 70 c 0,26,27
 48 89 48 89 79 117 c 128,-1,28
 110 145 110 145 136 190 c 128,-1,29
 162 235 162 235 183.5 305 c 128,-1,30
 205 375 205 375 221 476 c 2,31,-1
 250 658 l 2,32,33
 254 681 254 681 267.5 693 c 128,-1,34
 281 705 281 705 304 705 c 2,35,-1
 676 705 l 2,36,37
 702 705 702 705 714.5 691 c 128,-1,38
 727 677 727 677 723 651 c 2,39,-1
 627 47 l 1,40,-1
 617 77 l 1,41,-1
 683 77 l 2,42,43
 711 77 711 77 721.5 61.5 c 128,-1,44
 732 46 732 46 719 19 c 2,45,-1
 639 -142 l 2,0,1
EndSplineSet
EndChar

StartChar: uni04C7
Encoding: 1223 1223 614
Width: 764
GlyphClass: 1
Flags: W
LayerCount: 2
Fore
SplineSet
427 -191 m 0,0,1
 408 -192 408 -192 398.5 -182 c 128,-1,2
 389 -172 389 -172 389 -158 c 128,-1,3
 389 -144 389 -144 397.5 -133 c 128,-1,4
 406 -122 406 -122 423 -121 c 0,5,6
 476 -119 476 -119 506 -94 c 128,-1,7
 536 -69 536 -69 545 -13 c 2,8,-1
 598 318 l 1,9,-1
 189 318 l 1,10,-1
 146 40 l 2,11,12
 142 17 142 17 129.5 5 c 128,-1,13
 117 -7 117 -7 93 -7 c 0,14,15
 70 -7 70 -7 60 7.5 c 128,-1,16
 50 22 50 22 54 48 c 2,17,-1
 152 665 l 2,18,19
 156 689 156 689 169 700.5 c 128,-1,20
 182 712 182 712 205 712 c 256,21,22
 228 712 228 712 238 697.5 c 128,-1,23
 248 683 248 683 243 657 c 2,24,-1
 202 397 l 1,25,-1
 610 397 l 1,26,-1
 652 665 l 2,27,28
 656 689 656 689 669 700.5 c 128,-1,29
 682 712 682 712 705 712 c 256,30,31
 728 712 728 712 738 698 c 128,-1,32
 748 684 748 684 743 657 c 2,33,-1
 639 -7 l 2,34,35
 629 -69 629 -69 603.5 -109 c 128,-1,36
 578 -149 578 -149 535 -169 c 128,-1,37
 492 -189 492 -189 427 -191 c 0,0,1
EndSplineSet
EndChar

StartChar: uni04C9
Encoding: 1225 1225 615
Width: 803
GlyphClass: 1
Flags: W
LayerCount: 2
Fore
SplineSet
659 -142 m 2,0,1
 652 -156 652 -156 641 -162 c 128,-1,2
 630 -168 630 -168 618.5 -166.5 c 128,-1,3
 607 -165 607 -165 598.5 -158 c 128,-1,4
 590 -151 590 -151 588 -139.5 c 128,-1,5
 586 -128 586 -128 593 -113 c 2,6,-1
 663 28 l 1,7,-1
 663 0 l 1,8,-1
 595 0 l 2,9,10
 572 0 572 0 562 12 c 128,-1,11
 552 24 552 24 556 51 c 2,12,-1
 598 318 l 1,13,-1
 189 318 l 1,14,-1
 145 40 l 2,15,16
 142 17 142 17 129 5 c 128,-1,17
 116 -7 116 -7 93 -7 c 256,18,19
 70 -7 70 -7 60 7.5 c 128,-1,20
 50 22 50 22 54 48 c 2,21,-1
 152 665 l 2,22,23
 155 689 155 689 168 700.5 c 128,-1,24
 181 712 181 712 204 712 c 256,25,26
 227 712 227 712 237 697.5 c 128,-1,27
 247 683 247 683 243 657 c 2,28,-1
 202 397 l 1,29,-1
 611 397 l 1,30,-1
 653 665 l 2,31,32
 657 689 657 689 669.5 700.5 c 128,-1,33
 682 712 682 712 705 712 c 256,34,35
 728 712 728 712 738.5 698 c 128,-1,36
 749 684 749 684 744 657 c 2,37,-1
 648 47 l 1,38,-1
 638 77 l 1,39,-1
 703 77 l 2,40,41
 731 77 731 77 742 61.5 c 128,-1,42
 753 46 753 46 739 19 c 2,43,-1
 659 -142 l 2,0,1
EndSplineSet
EndChar

StartChar: uni04CB
Encoding: 1227 1227 616
Width: 719
GlyphClass: 1
Flags: W
LayerCount: 2
Fore
SplineSet
379 -166 m 0,0,1
 359 -166 359 -166 350.5 -154.5 c 128,-1,2
 342 -143 342 -143 345 -123 c 2,3,-1
 369 31 l 2,4,5
 373 53 373 53 386.5 65 c 128,-1,6
 400 77 400 77 422 77 c 2,7,-1
 518 77 l 1,8,-1
 469 35 l 1,9,-1
 510 293 l 1,10,11
 477 276 477 276 431.5 267 c 128,-1,12
 386 258 386 258 340 258 c 0,13,14
 253 258 253 258 195.5 292 c 128,-1,15
 138 326 138 326 115 391.5 c 128,-1,16
 92 457 92 457 107 552 c 2,17,-1
 125 666 l 2,18,19
 129 689 129 689 142.5 700.5 c 128,-1,20
 156 712 156 712 177 712 c 0,21,22
 200 712 200 712 210 697.5 c 128,-1,23
 220 683 220 683 216 658 c 2,24,-1
 199 555 l 2,25,26
 181 444 181 444 219.5 392 c 128,-1,27
 258 340 258 340 353 340 c 0,28,29
 396 340 396 340 441 348.5 c 128,-1,30
 486 357 486 357 524 378 c 1,31,-1
 570 666 l 2,32,33
 574 689 574 689 587.5 700.5 c 128,-1,34
 601 712 601 712 622 712 c 0,35,36
 646 712 646 712 655.5 697.5 c 128,-1,37
 665 683 665 683 661 658 c 2,38,-1
 564 48 l 2,39,40
 560 24 560 24 546.5 12 c 128,-1,41
 533 0 533 0 510 0 c 2,42,-1
 448 0 l 1,43,-1
 429 -123 l 2,44,45
 426 -143 426 -143 413 -154.5 c 128,-1,46
 400 -166 400 -166 379 -166 c 0,0,1
EndSplineSet
EndChar

StartChar: uni04CD
Encoding: 1229 1229 617
Width: 898
GlyphClass: 1
Flags: W
LayerCount: 2
Fore
SplineSet
751 -142 m 2,0,1
 744 -156 744 -156 733 -162 c 128,-1,2
 722 -168 722 -168 710.5 -166.5 c 128,-1,3
 699 -165 699 -165 690.5 -158 c 128,-1,4
 682 -151 682 -151 680 -139.5 c 128,-1,5
 678 -128 678 -128 685 -113 c 2,6,-1
 755 28 l 1,7,-1
 755 0 l 1,8,-1
 696 0 l 2,9,10
 673 0 673 0 662.5 12 c 128,-1,11
 652 24 652 24 656 51 c 2,12,-1
 740 579 l 1,13,-1
 764 579 l 1,14,-1
 449 123 l 2,15,16
 441 111 441 111 432 106 c 128,-1,17
 423 101 423 101 410 101 c 0,18,19
 395 101 395 101 386.5 108 c 128,-1,20
 378 115 378 115 372 130 c 2,21,-1
 203 577 l 1,22,-1
 224 577 l 1,23,-1
 139 37 l 2,24,25
 136 18 136 18 125 7.5 c 128,-1,26
 114 -3 114 -3 94 -3 c 0,27,28
 72 -3 72 -3 62.5 9.5 c 128,-1,29
 53 22 53 22 56 44 c 2,30,-1
 155 672 l 2,31,32
 159 693 159 693 170 702.5 c 128,-1,33
 181 712 181 712 201 712 c 0,34,35
 219 712 219 712 229 704 c 128,-1,36
 239 696 239 696 246 677 c 2,37,-1
 430 178 l 1,38,-1
 401 178 l 1,39,-1
 751 685 l 2,40,41
 761 699 761 699 772.5 705.5 c 128,-1,42
 784 712 784 712 802 712 c 0,43,44
 822 712 822 712 832 699.5 c 128,-1,45
 842 687 842 687 838 665 c 2,46,-1
 740 47 l 1,47,-1
 730 77 l 1,48,-1
 795 77 l 2,49,50
 823 77 823 77 834 61.5 c 128,-1,51
 845 46 845 46 831 19 c 2,52,-1
 751 -142 l 2,0,1
EndSplineSet
EndChar

StartChar: uni04E0
Encoding: 1248 1248 626
Width: 639
GlyphClass: 1
Flags: W
LayerCount: 2
Fore
SplineSet
301 -9 m 0,0,1
 226 -9 226 -9 162.5 8.5 c 128,-1,2
 99 26 99 26 46 63 c 0,3,4
 33 72 33 72 29 84.5 c 128,-1,5
 25 97 25 97 27.5 109.5 c 128,-1,6
 30 122 30 122 38 130.5 c 128,-1,7
 46 139 46 139 59 140.5 c 128,-1,8
 72 142 72 142 87 131 c 0,9,10
 135 97 135 97 188.5 84 c 128,-1,11
 242 71 242 71 302 71 c 0,12,13
 349 71 349 71 389.5 84 c 128,-1,14
 430 97 430 97 455.5 128 c 128,-1,15
 481 159 481 159 481 212 c 0,16,17
 481 250 481 250 463.5 273.5 c 128,-1,18
 446 297 446 297 413.5 308 c 128,-1,19
 381 319 381 319 334 319 c 2,20,-1
 238 319 l 2,21,22
 224 319 224 319 215 325.5 c 128,-1,23
 206 332 206 332 203 342 c 128,-1,24
 200 352 200 352 203.5 363 c 128,-1,25
 207 374 207 374 217 383 c 2,26,-1
 517 653 l 1,27,-1
 519 626 l 1,28,-1
 148 626 l 2,29,30
 127 626 127 626 116.5 635 c 128,-1,31
 106 644 106 644 106 660 c 0,32,33
 106 683 106 683 120 694 c 128,-1,34
 134 705 134 705 154 705 c 2,35,-1
 584 705 l 2,36,37
 600 705 600 705 609.5 697.5 c 128,-1,38
 619 690 619 690 621.5 678.5 c 128,-1,39
 624 667 624 667 618.5 653.5 c 128,-1,40
 613 640 613 640 598 628 c 2,41,-1
 310 369 l 1,42,-1
 294 394 l 1,43,-1
 358 394 l 2,44,45
 432 394 432 394 479.5 370.5 c 128,-1,46
 527 347 527 347 549.5 306.5 c 128,-1,47
 572 266 572 266 572 214 c 0,48,49
 572 141 572 141 537 91.5 c 128,-1,50
 502 42 502 42 440.5 16.5 c 128,-1,51
 379 -9 379 -9 301 -9 c 0,0,1
EndSplineSet
EndChar

StartChar: uni04E8
Encoding: 1256 1256 630
Width: 772
GlyphClass: 2
Flags: W
AnchorPoint: "Anchor-5" 403 353 basechar 0
AnchorPoint: "Anchor-3" 417 0 basechar 0
AnchorPoint: "Anchor-2" 358 0 basechar 0
AnchorPoint: "Anchor-1" 500 705 basechar 0
AnchorPoint: "Anchor-0" 448 705 basechar 0
LayerCount: 2
Fore
SplineSet
126 322 m 1,0,-1
 137 394 l 1,1,-1
 686 394 l 1,2,-1
 674 322 l 1,3,-1
 126 322 l 1,0,-1
371 -9 m 0,4,5
 281 -9 281 -9 214.5 26 c 128,-1,6
 148 61 148 61 111.5 129.5 c 128,-1,7
 75 198 75 198 75 295 c 0,8,9
 75 384 75 384 99 460.5 c 128,-1,10
 123 537 123 537 169.5 594 c 128,-1,11
 216 651 216 651 282.5 682.5 c 128,-1,12
 349 714 349 714 435 714 c 0,13,14
 525 714 525 714 591.5 679 c 128,-1,15
 658 644 658 644 694.5 576 c 128,-1,16
 731 508 731 508 731 411 c 0,17,18
 731 321 731 321 707 244.5 c 128,-1,19
 683 168 683 168 636.5 111 c 128,-1,20
 590 54 590 54 523.5 22.5 c 128,-1,21
 457 -9 457 -9 371 -9 c 0,4,5
373 73 m 0,22,23
 458 73 458 73 515.5 117 c 128,-1,24
 573 161 573 161 603.5 237 c 128,-1,25
 634 313 634 313 634 410 c 0,26,27
 634 522 634 522 580.5 577 c 128,-1,28
 527 632 527 632 432 632 c 0,29,30
 348 632 348 632 290.5 588.5 c 128,-1,31
 233 545 233 545 202.5 469 c 128,-1,32
 172 393 172 393 172 296 c 0,33,34
 172 183 172 183 226 128 c 128,-1,35
 280 73 280 73 373 73 c 0,22,23
EndSplineSet
EndChar

StartChar: uni04FA
Encoding: 1274 1274 638
Width: 583
GlyphClass: 1
Flags: W
LayerCount: 2
Fore
SplineSet
60 -181 m 2,0,1
 43 -182 43 -182 32.5 -174 c 128,-1,2
 22 -166 22 -166 21 -150 c 0,3,4
 19 -134 19 -134 29.5 -124.5 c 128,-1,5
 40 -115 40 -115 56 -114 c 2,6,-1
 74 -112 l 2,7,8
 125 -108 125 -108 154.5 -80.5 c 128,-1,9
 184 -53 184 -53 192 0 c 1,10,-1
 132 0 l 2,11,12
 109 0 109 0 98.5 12.5 c 128,-1,13
 88 25 88 25 91 48 c 2,14,-1
 134 316 l 1,15,-1
 76 316 l 2,16,17
 58 316 58 316 47.5 324 c 128,-1,18
 37 332 37 332 37 346 c 0,19,20
 37 366 37 366 48.5 376.5 c 128,-1,21
 60 387 60 387 81 387 c 2,22,-1
 145 387 l 1,23,-1
 188 659 l 2,24,25
 192 683 192 683 205.5 694 c 128,-1,26
 219 705 219 705 242 705 c 2,27,-1
 604 705 l 2,28,29
 624 705 624 705 635.5 697 c 128,-1,30
 647 689 647 689 647 673 c 0,31,32
 647 651 647 651 634 638.5 c 128,-1,33
 621 626 621 626 599 626 c 2,34,-1
 276 626 l 1,35,-1
 237 387 l 1,36,-1
 383 387 l 2,37,38
 401 387 401 387 411.5 379.5 c 128,-1,39
 422 372 422 372 422 358 c 0,40,41
 422 339 422 339 410.5 327.5 c 128,-1,42
 399 316 399 316 379 316 c 2,43,-1
 227 316 l 1,44,-1
 185 51 l 1,45,-1
 165 77 l 1,46,-1
 241 77 l 2,47,48
 264 77 264 77 275 64.5 c 128,-1,49
 286 52 286 52 283 29 c 2,50,-1
 280 12 l 2,51,52
 270 -49 270 -49 247 -90 c 128,-1,53
 224 -131 224 -131 185 -153 c 128,-1,54
 146 -175 146 -175 89 -179 c 2,55,-1
 60 -181 l 2,0,1
EndSplineSet
EndChar

StartChar: uni04FC
Encoding: 1276 1276 639
Width: 655
GlyphClass: 1
Flags: W
LayerCount: 2
Fore
SplineSet
393 -181 m 0,0,1
 375 -184 375 -184 362.5 -176.5 c 128,-1,2
 350 -169 350 -169 345 -151 c 0,3,4
 341 -132 341 -132 350 -120.5 c 128,-1,5
 359 -109 359 -109 377 -106 c 0,6,7
 430 -96 430 -96 454 -69.5 c 128,-1,8
 478 -43 478 -43 478 3 c 0,9,10
 478 24 478 24 469.5 53 c 128,-1,11
 461 82 461 82 440 118 c 2,12,-1
 327 314 l 1,13,-1
 355 314 l 1,14,-1
 100 21 l 2,15,16
 87 6 87 6 76 -0.5 c 128,-1,17
 65 -7 65 -7 49 -7 c 0,18,19
 31 -7 31 -7 20 3.5 c 128,-1,20
 9 14 9 14 8.5 30 c 128,-1,21
 8 46 8 46 22 61 c 2,22,-1
 305 379 l 1,23,-1
 305 342 l 1,24,-1
 128 646 l 2,25,26
 118 663 118 663 119.5 678 c 128,-1,27
 121 693 121 693 132.5 702.5 c 128,-1,28
 144 712 144 712 162 712 c 256,29,30
 180 712 180 712 189.5 704.5 c 128,-1,31
 199 697 199 697 210 677 c 2,32,-1
 363 409 l 1,33,-1
 341 409 l 1,34,-1
 579 684 l 2,35,36
 592 699 592 699 604 705.5 c 128,-1,37
 616 712 616 712 631 712 c 0,38,39
 649 712 649 712 660.5 702.5 c 128,-1,40
 672 693 672 693 672.5 677.5 c 128,-1,41
 673 662 673 662 660 646 c 2,42,-1
 387 338 l 1,43,-1
 387 381 l 1,44,-1
 522 151 l 2,45,46
 547 108 547 108 557.5 69.5 c 128,-1,47
 568 31 568 31 568 1 c 0,48,49
 568 -79 568 -79 524.5 -123 c 128,-1,50
 481 -167 481 -167 393 -181 c 0,0,1
EndSplineSet
EndChar

